<?xml version="1.0" encoding="utf-8"?>
<!-- Generator: Adobe Illustrator 22.0.1, SVG Export Plug-In . SVG Version: 6.00 Build 0)  -->
<svg version="1.1" id="Слой_1" xmlns="http://www.w3.org/2000/svg" xmlns:xlink="http://www.w3.org/1999/xlink" x="0px" y="0px"
	 width="427.8px" height="83.2px" viewBox="0 0 427.8 83.2" style="enable-background:new 0 0 427.8 83.2;" xml:space="preserve">
<style type="text/css">
	.st0{fill:#fff;}
</style>
<g>
	<g>
		<path class="st0" d="M114.6,82.9V72.1h-3.9v-2.5h10.6v2.5h-3.9v10.8H114.6z"/>
		<path class="st0" d="M134.6,82.9l-2.6-4.7h-2.1v4.7h-2.8V69.7h6.2c2.8,0,4.4,1.8,4.4,4.3c0,2.3-1.5,3.6-2.9,3.9l3,5H134.6z
			 M134.8,73.9c0-1.1-0.9-1.8-2-1.8h-3v3.6h3C134,75.7,134.8,75,134.8,73.9z"/>
		<path class="st0" d="M153,82.9l-0.8-2.2h-5.7l-0.8,2.2h-3.2l5.1-13.2h3.5l5.1,13.2H153z M149.3,72.5l-2.1,5.7h4.1L149.3,72.5z"/>
		<path class="st0" d="M165.1,82.9L160,69.7h3.2l3.7,10.2l3.7-10.2h3.2l-5.1,13.2H165.1z"/>
		<path class="st0" d="M179,82.9V69.7h9.4v2.5h-6.6v2.8h6.4v2.5h-6.4v3h6.6v2.5H179z"/>
		<path class="st0" d="M194.5,82.9V69.7h2.8v10.8h5.6v2.5H194.5z"/>
		<path class="st0" d="M227.1,82.9l-0.8-2.2h-5.7l-0.8,2.2h-3.2l5.1-13.2h3.5l5.1,13.2H227.1z M223.4,72.5l-2.1,5.7h4.1L223.4,72.5z
			"/>
		<path class="st0" d="M234.9,76.3c0-4.2,3.2-6.9,7-6.9c2.8,0,4.5,1.4,5.5,3l-2.3,1.3c-0.6-0.9-1.7-1.7-3.1-1.7
			c-2.4,0-4.1,1.8-4.1,4.3s1.7,4.3,4.1,4.3c1.2,0,2.3-0.5,2.8-1V78h-3.5v-2.5h6.3v5.1c-1.3,1.5-3.2,2.5-5.6,2.5
			C238.1,83.2,234.9,80.5,234.9,76.3z"/>
		<path class="st0" d="M253.8,82.9V69.7h9.4v2.5h-6.6v2.8h6.4v2.5h-6.4v3h6.6v2.5H253.8z"/>
		<path class="st0" d="M278.5,82.9l-6.3-8.6v8.6h-2.8V69.7h2.9l6.1,8.3v-8.3h2.8v13.2H278.5z"/>
		<path class="st0" d="M287.2,76.3c0-4.1,3.1-6.9,7-6.9c2.9,0,4.6,1.6,5.5,3.2l-2.4,1.2c-0.6-1.1-1.7-1.9-3.1-1.9
			c-2.4,0-4.2,1.8-4.2,4.3s1.7,4.3,4.2,4.3c1.4,0,2.6-0.8,3.1-1.9l2.4,1.2c-1,1.6-2.6,3.3-5.5,3.3C290.3,83.1,287.2,80.4,287.2,76.3
			z"/>
		<path class="st0" d="M309.2,82.9v-5.4l-5.1-7.8h3.2l3.3,5.3l3.3-5.3h3.2l-5.1,7.8v5.4H309.2z"/>
	</g>
	<g>
		<path class="st0" d="M398.6,1c3.8,0.1,8.1-0.3,12.4,0.6c5.4,1.2,9.6,3.8,11,9.6c1.5,6.4-1.2,12.2-7.2,15c-0.9,0.4-0.8,0.7-0.4,1.4
			c3.2,4.8,6.4,9.5,9.6,14.3c0.6,1,1.4,1.8,2.6,1.9c1.1,0.1,1,0.9,1.1,1.6c0,0.8-0.1,1.2-1.1,1.5c-5.3,1.3-9.3-0.2-12.2-4.8
			c-2.5-4-5.1-8-7.5-12c-0.6-1-1.3-1.4-2.5-1.4c-3.6,0.1-3.6,0-3.6,3.6c0,3,0,6,0,9c0,1.1,0.2,1.8,1.5,1.8c0.8,0,1.7,0.4,2.5,0.4
			c0.9,0.1,1,0.5,1.1,1.3c0.1,1.4-0.3,1.8-1.8,1.8c-5-0.1-10,0-15,0c-0.7,0-1.5,0.2-1.5-0.9c0-0.9-0.4-1.9,1.1-2.2
			c3.1-0.6,3-0.7,3-3.9c0-11.1,0-22.2,0-33.3c0-1.4-0.5-2-1.8-2.1c-0.4,0-0.8-0.2-1.2-0.2c-1.7,0-1.2-1.3-1.2-2.2
			c-0.1-1.2,0.9-0.8,1.5-0.8C392.2,1,395.1,1,398.6,1z M400.9,14.9c0,2.2,0,4.5,0,6.7c0.1,3.6-0.8,3.3,3.4,3.1
			c5.3-0.2,8.6-3.4,9-8.7c0.5-5.5-2.2-9.5-7.2-10.6c-1.2-0.3-2.5-0.2-3.8-0.4c-1.2-0.1-1.5,0.4-1.4,1.5
			C400.9,9.3,400.9,12.1,400.9,14.9z"/>
		<path class="st0" d="M312,47.5c-11.4,0-19.7-7.4-21.2-18.7c-0.8-6-0.2-11.9,2.5-17.4c4.4-9,12.9-12.1,21.5-11.2
			c13.5,1.4,19.8,12.8,19,24.9c-0.2,2.7-0.6,5.3-1.5,7.9C329.2,42.3,321.8,47.5,312,47.5z M324.6,25.9c0.2-1.9,0-3.7-0.2-5.5
			c-0.5-4.7-1.7-9.2-4.9-12.9c-3.9-4.5-10.5-4.9-14.7-1.1c-1.8,1.6-2.8,3.7-3.6,5.9c-1.5,4.7-1.8,9.6-1.4,14.5
			c0.4,4.4,1.4,8.6,4.2,12.2c2.8,3.6,6.4,5.2,11,4.3c4.2-0.9,6.5-3.8,8-7.6C324.1,32.6,324.5,29.2,324.6,25.9z"/>
		<path class="st0" d="M371.8,19.8c0-4.6,0-9.2,0-13.7c0-1.1-0.4-1.6-1.4-1.7c-0.5,0-0.9-0.2-1.3-0.3c-1.3-0.3-1.8-1.4-1.4-2.7
			c0.2-0.6,0.6-0.4,1-0.4c4,0,8,0,12.1,0c0.5,0,1.1-0.1,1,0.7c-0.1,0.8,0.6,1.8-0.6,2.2c-0.3,0.1-0.6,0.1-0.9,0.2
			c-2.7,0.6-2.7,0.6-2.7,3.5c0,8,0,16,0,24c-0.1,7.5-4.6,13.5-11.7,15.3c-5.1,1.3-10.1,0.9-14.9-1.3c-6.4-2.9-8.7-8.4-8.7-15
			c-0.1-8.1-0.1-16.2,0-24.3c0-1.4-0.4-1.9-1.7-2c-0.5,0-0.9-0.2-1.3-0.3c-1.7-0.1-1-1.3-1.1-2.2C338,0.8,338.8,1,339.5,1
			c4.7,0,9.4,0,14,0c0.5,0,1.4-0.3,1.3,0.7c-0.1,0.8,0.7,1.9-0.9,2.4c-2.8,0.8-2.8,0.8-2.8,3.8c0,8,0,16.1,0,24.1
			c0,1.5,0.1,3,0.5,4.5c1.6,4.9,5.8,7.4,11.4,6.6c4.8-0.7,8.5-4.6,8.7-9.4C371.9,29.1,371.8,24.4,371.8,19.8
			C371.8,19.8,371.8,19.8,371.8,19.8z"/>
		<path class="st0" d="M4.3,19.4c0-4.4,0-8.9,0-13.3c0-1.2-0.4-1.7-1.5-1.8c-0.4,0-0.7-0.2-1.1-0.2C0.1,4.2-0.1,3.1,0,1.7
			C0.1,1.1,0.3,1,0.9,1C5.9,1,11,1,16,1c0.4,0,0.9,0.1,0.8,0.6c-0.1,0.8,0.5,1.7-0.5,2.3C16.2,4,16.1,4,16,4
			c-2.8,0.9-2.8,0.9-2.8,3.9c0,8.4,0,16.8,0,25.2c0,5.1,3.3,9.2,7.7,10c7.1,1.3,12.8-3.2,12.9-10.4c0.2-9,0-17.9,0.1-26.9
			c0-0.8-0.2-1.2-1-1.3c-0.7-0.1-1.4-0.4-2.1-0.5c-0.8-0.1-1-0.4-1.1-1.3c-0.1-1.5,0.3-1.9,1.8-1.9c3.7,0.1,7.3,0,11,0
			c0.6,0,1.4-0.2,1.2,0.8c-0.1,0.8,0.7,1.9-1,2.3c-3.2,0.7-3.2,0.8-3.2,4.1c0,7.5,0,15,0,22.4c0,5.6-1.8,10.4-6.4,13.8
			c-3.1,2.3-6.6,3-10.4,3c-3.8,0-7.5-0.6-10.9-2.5c-4.8-2.7-7.1-6.9-7.4-12.2C4.1,28.4,4.3,23.9,4.3,19.4
			C4.3,19.4,4.3,19.4,4.3,19.4z"/>
		<path class="st0" d="M211.5,46.6c-5,0-10,0-15,0c-0.6,0-1.4,0.2-1.3-0.9c0.1-0.9-0.5-1.9,1.1-2.2c3.1-0.7,3.1-0.8,3.1-4
			c0-11,0-22,0-33c0-1.5-0.4-2.2-1.9-2.2c-0.5,0-0.9-0.2-1.3-0.3c-1.7-0.1-0.9-1.4-1-2.2c-0.2-1,0.6-0.8,1.2-0.8
			c9.9,0,19.8,0,29.6,0c0.9,0,1.3,0.2,1.2,1.2C227.1,5.1,227,8,227,11c0,0.7-0.3,1-1,0.9c-3.1-0.1-2.6,0.6-2.9-2.6
			c-0.3-3.9-0.3-4-4.2-4.1c-3.2-0.1-6.3-0.1-9.5-0.2c-0.8,0-1.1,0.2-1.1,1c0,4.7,0,9.4,0,14c0,0.9,0.4,1.1,1.2,1.1
			c3.7-0.1,7.4-0.2,11.1-0.3c1.1,0,1.5,0.2,1.5,1.4c0,3.6,0,3.6-3.6,3.5c-3-0.1-6-0.1-9-0.2c-1,0-1.2,0.3-1.2,1.2
			c0,4.9,0,9.8,0,14.7c0,0.9,0.3,1.2,1.2,1.2c4.4-0.1,8.8-0.2,13.1-0.2c0.9,0,1.2-0.3,1.3-1.2c0.2-1.5,0.5-3,0.7-4.5
			c0.1-0.7,0.4-1.1,1.3-1.1c2.3,0,2.3-0.1,2.3,2.3c0,2.4-0.2,4.9-0.2,7.3c0,1.2-0.3,1.6-1.6,1.6C221.4,46.6,216.5,46.6,211.5,46.6z"
			/>
		<path class="st0" d="M125,39.2c0-1.5,0-3.1,0-4.6c0-0.9,0.3-1.1,1.1-1.2c2.4-0.1,2.4-0.1,2.7,2.2c0.2,1.9,0.5,3.8,0.7,5.8
			c0.1,0.6,0.2,1.2,1,1.4c3.2,0.7,6.5,1,9.7,0c5.1-1.6,6.9-8.1,3.4-12.2c-1.5-1.7-3.4-2.8-5.3-3.7c-2.5-1.2-5.1-2.3-7.4-3.9
			c-4.6-3.3-6.6-8.2-5.2-13.6c1-4,3.7-6.6,7.5-8c5.8-2.1,11.6-1.6,17.3,0.6c1.1,0.4,1.5,1.1,1.4,2.3c-0.3,2.8-0.4,5.6-0.5,8.4
			c0,1-0.5,1.2-1.3,1.1c-0.9-0.1-2.2,0.6-2.3-1.1c-0.2-2.1-0.5-4.2-0.7-6.4c-0.1-0.8-0.4-1.3-1.2-1.5C143,4.1,140.2,4,137.5,5
			c-4.5,1.8-5.6,7-2.4,10.6c1.4,1.5,3.1,2.4,4.9,3.4c2.7,1.5,5.4,2.9,7.9,4.7c4.5,3.2,6.2,7.6,5.3,12.9c-0.9,5.3-4.3,8.4-9.3,9.9
			c-5.9,1.7-11.7,1.4-17.5-0.9c-1-0.4-1.4-0.9-1.4-2C125.2,42.1,125.1,40.6,125,39.2C125.1,39.2,125.1,39.2,125,39.2z"/>
		<path class="st0" d="M160.5,39.3c0-1.5,0-3.1,0-4.6c0-0.9,0.2-1.3,1.2-1.3c2.4,0,2.4-0.1,2.7,2.3c0.2,1.9,0.5,3.8,0.7,5.7
			c0.1,0.6,0.2,1.2,1,1.3c3.1,0.6,6.2,0.9,9.4,0c5.3-1.5,7.2-8,3.6-12.3c-1.5-1.7-3.4-2.8-5.3-3.7c-2.6-1.2-5.2-2.3-7.5-4
			c-4.5-3.3-6.4-8.1-5.1-13.4c1-4.1,3.7-6.7,7.6-8.1c5.7-2.1,11.5-1.6,17.1,0.5c1.2,0.4,1.6,1.1,1.5,2.4c-0.2,2.7-0.3,5.4-0.4,8.1
			c0,1.1-0.4,1.5-1.6,1.4c-1-0.1-2.1,0.3-2.2-1.4c-0.1-2-0.5-4-0.6-6.1c-0.1-0.9-0.4-1.3-1.2-1.5c-2.5-0.6-5-0.8-7.5,0
			c-5.3,1.7-6.7,7.4-2.6,11.3c1.4,1.4,3.1,2.2,4.8,3.2c2.8,1.5,5.6,3,8.1,4.9c4.4,3.4,5.7,7.9,4.5,13.2c-1.1,5.1-4.7,7.9-9.5,9.3
			c-5.7,1.6-11.4,1.2-16.9-0.9c-1.1-0.4-1.6-1.1-1.5-2.3c0.1-1.4,0-2.7,0-4.1C160.6,39.3,160.5,39.3,160.5,39.3z"/>
		<path class="st0" d="M267.3,0.9c5.9,0,11.7,0,17.6,0c1.2,0,1.4,0.4,1.4,1.5c-0.3,3.1-0.4,6.2-0.6,9.3c0,1-0.4,1.3-1.3,1.1
			c-0.8-0.2-2.2,0.8-2.3-1.1c-0.1-1.7-0.2-3.5-0.3-5.2c0-0.7-0.2-1.1-1-1.1c-2.6-0.1-5.3-0.3-7.9-0.5c-0.9-0.1-1.2,0.2-1.2,1.2
			c0,11.9,0,23.8,0,35.7c0,0.9,0.3,1.3,1.2,1.3c0.9,0.1,1.7,0.3,2.6,0.4c0.9,0.1,1.2,0.5,1.2,1.4c0.1,1.3-0.3,1.8-1.7,1.7
			c-5.2-0.1-10.4,0-15.6,0c-0.7,0-1.6,0.3-1.6-1c0-1.1-0.1-1.9,1.4-2.1c3.6-0.6,3.6-0.7,3.6-4.3c0-10.8,0-21.7,0-32.5
			c0-1.4-0.3-1.9-1.8-1.7c-2.4,0.3-4.8,0.4-7.1,0.5c-1.1,0-1.4,0.5-1.5,1.5c-0.2,1.6-0.4,3.2-0.6,4.8c-0.2,1.9-1.7,0.9-2.6,1.1
			c-1,0.2-1-0.5-1-1.2c0-3.1,0-6.2,0-9.3c0-1.1,0.3-1.4,1.4-1.4C255.4,1,261.3,0.9,267.3,0.9z"/>
		<path class="st0" d="M102.2,24.8c2.5-6.6,6.3-12.1,9.2-18.2c0.8-1.7,0.8-1.7-1-2.1c-0.4-0.1-0.8-0.3-1.2-0.3
			c-1.4-0.1-1.7-0.9-1.6-2.1c0.1-0.8,0.2-1.1,1.1-1.1c4,0,7.9,0,11.9,0c0.5,0,1.1-0.1,1.1,0.7c-0.1,0.8,0.5,1.8-0.6,2.3
			C121,4,120.9,4,120.8,4c-2.4,0.1-3.6,1.7-4.6,3.7c-3.4,6.4-7,12.6-10.5,18.9c-0.5,0.8-0.7,1.6-0.7,2.6c0,4,0.1,8,0,12.1
			c0,1.3,0.4,1.9,1.6,1.9c0.3,0,0.6,0.1,0.9,0.2c1.4,0.3,2,1.4,1.5,2.7c-0.2,0.5-0.5,0.4-0.9,0.4c-5,0-10,0-15,0
			c-0.5,0-1-0.1-0.9-0.7c0.1-0.7-0.5-1.6,0.4-2.2c0.2-0.1,0.4-0.1,0.6-0.2c2.8-0.7,2.8-0.7,2.8-3.6c0-1.4-0.1-2.9,0-4.3
			c0.6-5.3-0.8-10-3.8-14.5c-3.2-4.8-5.8-9.9-8.6-14.9c-0.7-1.2-1.4-2.1-2.8-2.2c-1.6-0.1-1.2-1.3-1.2-2.3C79.6,0.6,80.6,1,81.2,1
			c4.2,0,8.4,0,12.7,0c0.8,0,1.5,0,1.3,1.1c-0.1,0.9,0.3,1.8-1.2,2c-2.9,0.3-2.9,0.4-1.4,3C95.8,12.9,99.2,18.6,102.2,24.8z"/>
		<path class="st0" d="M66.1,46.6c-4.9,0-9.9,0-14.8,0c-0.6,0-1.5,0.3-1.4-0.8c0-0.9-0.5-2,1.1-2.3c3-0.6,3-0.7,3-3.8
			c0-11,0-22,0-33c0-1.7-0.4-2.3-2.1-2.5c-2.2-0.3-2.3-0.5-2.1-2.4c0-0.7,0.3-0.9,0.9-0.9c5.6,0,11.2,0,16.8,0
			c0.6,0,1.1,0.1,0.9,0.8c-0.2,0.7,0.6,1.9-0.7,2.1c-1,0.2-2.1,0.4-3.2,0.4c-1.2,0.1-1.7,0.5-1.6,1.9c0.1,11.1,0,22.3,0,33.4
			c0,2.9,0,2.9,2.9,2.8c3.7-0.1,7.4-0.2,11.1-0.2c1.1,0,1.4-0.4,1.5-1.4c0.2-1.5,0.5-2.9,0.7-4.4c0.3-1.9,1.8-1,2.8-1.1
			c1.1-0.2,0.8,0.8,0.8,1.4c0,2.7-0.2,5.5-0.2,8.2c0,1.2-0.3,1.6-1.5,1.5C76,46.6,71,46.6,66.1,46.6z"/>
	</g>
</g>
</svg>
