<?xml version="1.0" encoding="utf-8"?>
<!-- Generator: Adobe Illustrator 22.0.1, SVG Export Plug-In . SVG Version: 6.00 Build 0)  -->
<svg version="1.1" id="Capa_1" xmlns="http://www.w3.org/2000/svg" xmlns:xlink="http://www.w3.org/1999/xlink" x="0px" y="0px"
	 width="512px" height="512px" viewBox="0 0 512 512" style="enable-background:new 0 0 512 512;" xml:space="preserve">
<style type="text/css">
	.st0{fill:#21599B;}
	.st1{fill:#D17827;}
</style>
<path class="st0" d="M150.4,312c7.5-3.8,16.4-1,20.4,6.4l28.2,52.3c2.2,4,6.8,6.1,11.3,4.9c4.4-1.1,7.5-5.1,7.5-9.7v-76.4
	c0-5.5-4.5-10-10-10s-10,4.5-10,10v36.8l-9.4-17.5c-9.2-17-29.8-23.5-47-14.8c-14.7,7.4-22.3,23.8-18.4,39.9l18.3,75.9
	c4.3,17.7,11.9,34.2,22.7,48.9l35.9,49.1c2,2.7,5,4.1,8.1,4.1c2,0,4.1-0.6,5.9-1.9c4.5-3.3,5.4-9.5,2.2-14L180.1,447
	c-9.2-12.6-15.7-26.7-19.4-41.8l-18.3-75.9C140.8,322.3,144.1,315.2,150.4,312z"/>
<path class="st0" d="M376.2,269.4c-5.9,0-11.5,1.5-16.3,4.2c-4.9-12.8-17.3-21.9-31.8-21.9c-6.2,0-12.1,1.7-17.1,4.7
	c-5.4-11.7-17.2-19.9-30.9-19.9c-5,0-9.8,1.1-14,3v-47.8c0-18.8-15.3-34-34-34s-34,15.3-34,34V209c0,5.5,4.5,10,10,10s10-4.5,10-10
	v-17.3c0-7.7,6.3-14,14-14s14,6.3,14,14v141.1c0,5.5,4.5,10,10,10c5.5,0,10-4.5,10-10v-62.3c0-7.7,6.3-14,14-14c7.7,0,14,6.3,14,14
	v62.3c0,5.5,4.5,10,10,10s10-4.5,10-10v-47.1c0-7.7,6.3-14,14-14c7.7,0,14,6.3,14,14v47.1c0,5.5,4.5,10,10,10s10-4.5,10-10v-29.3
	c0-7.7,6.3-14,14-14s14,6.3,14,14v84.4c0,22.5-3.4,44.8-10.1,66.2L366,499c-1.7,5.3,1.3,10.9,6.5,12.5c1,0.3,2,0.5,3,0.5
	c4.3,0,8.2-2.7,9.5-7l14.1-45c7.3-23.4,11.1-47.7,11.1-72.2v-84.4C410.3,284.7,395,269.4,376.2,269.4z"/>
<path class="st1" d="M301.3,56.8c-1.2-3.8-4.5-6.5-8.4-7.1l-19-2.8l-8.5-17.2c-1.8-3.6-5.4-5.8-9.4-5.8c0,0,0,0,0,0
	c-4,0-7.6,2.2-9.4,5.8l-8.5,17.2l-19,2.8c-4,0.6-7.2,3.3-8.4,7.1c-1.2,3.8-0.2,7.9,2.6,10.7l13.8,13.4l-3.2,18.9
	c-0.7,4,0.9,7.9,4.2,10.2c1.8,1.3,4,2,6.1,2c1.7,0,3.3-0.4,4.9-1.2l17-8.9l17,8.9c3.5,1.9,7.8,1.6,11-0.8c3.2-2.4,4.8-6.3,4.2-10.2
	l-3.3-18.9l13.8-13.4C301.6,64.7,302.6,60.6,301.3,56.8z M275.5,72.8c-2.5,2.4-3.6,5.9-3,9.3l2.8,16l-14.4-7.6c-3-1.6-6.7-1.6-9.7,0
	l-14.4,7.6l2.7-16c0.6-3.4-0.5-6.9-3-9.3l-11.7-11.4l16.1-2.3c3.4-0.5,6.3-2.6,7.9-5.7l7.2-14.6l7.2,14.6c1.5,3.1,4.5,5.2,7.9,5.7
	l16.1,2.3L275.5,72.8z"/>
<path class="st1" d="M196.3,56.8c-1.2-3.8-4.5-6.5-8.4-7.1l-19-2.8l-8.5-17.2c-1.8-3.6-5.4-5.8-9.4-5.8c0,0,0,0,0,0
	c-4,0-7.6,2.2-9.4,5.8L133,46.9l-19,2.8c-4,0.6-7.2,3.3-8.4,7.1c-1.2,3.8-0.2,7.9,2.6,10.7L122,80.9l-3.2,18.9
	c-0.7,4,0.9,7.9,4.2,10.2c1.8,1.3,4,2,6.1,2c1.7,0,3.3-0.4,4.9-1.2l17-8.9l17,8.9c3.5,1.9,7.8,1.6,11-0.8c3.2-2.4,4.8-6.3,4.2-10.2
	l-3.3-18.9l13.8-13.4C196.5,64.7,197.5,60.6,196.3,56.8z M170.5,72.8c-2.5,2.4-3.6,5.9-3,9.3l2.8,16l-14.4-7.6c-3-1.6-6.7-1.6-9.7,0
	l-14.4,7.6l2.7-16c0.6-3.4-0.5-6.9-3-9.3l-11.7-11.4l16.1-2.3c3.4-0.5,6.3-2.6,7.9-5.7l7.2-14.6l7.2,14.6c1.5,3.1,4.5,5.2,7.9,5.7
	l16.1,2.3L170.5,72.8z"/>
<path class="st1" d="M511.5,56.8c-1.2-3.8-4.5-6.5-8.4-7.1l-19-2.8l-8.5-17.2c-1.8-3.6-5.4-5.8-9.4-5.8c0,0,0,0,0,0
	c-4,0-7.6,2.2-9.4,5.8l-8.5,17.2l-19,2.8c-4,0.6-7.2,3.3-8.4,7.1c-1.2,3.8-0.2,7.9,2.6,10.7l13.8,13.4L434,99.9
	c-0.7,4,0.9,7.9,4.2,10.2c1.8,1.3,4,2,6.1,2c1.7,0,3.3-0.4,4.9-1.2l17-8.9l17,8.9c3.5,1.9,7.8,1.6,11-0.8c3.2-2.4,4.8-6.3,4.2-10.2
	l-3.3-18.9l13.8-13.4C511.7,64.7,512.7,60.6,511.5,56.8z M485.7,72.8c-2.5,2.4-3.6,5.9-3,9.3l2.8,16L471,90.5c-3-1.6-6.7-1.6-9.7,0
	l-14.4,7.6l2.7-16c0.6-3.4-0.5-6.9-3-9.3L435,61.4l16.1-2.3c3.4-0.5,6.3-2.6,7.9-5.7l7.2-14.6l7.2,14.6c1.5,3.1,4.5,5.2,7.9,5.7
	l16.1,2.3L485.7,72.8z"/>
<path class="st1" d="M406.4,56.8c-1.2-3.8-4.5-6.5-8.4-7.1l-19-2.8l-8.5-17.2c-1.8-3.6-5.4-5.8-9.4-5.8c0,0,0,0,0,0
	c-4,0-7.6,2.2-9.4,5.8l-8.5,17.2l-19,2.8c-4,0.6-7.2,3.3-8.4,7.1c-1.2,3.8-0.2,7.9,2.6,10.7l13.8,13.4l-3.2,18.9
	c-0.7,4,0.9,7.9,4.2,10.2c1.8,1.3,4,2,6.1,2c1.7,0,3.3-0.4,4.9-1.2l17-8.9l17,8.9c3.5,1.9,7.8,1.6,11-0.8c3.2-2.4,4.8-6.3,4.2-10.2
	L390,80.9l13.8-13.4C406.6,64.7,407.7,60.6,406.4,56.8z M380.6,72.8c-2.5,2.4-3.6,5.9-3,9.3l2.8,16l-14.4-7.6c-3-1.6-6.7-1.6-9.7,0
	l-14.4,7.6l2.7-16c0.6-3.4-0.5-6.9-3-9.3l-11.7-11.4l16.1-2.3c3.4-0.5,6.3-2.6,7.9-5.7l7.2-14.6l7.2,14.6c1.5,3.1,4.5,5.2,7.9,5.7
	l16.1,2.3L380.6,72.8z"/>
<path class="st1" d="M91.2,56.8c-1.2-3.8-4.5-6.5-8.4-7.1l-19-2.8l-8.5-17.2c-1.8-3.6-5.4-5.8-9.4-5.8c0,0,0,0,0,0
	c-4,0-7.6,2.2-9.4,5.8L28,46.9L9,49.7c-4,0.6-7.2,3.3-8.4,7.1s-0.2,7.9,2.6,10.7l13.8,13.4l-3.2,18.9c-0.7,4,0.9,7.9,4.2,10.2
	c1.8,1.3,4,2,6.1,2c1.7,0,3.3-0.4,4.9-1.2l17-8.9l17,8.9c3.5,1.9,7.8,1.6,11-0.8c3.2-2.4,4.8-6.3,4.2-10.2l-3.3-18.9l13.8-13.4
	C91.4,64.7,92.5,60.6,91.2,56.8z M65.4,72.8c-2.5,2.4-3.6,5.9-3,9.3l2.8,16l-14.4-7.6c-3-1.6-6.7-1.6-9.7,0l-14.4,7.6l2.7-16
	c0.6-3.4-0.5-6.9-3-9.3L14.7,61.4l16.1-2.3c3.4-0.5,6.3-2.6,7.9-5.7l7.2-14.6l7.2,14.6c1.5,3.1,4.5,5.2,7.9,5.7L77,61.4L65.4,72.8z"
	/>
<path class="st0" d="M215,243.1c-1.9-1.9-4.4-2.9-7.1-2.9c-2.6,0-5.2,1.1-7.1,2.9s-2.9,4.4-2.9,7.1c0,2.6,1.1,5.2,2.9,7.1
	c1.9,1.9,4.4,2.9,7.1,2.9s5.2-1.1,7.1-2.9c1.9-1.9,2.9-4.4,2.9-7.1C217.9,247.6,216.8,245,215,243.1z"/>
</svg>
