<?xml version="1.0" encoding="utf-8"?>
<!-- Generator: Adobe Illustrator 22.0.1, SVG Export Plug-In . SVG Version: 6.00 Build 0)  -->
<svg version="1.1" id="Capa_1" xmlns="http://www.w3.org/2000/svg" xmlns:xlink="http://www.w3.org/1999/xlink" x="0px" y="0px"
	 width="512px" height="512px" viewBox="0 0 512 512" style="enable-background:new 0 0 512 512;" xml:space="preserve">
<style type="text/css">
	.st0{fill:#D17827;}
	.st1{fill:#21599B;}
</style>
<path class="st0" d="M245.5,195.4l10.5-7.6l10.5,7.6c3.6,2.6,8.6,1.8,11.2-1.7c1.5-2.1,1.9-4.8,1.1-7.2l-4-12.4l10.5-7.6
	c3.6-2.6,4.4-7.6,1.8-11.2c-1.5-2.1-3.9-3.3-6.5-3.3h-13l-4-12.4c-1.4-4.2-5.9-6.5-10.1-5.1c-2.4,0.8-4.3,2.7-5.1,5.1l-4,12.4h-13
	c-4.4,0-8,3.6-8,8c0,2.6,1.2,5,3.3,6.5l10.5,7.6l-4,12.4c-1.4,4.2,0.9,8.7,5.1,10.1C240.8,197.4,243.4,196.9,245.5,195.4
	L245.5,195.4z M256,165.5c0.7,0.7,1.5,1.3,2.4,1.7c-0.5,0.9-0.8,1.8-0.9,2.8c-1-0.2-2-0.2-2.9,0c-0.1-1-0.4-1.9-0.9-2.8
	C254.5,166.8,255.3,166.2,256,165.5z"/>
<path class="st0" d="M448,160L448,160c4.4,0,8,3.6,8,8v0c0,4.4-3.6,8-8,8l0,0c-4.4,0-8-3.6-8-8v0C440,163.6,443.6,160,448,160z"/>
<path class="st0" d="M464,176L464,176c4.4,0,8,3.6,8,8v0c0,4.4-3.6,8-8,8l0,0c-4.4,0-8-3.6-8-8v0C456,179.6,459.6,176,464,176z"/>
<path class="st0" d="M432,176L432,176c4.4,0,8,3.6,8,8v0c0,4.4-3.6,8-8,8l0,0c-4.4,0-8-3.6-8-8v0C424,179.6,427.6,176,432,176z"/>
<path class="st0" d="M448,192L448,192c4.4,0,8,3.6,8,8v0c0,4.4-3.6,8-8,8l0,0c-4.4,0-8-3.6-8-8v0C440,195.6,443.6,192,448,192z"/>
<path class="st0" d="M400,32L400,32c4.4,0,8,3.6,8,8v0c0,4.4-3.6,8-8,8l0,0c-4.4,0-8-3.6-8-8v0C392,35.6,395.6,32,400,32z"/>
<path class="st0" d="M416,48L416,48c4.4,0,8,3.6,8,8v0c0,4.4-3.6,8-8,8l0,0c-4.4,0-8-3.6-8-8v0C408,51.6,411.6,48,416,48z"/>
<path class="st0" d="M384,48L384,48c4.4,0,8,3.6,8,8v0c0,4.4-3.6,8-8,8l0,0c-4.4,0-8-3.6-8-8v0C376,51.6,379.6,48,384,48z"/>
<path class="st0" d="M400,64L400,64c4.4,0,8,3.6,8,8v0c0,4.4-3.6,8-8,8l0,0c-4.4,0-8-3.6-8-8v0C392,67.6,395.6,64,400,64z"/>
<path class="st0" d="M104,32L104,32c4.4,0,8,3.6,8,8v0c0,4.4-3.6,8-8,8h0c-4.4,0-8-3.6-8-8v0C96,35.6,99.6,32,104,32z"/>
<path class="st0" d="M120,48L120,48c4.4,0,8,3.6,8,8v0c0,4.4-3.6,8-8,8h0c-4.4,0-8-3.6-8-8v0C112,51.6,115.6,48,120,48z"/>
<path class="st0" d="M88,48L88,48c4.4,0,8,3.6,8,8v0c0,4.4-3.6,8-8,8h0c-4.4,0-8-3.6-8-8v0C80,51.6,83.6,48,88,48z"/>
<path class="st0" d="M104,64L104,64c4.4,0,8,3.6,8,8v0c0,4.4-3.6,8-8,8h0c-4.4,0-8-3.6-8-8v0C96,67.6,99.6,64,104,64z"/>
<path class="st0" d="M80,168L80,168c4.4,0,8,3.6,8,8v0c0,4.4-3.6,8-8,8h0c-4.4,0-8-3.6-8-8v0C72,171.6,75.6,168,80,168z"/>
<path class="st0" d="M96,184L96,184c4.4,0,8,3.6,8,8v0c0,4.4-3.6,8-8,8h0c-4.4,0-8-3.6-8-8v0C88,187.6,91.6,184,96,184z"/>
<path class="st0" d="M64,184L64,184c4.4,0,8,3.6,8,8v0c0,4.4-3.6,8-8,8h0c-4.4,0-8-3.6-8-8v0C56,187.6,59.6,184,64,184z"/>
<path class="st0" d="M80,200L80,200c4.4,0,8,3.6,8,8v0c0,4.4-3.6,8-8,8h0c-4.4,0-8-3.6-8-8v0C72,203.6,75.6,200,80,200z"/>
<path class="st1" d="M488,416H368v-72c0-4.4-3.6-8-8-8h-40v-16c0-4.4-3.6-8-8-8h-32v-64.6c27.5-4,48-27.5,48-55.4v-8.8
	c18.6-3.8,32-20.2,32-39.2v-24c0-8.8-7.2-16-16-16H168c-8.8,0-16,7.2-16,16v24c0,19,13.4,35.4,32,39.2v8.8c0,27.8,20.5,51.4,48,55.4
	V312h-32c-4.4,0-8,3.6-8,8v16h-40c-4.4,0-8,3.6-8,8v72H24c-4.4,0-8,3.6-8,8v64c0,4.4,3.6,8,8,8h464c4.4,0,8-3.6,8-8v-64
	C496,419.6,492.4,416,488,416z M344,144c0,10.2-6.4,19.2-16,22.6V120h16V144z M168,144v-24h16v46.6C174.4,163.2,168,154.2,168,144z
	 M200,192v-72h112v72c0,22.1-17.9,40-40,40h-32C217.9,232,200,214.1,200,192z M248,248h16v64h-16V248z M208,328h96v8h-96V328z
	 M32,432h112v48H32V432z M160,352h192v128H160V352z M480,480H368v-48h112V480z"/>
<path class="st0" d="M244,392L244,392c-2.2,0-4,1.8-4,4v8c0,2.2,1.8,4,4,4l0,0c2.2,0,4,1.8,4,4v48c0,2.2,1.8,4,4,4h8
	c2.2,0,4-1.8,4-4v-72c0-2.2-1.8-4-4-4h-8c-2.2,0-4,1.8-4,4l0,0C248,390.2,246.2,392,244,392z"/>
<path class="st0" d="M192,88h128c4.4,0,8-3.6,8-8V24c0-4.4-3.6-8-8-8c-2.1,0-4.2,0.8-5.7,2.3l-32.7,32.8l-18.7-31.2
	c-2.6-3.8-7.8-4.8-11.6-2.2c-0.8,0.6-1.6,1.3-2.2,2.2l-18.8,31.2l-32.7-32.8c-3.1-3.1-8.2-3.1-11.3,0c-1.5,1.5-2.3,3.5-2.3,5.7v56
	C184,84.4,187.6,88,192,88z M285.7,69.7L312,43.3V72h-32C282.1,72,284.2,71.2,285.7,69.7z M233,71.9c2.4-0.3,4.6-1.7,5.9-3.8
	L256,39.6l17.1,28.6c1.3,2.1,3.4,3.5,5.9,3.8c0.3,0,0.6,0.1,1,0.1h-48C232.3,72,232.7,72,233,71.9L233,71.9z M200,43.3l26.3,26.3
	c1.5,1.5,3.5,2.3,5.7,2.3h-32V43.3z"/>
<path class="st0" d="M48,88L48,88c4.4,0,8,3.6,8,8v0c0,4.4-3.6,8-8,8h0c-4.4,0-8-3.6-8-8v0C40,91.6,43.6,88,48,88z"/>
<path class="st0" d="M72,128L72,128c4.4,0,8,3.6,8,8v0c0,4.4-3.6,8-8,8h0c-4.4,0-8-3.6-8-8v0C64,131.6,67.6,128,72,128z"/>
<path class="st0" d="M120,248L120,248c4.4,0,8,3.6,8,8v0c0,4.4-3.6,8-8,8h0c-4.4,0-8-3.6-8-8v0C112,251.6,115.6,248,120,248z"/>
<path class="st0" d="M48,280L48,280c4.4,0,8,3.6,8,8v0c0,4.4-3.6,8-8,8h0c-4.4,0-8-3.6-8-8v0C40,283.6,43.6,280,48,280z"/>
<path class="st0" d="M448,96L448,96c4.4,0,8,3.6,8,8v0c0,4.4-3.6,8-8,8l0,0c-4.4,0-8-3.6-8-8v0C440,99.6,443.6,96,448,96z"/>
<path class="st0" d="M400,248L400,248c4.4,0,8,3.6,8,8v0c0,4.4-3.6,8-8,8l0,0c-4.4,0-8-3.6-8-8v0C392,251.6,395.6,248,400,248z"/>
<path class="st0" d="M448,288L448,288c4.4,0,8,3.6,8,8v0c0,4.4-3.6,8-8,8l0,0c-4.4,0-8-3.6-8-8v0C440,291.6,443.6,288,448,288z"/>
</svg>
