<?xml version="1.0" encoding="utf-8"?>
<!-- Generator: Adobe Illustrator 22.0.1, SVG Export Plug-In . SVG Version: 6.00 Build 0)  -->
<svg version="1.1" id="Слой_1" xmlns="http://www.w3.org/2000/svg" xmlns:xlink="http://www.w3.org/1999/xlink" x="0px" y="0px"
	 width="314.4px" height="180.1px" viewBox="0 0 314.4 180.1" style="enable-background:new 0 0 314.4 180.1;" xml:space="preserve"
	>
<style type="text/css">
	.st0{fill:#2F6097;}
</style>
<g>
	<g>
		<g>
			<path class="st0" d="M277.8,158.6c3-0.2,5.7-0.3,8.3-0.5c-1.5-0.3-2.9-0.3-4.4-0.3c-0.5,0-0.9-0.1-1-0.7c0-0.4-0.6-0.9,0.3-0.9
				l0.2-0.2c-4.5-2.2-9.3-3.8-13.8-5.9c-0.2-0.1-0.5,0-0.8,0c2.8,1.6,5.8,2.6,8.7,3.9c1.3,0.6,2.6,1.1,3.8,1.7
				c0.5,0.2,1,0.6,0.8,1.5c-21.7-9.3-43.5-18-65.3-27c1-0.4,1.8-1.1,2.9-0.2c0.5,0.4,1.3,0.3,1.9,0.5c-0.4-0.8-1.5-0.6-1.9-1.3
				c0.9-0.5,1.6-0.7,2.7-0.2c11.8,5,23.6,10,35.3,15c0.2,0.1,0.4,0.1,0.7,0.2c0.1-0.1,0.1-0.2,0.2-0.3c-6.4-3-13-5.6-19.5-8.4
				c-5.3-2.2-10.7-4.5-16-6.7c-0.3-0.1-0.8-0.1-0.9-0.8c2.1,0,3.7,1.3,5.5,1.9c0.6,0.2,1.2,0.7,1.9,0.6c-0.4-0.7-1.2-0.7-1.8-1
				c-1.1-0.6-2.6-0.7-2.6-2.4c-0.6-0.1-1.5,0-0.7-1c-0.7-0.4-1.2,0.3-1.9,0.2c-1.3-0.2-1.9-1.2-2.5-2.2c-0.4-0.7-0.8-1.8-1.8-1.3
				c-1.1,0.6-0.3,1.5-0.1,2.4c0.3,0.8,1.5,1.6,1.1,2.2c-0.4,0.6-1.7,0.6-2.6,1c-0.8,0.4-1.1-0.1-1.3-0.6c-0.8-1.5-1.4-3.1-2.6-4.4
				c0.2,1.3,1,2.4,1.6,3.6c0.4,0.8,0.9,1.5,0.6,2.5c-1.8-0.5-3.5-1.1-4.2-3.1c-0.3-0.8-1-1.3-1.9-0.9c-0.8,0.4-0.4,1.2-0.1,1.8
				c0,0.1,0.1,0.2,0.1,0.3c0.4,0.9,1.6,2.2,1.1,2.6c-1.1,1-2.9,0.8-4.4,1c-0.4,0.1-0.6-0.4-0.7-0.6c-0.8-1.6-1.6-3.1-2.4-4.8
				c6-1.2,11.7-3.2,17.6-4.9c0.8-0.2,0.9,0.2,1.1,0.6c0.8,1.4,1.5,2.8,2.3,4.3c0.1-0.1,0.2-0.1,0.4-0.2c-0.7-1.3-1.3-2.7-2-3.9
				c-0.7-1.1-0.4-1.6,0.8-1.7c0.2,0,0.3-0.1,0.5-0.1c1.3-0.3,3.2-1.6,3.7-0.9c0.9,1.2,0.7,3.1,1.1,4.9c-0.9-0.5-0.9-1.3-1.3-1.9
				c-0.3-0.4-0.6-0.9-1.2-0.5c-0.5,0.3-0.5,0.7-0.3,1.3c0.3,0.9,1.3,1.6,0.9,2.7c0.7-0.3,1.4-0.3,2,0.3c3.6,0.1,6.6,2.2,9.9,3.4
				c1.4,0.5,2.6,1.3,4.1,1.4c-0.6-0.9-1.7-1-2.6-1.4c-1.8-0.8-3.5-1.5-5.6-2.3c6.9-4.8,13.7-9.2,21.6-11.4
				c-9.2,1.2-18.2,3.3-27.4,5.2c0.2-5.7-0.1-11.3,0.3-16.9c0.1-1.7,0.5-3,1.6-4.5c4.6-5.6,9.5-11.1,13.3-17.5
				c2.3-4,4.9-7.8,6.5-12.2c0.2-0.5,0.3-1,1-1.1c2.5-0.3,5-0.7,7.5-1.1c0.9-0.2,2,0,3.2-1.1c-1.6,0.2-2.7,0.3-3.9,0.5
				c-2.2,0.3-4.3,0.9-6.5,0.8c-2-0.1-4.1-0.8-6-1.5c-0.5-0.2-1-0.6-1.9-0.2c1.7,0.7,3.1,1.5,4.8,1.5c1.3-0.1,1.6,0.6,1.2,1.7
				c-0.5,1.4-1.1,2.7-1.8,4c-2.3,4.2-4.3,8.7-7.8,12.2c-2.1,2.1-4.3,4.1-6.5,6.2c0.1,0.1,0.1,0.2,0.2,0.2c1.9-1.6,3.8-3.3,5.7-4.9
				c-3.4,4.6-6.7,9.2-10.6,13.4c-0.3,0.3-0.9,0.6-0.9,0.1c0-1.2-1-2.6,0.4-3.7c0.4-0.3,0.8-0.8,1.2-1.2c-0.1-0.1-0.1-0.2-0.2-0.2
				c-0.7,0.2-1,1.1-1.9,1.2c-1-6.7-1.6-13.4-3.2-20c0.1,2.2,0.4,4.5,0.7,6.7c0.5,3.7,0.8,7.4,1.6,11c0.5,2.4,0.3,4-2.4,5.1
				c-0.3-7.5-0.9-15-1.5-22.8c-0.6,0.8-0.4,1.3-0.4,1.7c0.4,6.6,0.8,13.2,1.2,19.8c0,0.5,0.5,1.4-0.6,1.3c-0.9,0-1.4-0.4-1.2-1.5
				c0.2-0.8,0.2-1.7,0.1-2.5c-0.1-6.6-0.9-13.3,0.4-19.9c1,1,2.1,0.5,3.3,0.4c1.5-0.2,1.9-1.7,3.1-2c4.8-1.1,9.6-2.3,14.4-3.5
				c1.7-0.4,3.3-0.9,5-1.4c-2.1-0.6-4.1,1.3-6.1-0.4c0.4,0.8,0.3,1.3-0.7,1.3c-2.3-0.1-4.4,0.7-6.4,1.5c-2.5,1-4.9,1.6-7.6,1.9
				c-1,0.1-2.2,0.1-3.3,0.4c-0.7-5.3-1.3-10.7-2-16.3c5.4,2.3,10.7,4.4,15.7,7.1c0.4-1,1-0.2,1.4-0.1c1.4,0.5,2.7,1,4.1,1.5l0.2-0.5
				c-3.5-0.9-6.5-2.8-9.9-3.9c-2.9-0.9-5.7-2.5-8.6-3.5c-2.3-0.8-3.8-1.9-3.2-4.6c0-0.2,0-0.3,0-0.5c-0.1-0.7-0.5-1.1-1.3-1
				c-0.8,0.1-0.8,0.6-0.8,1.2c0.2,2.4,0.2,4.7-1.4,6.7c0.4-0.3,0.8-0.5,1.4-0.9c-1.4,5.7-2,11.4-2.9,17c0.2,0,0.3,0.1,0.5,0.1
				c0.4-2.3,0.8-4.6,1.1-6.9c0.4-2.3,0.7-4.6,1.1-7.2c0.4,1.8-0.1,3.3-0.3,4.8c-0.2,2.8-0.7,5.6-1,8.4c-0.1,0.7-0.3,1-0.9,1.2
				c-0.5,0.1-1,0.3-1.4,0.5c-1.2,0.4-2.4,0.7-3.5,1.7c-1.5,1.3-3.4,2.4-5.6,2.4c-1.1,0-2.5,0.5-3,1.9c4.1-1.4,8.2-2.7,12.3-4.1
				c-0.8,5-1.6,10-2.4,15.1c-2.9-2.1-5.7-4.2-8.5-6.2c-1-0.7-2-1.5-3.3-1.7c-0.2,0.9,0.7,1,1.1,1.3c3.1,2.2,6.3,4.4,9.4,6.6
				c0.9,0.6,0.9,1.1,0.8,2.1c-0.5,4.6-2.7,8.7-3.6,13.4c-2.5-2.1-4.1-4.3-5.9-6.5c-3.2-4.1-5.7-8.5-8.4-12.9
				c-0.5-0.8-0.8-1.9-1.9-2.2c1.7,3,3.6,5.9,5.2,8.9c2,3.7,3.8,7.6,5.8,11.3c0.8,1.5,1.9,2.9,2.9,4.3c0.2,0.3,0.6,0.5,0.3,1.1
				c-1.7,3.1-3.5,6.1-5.8,8.7c-2.1,2.4-4.9,3-7.9,3.3c-1.1,0.1-2.2,0.2-3.3,0.5c-0.9,0.2-1.2,0.1-1.6-0.9
				c-4.8-11.9-8.3-24.1-11.6-36.4c-1.6-5.9-3-11.7-4.9-17.5c-0.1-0.3,0-0.7,0-1.2c8.3,4.1,16.2,8.8,24.2,13.2
				c-0.5-0.9-1.4-1.2-2.2-1.7c-0.8-0.6-1.7-1.1-2.6-1.6c-0.6-0.3-1.2-0.6-1.1-1.5c-0.9,0.6-1.3-0.2-1.7-0.8
				c-0.5-0.9-0.9-1.8-2.1-1.9c-0.1,0.5-0.2,1.3-0.9,0.5c-0.6-0.6-2-0.5-1.6-1.9c-0.7-1.4-2.2-1.7-3.4-2.5c-0.3,0.6,0.4,1,0,1.4
				c-0.1,0.1-0.6,0.1-0.8,0c-0.6-0.4-0.1-0.8,0.1-1.1c0.3-0.5-0.1-0.7-0.4-0.8c-1.5-0.7-2.7-1.8-4.4-2.1c0.2,0.5,0.2,1.4,1.2,1
				c0.1,0.5,1.2,0.2,0.8,1c-0.3,0.6-0.7,0.2-1.1,0c-1.8-0.9-3.6-1.8-5.4-2.8c-0.3-0.1-0.8-0.2-0.5-0.8c0.3-0.6,0.6-0.3,1-0.2
				c0.7,0.2,1.3,0.9,2.2,0.8c-1.2-1.4-2-3.1-2.4-4.9c-1-4.3-1.8-8.6-2.6-12.9c-0.9-4.9-2-9.8-1.9-14.9c0-1.1,0-2.2-0.1-3.4
				c-0.2-3.6-0.7-7.2-0.4-10.8c0.1-1,0.2-1.3-0.9-1.3c-1.4,0-2-0.6-2-2.2c0.2-5.5-0.4-11,0.3-16.5c0.1-0.5-0.3-1-0.7-1
				c-0.5,0-1.2-0.2-1.6,0.3c-0.2,0.3-0.2,0.7,0.1,0.9c1.1,0.7,0.8,1.9,1,2.9c-1.8,0.2-3.6,0.1-5.1,1.2c-1.4,1-2.8,1.2-4.6,0.8
				c-1.6-0.4-3.5-1.3-5.1,0.2c0,0,0,0,0,0c-1.6,0.9-3.4,1.5-5.2,2v0c-1.2-1.3-2.3-0.2-3.5,0c-0.7,0.1-0.9,0.4-0.7,1.3
				c0.7,2.4,0.2,2.9-2.4,2.9c-2.8-0.1-6.1-1.9-7.1-3.9c4.4,2.1,7.2,2.2,9,0.3c-2,0.5-3.8,1.3-5.7,0.5c-1.7-0.7-3.5-1.4-5.5-2.2
				c0.6,1.3,1.4,2,2.2,2.7c2.8,2.5,5.9,3.9,9.7,3.1c1.8-0.4,3.8-0.5,5.7,0c1.2,0.3,2.4,0.2,3.7-0.1c1.8-0.4,3.6-1.3,5.6-1
				c-1.4,0.1-2.7,0.7-4,1.3c-1.5,0.7-3,1-4.7,0.6c-2.9-0.6-5.8-0.3-8.4,1.5c-1.1,0.7-2.4,1.4-3.8,1c-1.5-0.4-3.1-0.3-4.6-0.2
				c-2.7,0.2-4.7,1.8-6.6,3.6c2.4-0.8,4.7-0.6,7.2-0.3c3.5,0.5,7.1,0.8,10.5-0.6c1.1-0.4,2.1-0.3,3.3-0.1c2.6,0.5,5.2,0.8,7.8-0.5
				c1.4-0.8,3-0.9,4.6-0.7c2.1,0.3,4.1-0.1,6-0.6c1.5-0.4,1.8-0.1,1.7,1.4c-0.1,0.9-0.3,1.2-1.2,1.2c-0.8,0-1.7,0.2-2.5,0.3
				c-0.7,0.1-1.3,0.3-0.8,1.3c0.7,1.5,0.8,3.1,1.1,4.7c0.2,0.8,0.2,1.6,1.1,2.1c3,1.4,3.5,2.7,2.2,5.7c-0.2,0.4-0.4,0.8-0.5,1.2
				c-0.2,0.8-0.6,1-1.4,1.2c-4.1,1-8.2,2-12.3,3c-3.4,0.8-6.7,1.8-10.1,2.4c-2.8,0.4-5.6,0.1-8.5,0.4c-3.4,0.4-6.9,0.1-10.3,0.6
				c-3.3,0.5-6.9-1-10,1.2c-0.1,0.1-0.3,0-0.5-0.1c-1.4-0.3-2.9-0.7-4.3-0.9c-2.4-0.4-4.7-1.1-7.2-1.3c0.1,0.6,0.5,0.5,0.7,0.6
				c8.9,2,17.7,4.3,26.3,7.2c7.3,2.4,14.6,4.9,21.7,7.7c2,0.8,4.1,1.2,5.8,2.5c-0.8,0-0.9,0.6-1.1,1.2c-3,7.2-6.1,14.4-9.1,21.6
				c-0.6,1.4-1,1.4-2.1,0.5c-4.8-3.9-9.7-7.6-14.8-11.2c-4.4-3.1-8.9-6.2-13.9-8.3c-1.9-0.8-3.7-1.7-5.2-3c-1.5-0.6-2.8-1.4-4.1-2.3
				c-1.9-1.2-3.1-2.8-3.4-5.2c-0.3-2.6-1-5.2-1.5-7.8c-0.2,3.2,0.8,6.3,1.1,9.4c-0.8,0.2-0.4-0.6-0.8-0.6c-0.5,0.2,0.3,1.2-0.7,1.2
				c-0.3,0-0.6-0.1-0.8-0.5c-0.5-1.7-0.4-3.4-0.5-5.2c-0.3-4-0.5-8-0.7-11.9c0-0.1,0.2-0.2,0.3-0.4c0.9,2.5,0.8,5.1,1.7,7.5
				c0.1-0.1,0.1-0.2,0.1-0.2c-0.2-5.2-2.7-10-2.3-15.3c0-0.7-0.6-0.7-1.1-0.7c-0.7,0-0.7,0.5-0.6,1c0.2,1.5-0.5,3.1,1.1,4.3
				c0.2,0.2,0.2,0.5,0.1,0.8c-0.3,0.9-0.1,1.9,0,2.9c0.3,4.1,0.8,8.2,0.9,12.3c0.1,1.9,0.6,3.9-0.1,5.9c-0.7-6.7-1-13.5-1.4-20.2
				c-0.1,5.2-0.9,10.4-0.1,15.6V45c-0.1,2.4,1.1,4.8,0.1,7.1c-0.1,0.2,0.9,0.7-0.1,0.7c-0.6,0-1.1-0.5-1.1-0.9c0-0.5,0-0.5-0.7-0.8
				c-0.5,0.6-0.9,0.3-1.4,0.1c-0.5-0.2-1-0.6-1.5-0.4c-0.2-0.6-1-0.7-1.3-1.2c1.4,0.2,2.5,1.3,3.9,1.4c-2.8-1.7-5.7-3.2-8.8-4.2
				c1.1,1.1,2.8,1.3,4.2,2.4c-0.9,0.1-1.3-0.5-1.9-0.7c-2.2-1.1-4.5-2.1-6.6-3.2c-0.5-0.3-1.4-0.3-1.5-1.2
				c-3.6-1.8-7.4-3.1-10.9-5.1c-0.4-0.3-1.3-0.2-1.1-1c0.1-0.6,0.9-0.6,1.4-0.8c3-0.8,6-1.6,9-2.3c2.2-0.5,4.4-1,6.7-1
				c3.3,0,6.6,0,9.8,0c0.6,0,1.4,0.2,1.9-0.7c-3.3,0-6.5,0.1-9.7,0c-3.8-0.1-7.5,0.4-11.3,0.3c-2.4,0-4.8-0.1-7.1,0
				c-3.6,0.2-7.2-0.1-10.8-0.2c-2.6-0.1-5.1-1.4-7.7-2.3c-2.1-0.7-4.1-2.1-6.5-2c-0.1,0.4,0.2,0.5,0.4,0.6c2.5,1,5,1.9,7.5,2.9
				C58.1,37.3,70.1,43.4,82.1,49c0.4,0.2,1,0.3,0.7,0.9c-0.5,1,0.3,1.2,0.8,1.5c1.9,0.9,3.7,1.9,5.6,2.7c0.7,0.3,1,0.7,0.9,1.5
				c-0.3,4.2-0.2,8.3-0.5,12.5c-0.3,6.1-0.4,12.2-0.6,18.3c-0.6-1.1-1.6-1.2-2.6-1.4c-1.8-0.4-11.2-2.6-12.8-3.1
				c-0.6-0.2-1.5-0.6-2.3-0.9c-1-0.3-13-3.7-23.2-7.7c-8.3-3.2-15.5-7.1-15.5-7.1c0-0.1-4.1-1.8-4-3.2c0.1-2.2-0.1-4.4-0.1-6.6
				c0-3.9-0.5-7.8,0.2-11.6c0.1-0.5,0-1-0.3-1.4c-0.2-0.2-0.4-0.2-0.6,0c-0.4,0.4-0.7,0.8-0.5,1.3c0.6,1.3-0.3,1.1-1,1.1
				c-1.3,0.1-2.6-0.3-3.9,0.3c-2.3,1.1-4.7,2-7.3,2.3c-2.9,0.3-3.4,1.3-2.8,4.3c0.4,1.9,0.6,3.8,0.5,5.7c-0.1,1.2,0.2,1.2,1.2,0.8
				c1.7-0.7,3.4-1.5,5.4-1.2c1,0.2,2.2,0.2,3.1-0.5c1-0.7,2.1-0.9,3.2-0.8c1.4,0.1,2.5,0.1,2.3-1.1v8.5c-2.2-0.8-4-2.2-6-3.3
				c-0.4-0.2-1-0.8-1.3-0.3c-0.5,1-1.6,1.7-1.2,3.1c0.5,1.8,0.9,3.6,1.3,5.4c-0.9,0-1.2-0.8-1.9-0.6c0,0,0,0,0,0c-2.2-2.1-5.2-3-8-5
				c0.6,2,1.2,3.4,1.6,4.9c0.4,1.8,2.2,2.8,2.7,4.7c1.1,4.1,2.5,8,3.7,12.1c0.6,2,1.3,3.8,3.4,4.6c0.1,0,0.1,0.2,0.1,0.2
				c-0.5,0.6-1.4,0.8-1.3,1.7c0.1,0.4,1,0.9,1.4,0.5c1.8-1.4,2.4,0.1,3.3,1.2c4.2,5.2,8.3,10.6,10.6,17c1.9,5.2,2.3,10.4-0.2,15.6
				c-2.5,5.2-4.2,10.6-3.3,16.5l0,0c0.2,0.7,0.4,1.3,0.7,2l0,0c0.8,1.4,1.6,2.7,2.4,4.1c0.6,0.4,1,1,1.4,1.7c0.7,0.7,1.4,1.4,2,2
				l0,0c0.6,0.5,1.4,0.7,1.9,1.7h-5.7c0,0.1,0,0.2,0,0.3c0.7,0.1,1.4,0.1,2.1,0.2c0,0,0,0.1,0,0.1c-0.8,0-1.5,0.1-2.3,0.1
				c0,0.1,0,0.2,0,0.2c0.9,0.1,1.8,0.1,2.7,0.2c-5.9-0.6-11.8-0.2-17.8,0.2c1.8,0.1,3.7,0,5.6,0.1c-0.4,0.4-1,0-1.2,0.5
				c4.1,0.8,8.2-1,12.3,0.2c-1,0.3-2.1-0.3-3.2,0.4c1.9,1,3.8,0.5,5.6,0.8c-1,0.1-1.9,0.5-3,0.4c-0.9-0.1-1.9-0.4-3.1,0.5h4.6
				c-7.3,0.8-14.6-0.5-21.9,1.1c0.3,0.2,0.6,0.3,0.9,0.2c1.6-0.3,3.2-0.6,4.9-0.1c1.8,0.4,3.7,1,5.8,0.2c-1.5-0.4-2.9,0.2-4.2-0.6
				c4.8-0.9,9.4,0.8,14.1-0.2c1.3-0.3,2.7-0.2,3.9-0.8c0.5-0.3,3.6,0.1,4.3,0.4c0.5,0.2,1.1-0.1,1.6-0.2c0.6-0.1,1.3-0.9,1.7,0.2
				c0.8-0.4,1.5-0.2,2.2,0.1l0,0H56c0-0.1,0-0.2,0-0.2c-2-0.2-3.9-0.4-5.9-0.5c3.6,0.1,7.2,0.5,10.7-1h-6.1c2.9-0.3,5.8-0.4,8.7,0.2
				c1.2,0.2,2.5,0.4,3.7,0.2c0.9-0.2,1,1.4,2,0.6c2.7-2.1,5.6-0.8,8.5-0.5c1.5,0.1,2.9,0,4.9,0c-0.9,0.4-1.3,0.5-1.7,0.7
				c1.4-0.1,2.9,0.6,4.4-0.2c0,0,0.1-0.1,0.1-0.1c0.6-0.6,1.4-0.3,2-0.2c1.5,0.3,2.9,0.2,4.8,0.1c-1.7-0.5-3.1,0.1-4.3-0.9
				c2,0,4,0.1,5.9,0c1.9-0.1,3.7,0.5,5.5,1l0,0c0.7,0,1.5,0.3,2.3-0.1c-1.1-0.2-2-0.4-3-0.6c3.1,0.4,6.3,0.1,9.7,0.4
				c-0.7,0.6-1.5,0.3-1.6,1.2c1.2-0.1,2.2-0.5,3.2-1.1c-0.4,0-0.9,0.2-1.3-0.6c14.6-0.2,29,0.5,43.3,0.6h-7.1c2.8,0.6,5.6,0,8.4,0.4
				c0.2,0,0.6-0.1,0.5-0.2c-0.5-0.8,0.3-0.7,0.4-0.5c0.3,1.1,1.2,0.4,1.7,0.7c0.1-0.1,0.2-0.1,0.2-0.2c-0.1-1.6-0.1-1.6-1.8-1.9
				c-0.6-0.1-0.8-1.1-1.8-0.9c-0.2,0-1.1-0.3-1.6-0.7c-0.1-0.1-0.3-0.2-0.4-0.4c-0.1-0.2-0.2-0.5-0.4-0.4c-0.4,0-0.1,0.3-0.1,0.5
				c0,0.4-0.3,0.2-0.4,0.1c-1.2-1.7-3.3-2-4.9-3.1c-1.3-0.9-2.8-1.3-4.1-2.3c-0.4-0.3-1.2-0.2-1.7-0.3c-1-0.3-1.7-1.3-2.6-1.8
				c-0.6-0.3-0.9,0.2-1.4-0.2c-3.9-2.3-8-4.4-12.1-6.5c-1.7-0.9-3.3-1.8-5-2.7c2.1-0.4,3.5,0.1,6.6,1.8
				c10.8,5.8,21.7,11.5,32.8,16.8c3.7,1.7,7.3,3.7,10.9,5.5c0.5,0.2,0.9,0.7,1.5,0.6c-1.7-1.7-3.9-2.5-5.9-3.4
				c-11.3-5.3-22-11.7-33-17.5c-1.6-0.8-3.3-1.5-4.8-2.7c0.6-0.2,1-0.2,1.5,0.1c0.9,0.7,1.9,1.1,3,1c0.6,0,1.3,0.1,1.4,0.9
				c0.1,0.5,0.6,0.7,1,0.9c9.4,4.7,18.9,9.3,28.3,14c5.8,2.9,11.7,5.8,17.5,8.7c0.5,0.2,1,0.6,1.6,0.5c-1.9-1.7-4.4-2.5-6.6-3.7
				c-6.3-3.3-12.7-6.3-18.8-9.9c-7.1-4.1-14.4-7.9-21.7-11.9c0.1-0.2,0.1-0.3,0.2-0.5c1.4,0.4,2.8,0.7,4.1,1.4
				c5.9,2.9,11.7,5.9,17.5,8.8c8.9,4.5,17.7,8.9,26.6,13.4c2.1,1.1,4.1,2.3,6.3,3.3c0.7,0.4,1,1,1.4,1.6c0.8,1,1.5,1.3,2.3,0
				c-2.2-1.5-4.7-2.7-7.1-3.9c-6.2-3.2-12.4-6.4-18.6-9.6c-7.4-3.7-14.6-7.5-21.8-11.6c-1.6-0.9-3.1-1.8-5-2.8
				c1.4-0.1,2.3,0.6,3.2,1c13.8,6.6,27.3,13.8,41,20.6c0.8,0.4,1.5,0.7,2.3,1c-0.3-0.6-0.9-0.8-1.4-1.1c-8.2-4.2-16.4-8.3-24.5-12.6
				c-5.4-2.9-10.7-5.9-16.2-8.8c0.8,0,1.5-0.1,2.4,0.3c10.1,5,20,10.3,30.3,15c0.1-0.1,0.1-0.2,0.2-0.2c-2.3-1.1-4.5-2.3-6.8-3.4
				c-4.5-2.4-9-4.9-13.6-7.2c-2.3-1.2-4.3-3-7-3.9c1.3-0.6,2.3-0.1,3.3,0.4c8.6,4.3,17.2,8.6,25.8,12.9c0.3,0.2,0.7,0.4,1.1,0.3
				c-1.9-1.6-4.4-2.3-6.6-3.5c-6.3-3.5-12.6-6.9-18.8-10.6c2.1-0.2,3.6,1.5,5.6,1.9c0.1-0.3,0.3-0.6,0.4-0.9
				c-0.6-0.6-1.6-0.6-2.1-1.5c1.1-0.2,1.9,0,2.8,0.5c2.3,1.3,4.8,2.3,7.3,3.1c0.3,0,0.6-0.1,0.9-0.1c-2.1-1.2-4.3-2.4-6.8-3.8
				c4.1,0,7,2.3,10.1,3.8c5.4,2.5,10.8,5.2,16.2,7.8c0.4,0.2,0.9,0.3,1.4,0.5c0.4,0.8,1.3,0.8,1.9,1.1c7.4,3.6,14.8,7.2,22.2,10.8
				c0.8,0.2,2,0,2,1.4c0,0.3,0.6,0.8,0,1c-0.3,0.1-0.9,0-1.2-0.2c-0.4-0.1-1-0.3-0.7-0.9c0.2-0.4,0.2-0.7-0.1-1
				c-0.3,0.8-1,0.8-1.7,1c0.2,0.5,0.3,0.9,0.5,1.4c0.3-0.1,0.5-0.8,0.6-0.6c0.4,1.4,1.7,0.3,2.4,0.9c0.3,0.3,0.9,0.8,1.3,0.4
				c0.4-0.4-0.1-0.9-0.3-1.4c-0.1-0.2-0.1-0.5-0.1-0.8c0.4,0.7,1.3,0.4,1.8,0.7c-0.2,0.6-1,0.1-0.9,0.7c0.1,0.4,0.3,0.8,0.9,0.7
				c0.9-0.1,1.9,0.3,2.8-0.2c0.2-0.1,0.8,0.1,0.6-0.5c-0.4-1.3,0.6-0.9,1.1-0.9c0.6-0.1,1.2,0.2,1.7-0.4c-0.9,0-1.7-0.1-2.6,0
				c-0.7,0-0.9-0.3-1-0.8c-0.2-0.5-0.1-0.9,0.5-0.9c-7.9-4.1-16.2-7.3-24.1-11.2c-8.2-4-16.3-8.2-24.4-12.4
				c-0.3-0.2-0.6-0.4-1.1-0.7c1.5-0.3,2.6-0.1,3.7,0.5c7,3.2,14,6.5,21,9.7c0.6,0.3,1.1,0.7,1.8,0.5c-1.8-1.6-4.1-2.1-6.2-3.3
				c-2.7-1.5-5.7-2.6-8.4-4.2c-2.1-1.2-4.3-2.5-6.4-3.7c1.3-0.5,2.5-0.3,3.7,0.4c1.9,1.1,3.9,2.1,6.1,2.7c-0.2-0.4-0.4-0.8-0.6-1.1
				c-1.7-0.2-2.5-1.9-4.3-2.3c1.2-0.6,1.9-0.2,2.7,0.2c8.1,3.7,16.2,7.3,24.3,11c0.5,0.2,0.9,0.3,1.4,0.5c0.1-0.1,0.1-0.2,0.2-0.3
				c-7.7-3.8-15.4-7.7-23.2-11.5c1.2-0.8,2.3-0.2,3.2,0.2c13.9,6.9,28.1,13.1,42.2,19.4c1,0.4,1.9,0.9,2.4,1.9
				c1.1,0.1,1.5,0.8,1.3,1.8c0.3,0.2,1.1,0,1,0.7c-0.2,1-1.2,0.1-1.7,0.7c1,0.3,2.1,0,3.2,0.3c-0.9,0-1.9,0.1-2.8,0.1
				c1.1,0.3,2.2,0.4,3.2,0.3c0.5,0,1.1-0.1,1.1-0.7c0-0.6-0.5-1.3-0.1-1.7c0.6-0.5,0.7,0.9,1.4,0.7c0.3-0.1,0.5,0,0.7,0.2
				c-0.3,0.5-1-0.1-1.4,0.5h3.2c-0.4,0.6-1.4,0-1.5,0.9h3c-1-1-1-2.1-1.1-3.4c1.7,1.4,3.6,1.6,5.3,2.3c0.5-0.7-0.7-1.4,0.2-2
				c0.5,0.9,1.8,0,2.2,0.9c0.5,0.9,1.3,0.1,1.9,0.4c0.3,0.1,0.1-0.6,0.1-1c0-0.2-0.3-0.6,0.2-0.6c0.3,0,0.7,0.1,1,0.1
				c-0.4,0.3-0.9,0.8,0.1,0.5c0.8-0.2,1.5,0.2,2.2,0.3c0.4-0.7-0.3-1.3-0.1-2c1.1-0.1,1.8,0.8,2.9,0.8c0.3-0.6,0.5-1.2,0.1-1.9
				c-0.1,0.1-0.3,0.3-0.4,0.4c-0.2,0.2,0.3,1-0.4,0.7c-5.6-2.4-11.2-4.8-16.8-7.2c-4.3-1.8-8.6-3.7-12.9-5.6
				c-0.6-0.3-1.2-0.7-1.9-0.5c1.5,1.4,3.5,1.9,5.3,2.7c6.8,3,13.6,5.9,20.5,8.8c0.9,0.4,1.7,0.9,2.6,1.4c0.4,0.2,0.4,0.6,0.5,0.9
				c0,0.3-0.1,0.3-0.4,0.4c-0.5,0.1-0.5-0.3-0.7-0.6c-0.1-0.2-0.2-0.5-0.3-0.8c-0.6-0.4,0.3,0.8-0.7,0.5c-5.4-1.7-10.4-4.3-15.6-6.5
				c-6.8-2.9-13.5-5.9-20.3-8.8c-0.6-0.3-1.2-0.7-1.9-0.5c3,1.8,6.4,3,9.6,4.4c8.1,3.6,16.2,7.1,24.3,10.6c0.6,0.3,1.3,0.5,1.9,0.7
				c0.3,0.1,0.5,0.3,0.4,0.6c-0.1,0.2-0.2,0.4-0.6,0.5c-0.9,0.1-1.6-0.2-2.4-0.5c-11-4.8-22-9.6-32.9-14.4
				c-5.6-2.4-11.1-4.9-16.7-7.3c-0.4-0.2-0.9-0.5-1.4-0.3c-0.8-1-2.2-0.9-3.3-1.8c1.6-0.2,2.8-0.5,4.4,0.3c4.6,2.4,9.4,4.3,14.1,6.4
				c0.2,0.1,0.4,0,0.7,0.1c-0.4-0.7-1.2-0.8-1.8-1.1c-3.9-1.8-7.9-3.5-11.8-5.2c-0.3-0.1-0.6-0.3-0.9-0.5c0.5-0.6,1-0.9,1.7-0.8
				c1.2-0.7,2.3-0.5,3.5,0.1c0.6,0.4,1.2,0.8,2,0.7c-0.6-0.9-1.8-0.8-2.6-1.5c1.1-0.6,2-0.6,3,0c0.7,0.4,1.5,0.8,2.4,0.7
				c-0.7-0.8-1.8-0.8-2.6-1.4c1.1-1,2.3-0.4,3.5-0.3c0,0,0,0,0,0c2.3,1.5,5,2.4,7.6,3.4c16.7,6.9,33.4,13.7,50.1,20.5
				c0.8,0.3,1.6,0.6,1.2,1.9c-5.6-2.3-11.2-4.6-16.8-6.9c-13.8-5.6-27.5-11.1-41.3-16.7c-0.4-0.2-0.7-0.2-1.1-0.1
				c4.1,2.2,8.6,3.7,12.9,5.4c12.9,5.3,25.8,10.5,38.7,15.8c0.8,0.3,2.3,0.3,2.2,1.9c0,0.4-0.2,0.6-0.6,0.6
				c-0.1,0.1-0.1,0.1-0.2,0.2c-0.1,0.1-0.4,0.3-0.4,0.3c0.6,0.8,1.5,0.1,2.2,0.4c0.4,0.2,0.4-0.4,0.3-0.7c-0.2-1.4,1.2-0.8,1.2-0.7
				c0.1,1.3,1.1,0.4,1.6,0.6c0.2,0.1,0.6,0,0.6,0.5c-0.7,0.6-1.7-0.2-2.5,0.5c1.4,0,2.8,0.2,3.8-0.4c1.4-0.8,2.6-0.9,4-0.1
				c0.4,0.3,1.3,0.6,1-0.7c-0.2-1,0.4-1.1,1-0.6c0.6,0.6,1.3,0.8,2.1,0.8C279.5,158.6,278.6,158,277.8,158.6z M238.8,121.2
				c-2.5,1.6-5.2,2.9-7.3,5c-0.5,0.5-0.8,0-1.2-0.1c-0.7-0.2-1.3-0.6-2.1-1c4.3-2.5,9-4.1,13.6-5.7
				C240.8,120,239.8,120.6,238.8,121.2z M236.3,119.9c0.6-0.2,1.2-0.5,1.8-0.6c0.8-0.1,0.5-0.5,0.4-0.9c0.7,0,1.3,0.1,2.2,0.6
				c-2.8,0.6-5,2.3-7.8,2C234.1,120.6,235.2,120.2,236.3,119.9z M228.8,121.2c1-0.9,1.9-0.6,2.9,0c0.3,0.2,0.4,0.4,0.3,0.7
				c-0.1,0.6-0.8,0.8-1,0.6c-0.8-0.5-1.6,1.9-2.3,0c-0.8,0.2-1.5-0.4-2.4-0.4C227.3,121.8,228.1,121.7,228.8,121.2z M220.6,71
				c0.1,0.8,0.1,1.6,0.8,2.3c-0.4,0.1-0.2,0.8-0.7,0.8c-0.3-0.1-0.6-0.3-0.6-0.7c0-4.4-1.1-8.7-0.9-13.1
				C219.6,63.8,220.1,67.4,220.6,71z M219.2,67.3c0.1,1.9,0.3,3.8,0.4,5.8c0,0.6,0.9,1.2,0.1,1.9c-0.6-0.1-0.6-0.6-0.6-1
				C219,71.7,219,69.5,219.2,67.3z M137.1,12.2c-0.6-1.1-0.5-2.2-0.3-3.8C137.5,9.9,137.1,11,137.1,12.2z M140.3,11.8
				c-0.6-0.7-0.1-1.4-0.4-2c-0.4,0.4-0.2,0.9-0.2,1.3c0,0.5-0.1,0.9-0.7,0.8c-0.5,0-0.7-0.3-0.7-0.7c0-0.9-0.2-1.8,0.4-2.7
				c0.6,1-0.2,1.9,0.3,2.9c0.8-1-0.4-2.7,1.3-3.2V11.8z M127.9,18.7c-0.1-0.4-0.1-0.8-0.2-1.3c-0.6,0.4-0.1,1-0.4,1.3
				c-1.7-0.9-3.4,0.2-4.9-0.3c1.1-1.3,4.2-2.3,5.5-1.7C128.7,17.2,127.8,18,127.9,18.7z M147.2,11.7c-0.8,0.9-2,0.7-3,0.8
				c-0.8,0.1-0.6-0.4-0.6-0.8c0-0.8,0-1.6-0.1-2.3c-0.6,0.9,0,2-0.6,3c-0.7-1.1-0.1-2.3-0.5-3.3c-0.5,1.1,0.1,2.2-0.4,3.2
				c-0.7-2.1-0.2-3.4,1.5-4.3c0.8-0.4,1.7-0.8,2.2-1.7c1.4,0,1.4,0.8,1.4,1.9C146.8,9.3,146.4,10.6,147.2,11.7
				C147.2,11.7,147.2,11.7,147.2,11.7z M147.2,11.7V6.3l0.3,0V11c0.1,0,0.3,0,0.4,0c0-1.3,0-2.7,0-4c0-0.3-0.3-0.7,0.3-0.7
				c0.4,0,0.7,0.2,0.6,0.7c0,1-0.1,1.9,0.1,2.9C149.1,11.3,148.5,11.9,147.2,11.7z M149.2,17c-1.7,1.1-3.9,1.8-6.1,1.5
				c-0.1,0-0.2-0.1-0.3-0.1c-3.4-0.4-3.4-0.4-4.1-3.5c0,0.7,0,1.5,0,2.2c0,0.4,0,0.8-0.6,0.8c-0.5,0-0.4-0.4-0.4-0.7
				c0-0.7,0-1.3-0.4-2c0,0.7,0,1.4,0,2.2c0,0.6-0.3,0.9-0.8,0.9c-0.8,0.1-0.5-0.6-0.5-1c-0.1-0.5,0-1,0-1.5c-0.6,0.2-0.4,0.7-0.4,1
				c-0.1,1.7-0.7,2.3-2.5,2.3c-1.1,0-2.2-0.1-3.2,0c-1,0.1-1.4-0.3-1.4-1.4c-0.1-1.4,0.8-1,1.4-0.9c2,0.2,3.8-0.3,5.4-1.5
				c0.3-0.2,0.6-0.3,0.9-0.5c2.5-1.4,3.1-1.1,3.2,1.7c0,0.2,0.1,0.3,0.2,0.7c0.4-0.8,0.2-1.5,0.3-2.2c0.1-0.4-0.3-1,0.5-0.9
				c0.7,0,0.8,0.4,0.8,1c0,0.3,0,0.5,0.1,0.9c-0.1-1.7,0.8-1.8,2.1-1.6c2.3,0.4,4.2-0.8,6.3-1.4c0,0,0,0.1,0,0.1
				C149.4,14.5,150.2,16.4,149.2,17z M157.7,16.8c-2.4,0.5-4.8-0.1-7.2,0.2c-0.7,0.1-0.6-0.5-0.6-0.9c0-1,0.1-2-0.4-2.9c0,0,0,0,0,0
				c1.6-0.8,3.3-0.8,5.4-1.1c-1.6-0.9-3-0.7-4.3-0.7c-1.1,0.1-1.5-0.2-1.4-1.4c0.1-0.9,0-1.8,0.1-2.7c0-0.2-0.2-0.7,0.4-0.7
				c0.4,0,0.6,0.2,0.6,0.7c0,1.2,0,2.3,0.1,3.5c0.5-1.2-0.3-2.8,0.3-3.5c0.7-0.8,2.3-0.1,3.4-0.6c1.2-0.6,2.2-1.6,3.6-1.7
				c1.1-0.1,1.6,0.1,1.6,1.4c-0.1,3.1-0.2,6.2,0.5,9.2c0.5-3.5-0.4-7,0.1-10.5c0.5,1.8,0.3,3.6,0.4,5.5c0,1.1,0,2.2,0,3.2
				C160.4,16.2,160.2,16.3,157.7,16.8z M90.8,29c0.2,0,0.3-0.1,0.5-0.1c0.2,0.9,0.3,1.9,0.5,3.1C90.3,31,91,29.9,90.8,29z
				 M59.1,36.9c-1.9-0.7-3.6-1.7-5.4-2.8H73c-3.6,0.9-6.9,1.8-10.3,2.6c-0.4,0.1-0.9,0-1.1,0.2C60.7,37.6,60,37.3,59.1,36.9z
				 M21.7,47.4c1.8-1.1,3.8-1,5.7-0.9c0.5,0,0.4,0.6,0.4,1c-0.2,0.7-0.8,0.7-1.4,0.6c-1.5-0.4-2.9-0.2-4.2,0.3
				c-0.3,0.1-0.6,0.5-0.8-0.1C21.3,48,21.4,47.6,21.7,47.4z M21.5,49.3c1.3-0.5,2.5-1.3,3.9-0.8c0.7,0,1.2-0.1,1.7-0.1
				c0.5,0,0.7,0.2,0.7,0.7c0,0.6-0.3,0.5-0.8,0.5c-1.8-0.4-3.4,0.2-5.1,0.8c-0.4,0.1-0.9,0.4-1.2-0.1C20.5,49.6,21.1,49.5,21.5,49.3
				z M13,50.2c0.2-0.5,0.7-0.6,1.1-0.7c0.6-0.1,1.6-0.9,1.9,0c0.4,1.1-0.9,0.7-1.5,1c-0.3,0.2-0.7,0.3-1.2,0.5
				C12.7,51,12.9,50.5,13,50.2z M13,52.2c0.4-1.1,1.6-0.9,2.4-1.3c0.4-0.2,0.6,0.2,0.5,0.6c-0.3,1.2-1.7,0.6-2.2,1.3
				C13.1,52.8,12.8,52.6,13,52.2z M24.1,55.6c-0.5,0.4-0.1-0.3-0.3-0.3c0,0-0.1-0.1-0.1-0.1c-0.3,0.5-0.7,1-1.1,1.5
				c-0.1-0.4-0.2-0.7-0.3-1c-0.4,0.6,0,1.3-0.6,1.7c-0.5-0.2-0.1-0.8-0.4-1.1c-0.4,0.3,0,0.9-0.6,1.1c-0.4-0.8-0.2-1.6,0.4-2.1
				c0.7-0.6,1.7-0.8,2.7-0.7C24.2,54.7,24.3,55.4,24.1,55.6z M25.4,54c-0.1,0.5,0,1.1,0,1.8c-0.7-0.7,0.1-1.5-0.4-2.2
				c-1.7,0.9-3.9,0.2-5.3,1c-1.8,1.1-4.2,0.1-6,1.9c1.6-0.3,2.8-0.8,4.2-0.5c0.6,0.1,0.7,0.2,0.7,0.8c0,0.6-0.2,0.7-0.8,0.6
				c-0.4-0.1-0.9,0.2-1.3,0.3c-1,0.2-2.6,1-2.7,0.7c-0.5-1.4-0.4-3-0.5-4.5c0-0.4,0.5-0.6,0.8-0.8c0.8-0.4,1.7-0.8,2.6-0.6
				c0.4,0.1,1.2-0.6,1.3,0.4c0.1,1-0.9,0.1-1.2,0.7c-0.2,0.5-0.7-0.7-0.8-0.3c-0.1,0.6-0.7,0.5-1,1.1c1.6,0,2.9,0.1,4.4-0.7
				c1.3-0.7,2.9-1.4,4.6-1.4C25.1,52.6,25.8,52.7,25.4,54z M26.7,52c-0.6,0-1.2,0-1.9,0c-1.1,0.1-2.1,0-3.2,0.4
				c-0.3,0.1-0.8,0.2-0.9-0.4c-0.1-0.4,0-0.7,0.5-0.9c1.8-0.7,3.6-1.3,5.6-1c0.8,0.1,1,0.4,1,1.2C27.9,52.3,27.2,52,26.7,52z
				 M13.6,66.4c2.1,0.8,0.7,2.7,1.4,4C12.9,69.6,14.2,67.7,13.6,66.4z M219.4,127.6c-1.6,1.1-3.6,1.3-5.3,2.2
				c-0.3,0.2-0.9-0.1-1.3-0.4C215,129,217,127.6,219.4,127.6z M217.6,120.2c-1.7,0.6-3.4,1.1-5.1,1.6c-0.4,0-0.7,0-0.8-0.4
				c-0.2-0.5,0.3-0.4,0.6-0.5c1.7-0.5,3.4-1,5.1-1.5c0.4-0.1,0.9-0.2,1,0.3C218.5,120.2,217.9,120.1,217.6,120.2z M224.7,117.7
				c-1.5,0.5-2.9,1.1-4.5,1.7c-0.2,0-0.3-0.3-0.4-0.5c-0.1-0.3,0.1-0.3,0.3-0.4c1.4-0.5,2.8-1,4.3-1.4c0.2-0.1,0.4-0.2,0.5,0.1
				C225,117.4,225,117.6,224.7,117.7z M223.1,114.7c-1-0.2-1.5,0.2-1.4,1.1c0.2,1.4-0.5,1.9-1.7,2.2c-1,0.3-2,0.6-3,1
				c-0.3,0.1-0.5,0.3-0.6-0.2c-0.1-0.3,0.1-0.5,0.4-0.5c0.7,0,1.3-0.1,2.2-1c-2.2,0.2-3.2-0.6-2.5-2.7c-0.8,0.3-0.3,0.9-0.7,1.2
				c-0.1-0.4-0.1-0.7-0.2-1.1c-1,0.2-1.6,0.1-1.7-0.3c-0.3,1.7,0,3.1,0.1,4.6c0,0.7-0.1,0.9-0.7,0.9c0-1.5,0-3.1,0-4.7
				c0-0.5,0-1,0.7-1.1c3.8-0.5,7.5-1.3,11-2.9c0.4,0.5,0.1,1,0.2,1.5C225.3,114.3,224.7,115.1,223.1,114.7z M225.3,105.5
				c-0.1,1.3-0.3,2.7-0.2,4c0,0.2,0,0.5-0.1,0.7c-0.3,0.7-3.4,1.7-4.3,1.5c0.4-0.9,1.9,0.2,1.8-0.9c-0.1-1-1.3-0.4-2-0.6
				c-1.9-0.6-2-0.6-2,1.4c0,1-0.5,1.3-1.3,1.4c-1.1,0.1-0.7-0.8-0.7-1.4c-0.1-1.4,0-2.8-0.3-4.2v5.5c-0.1,0-0.2,0-0.4,0v-5
				c-0.1,0-0.3,0-0.4,0c0,1.4,0,2.8,0,4.2c0,0.4,0.4,1.2-0.5,1.1c-0.7,0-0.3-0.7-0.4-1.1c-0.1-0.5-0.1-1-0.3-1.5
				c0,0.7-0.2,1.5-0.1,2.2c0.1,0.7-0.5,0.3-0.7,0.4c-0.5,0.4-0.3-0.2-0.3-0.3c-0.1-0.6-0.4-1,0-1.7c0.5-0.8,0.5-1.8,0.8-2.7
				c0.4-1.5,1-2.4,2.9-2.4c2,0.1,4-0.6,6-1c0.7-0.2,1.5-0.4,1.8-1.2C225.7,104.1,225.3,104.9,225.3,105.5z M219.6,104.6
				c0.9-0.2,1.9-0.3,2.8-0.6c1.2-0.3,2-1,2.2-2.3c0.2-1.4-1.1-1.3-1.8-1.8c2.5-0.1,3.2,1.3,1.9,3.9c-2.9,1.3-6,1.5-9.4,2
				C216.6,104.4,218.2,104.9,219.6,104.6z M217.7,54c0.5,3.6,0.1,7.3,0.2,10.9c0.1,3.4,0.3,6.9-0.3,10.3
				C217.1,68.1,217.7,61.1,217.7,54z M216.9,101.6c0.1-7.7,0.1-15.4,0.2-23.1c0-0.7-0.2-1.3-0.1-2c0-0.4,0.2-0.8,0.8-0.8
				c0.7,0,0.4,0.6,0.4,0.9c0,1,0,2,0,3.1c-0.1,0-0.1,0-0.2,0.1l-0.1-1.4c-0.1,8.3-0.7,16.6-0.6,25.2
				C216.7,102.7,216.9,102.1,216.9,101.6z M216.7,68.4c-0.1,2.5,0.5,5-0.5,7.4C215.7,73.3,216.7,70.9,216.7,68.4z M216.2,77.4
				c0.7,0.1,0.4,0.8,0.4,1.3c0,4,0.1,8-0.1,12c-0.1,2.2,0,4.5-0.2,6.7c-0.1,0.5,0.2,1.2-0.5,1.2c-0.9,0.1-1.9,0.3-2.6-0.1
				c-0.4-0.2-0.2-0.9,0-1.4c0.1-0.3,0.2-0.7,0.3-1.2c0.6,0.4,1,0.8,1.5,1.2c0.1-0.2,0.2-0.3,0.2-0.3c-2.8-2.1-1.3-4.9-1.1-7.4
				c0.3-3.6,0.8-7.2,1.2-10.7C215.2,78,215.4,77.3,216.2,77.4z M211.7,93c0.6-4.5,1.3-8.9,2-13.3c0.1-0.5,0.4-1.1-0.4-1.4
				c0.7-0.1,1.5-0.8,1.2,0.9c-0.8,5.1-1.3,10.1-2,15.3C211.9,94.3,211.6,94,211.7,93z M210.9,98.2c0.3-0.8,0.5-1.6,0.5-2.4
				c0-0.4-0.2-1,0.5-0.9c0.4,0.1,0.9,0.4,0.6,1c-0.1,0.2-0.1,0.4-0.1,0.7c0.1,0.8-0.1,1.4-0.4,2.1c-0.1,0.4-0.5,0.4-0.8,0.4
				C210.7,98.9,210.8,98.5,210.9,98.2z M211.3,101v8.4c0,0-0.1,0-0.1,0V101C211.3,101,211.3,101,211.3,101z M207.6,120.8
				c0.5,0,1.3,0.2,1.1-0.8c0.2,0.1,0.4,0.2,0.6,0.3c0.3-0.9-0.3-2.2,1-2.8c0,0.7,0.1,1.4,0.1,2.1c0.1,0,0.2,0,0.3,0v-3.8
				c-0.1-0.1-0.1-0.1-0.2-0.2c-0.9-0.3-0.8-1-0.4-1.6c0.2-0.3,0.3-1.1,0.8-0.7c0.7,0.4,1.6,0.8,1.7,1.8c0.1,1.1,0.1,2.1,0.1,3.2
				c0,0.5-0.1,1.1,0.3,1.6c-1.8,0.5-3.5,1-5.3,1.5c-0.7,0.2-1.3,0-1.9-0.7C206.6,120.7,207.2,120.8,207.6,120.8z M200.1,102
				c1.2,1.4,2.4,2.8,3.6,4.2c0.5,0.6,1,1.3,1.6,1.7c1.7,1.1,1.3,2.2,0.3,3.6C203.3,108.6,201.4,105.5,200.1,102z M187.6,126.1
				c7.7-0.9,15.1-2.8,22.5-4.7c0.7-0.2,1.2,0,1.1,0.5c0.1,0.3-0.2,0.3-0.3,0.3c-1.8-0.2-3,1.2-4.7,1.5c-1.7,0.2-3.5,0.9-5.2,1.3
				c-1.8,0.4-3.6,0.6-5.5,1c-2.5,0.5-5.2,0.6-7.7,1.3c-0.5,0.1-1.1,0-1.2-0.6C186.5,126,187.2,126.1,187.6,126.1z M189,128.1
				c0.3,1.6,1.4,2.9,2,4.3c0.1,0.3,0.6,0.7,0,0.9c-0.4,0.2-0.7,0-0.9-0.4c-0.8-1.5-1.6-3-2.5-4.6c-0.1-0.2-0.2-0.4,0.1-0.5
				C188.2,127.6,188.6,127.6,189,128.1z M185.6,127.6c-2.6,0.3-5.2,0.7-8.1,1c-0.5-0.1-1.1-0.4-1.8,0.2c-0.4,0.3-0.7-0.2-0.8-0.6
				c-0.1-0.5,0.4-0.5,0.7-0.5c3.3-0.2,6.5-0.6,9.7-1.3c0.5-0.1,0.7,0.1,0.9,0.5C186.3,127.4,186,127.5,185.6,127.6z M167.6,127.9
				c-1.1-20.4-1.6-40.3-1.8-60.3c0.6,0.7,0.2,1.6,0.6,2.3c0.5-0.6,0-1.4,0.6-2.2c0.2,1.7,0.5,3.2,0.6,4.7c0.3,4.6,1.3,9,2,13.5
				c0.9,6,1.9,11.9,2.5,17.9c0.6,5.3,1.6,10.5,2.4,15.8c0.4,2.3,0.7,4.6,1.1,6.8c0.1,0.5,0.1,0.7-0.5,0.8
				C172.6,127.5,170.1,127.7,167.6,127.9z M174.3,128.4c0.1,0.9-0.7,0.5-1.1,0.5c-3,0.4-6,0.6-9,0.2c-0.5-0.1-0.8,0.8-1.3,0.2
				c0.1-0.6,0.4-0.7,0.9-0.7c3.2-0.2,6.3-0.4,9.5-0.6C173.6,128,174.2,127.8,174.3,128.4z M166.5,114.9v6.6
				C166,119.2,166.4,117,166.5,114.9z M166.1,103.6v7.9c0,0-0.1,0-0.1,0v-7.9C166,103.6,166.1,103.6,166.1,103.6z M168.2,68.3
				c1.7,9.8,3.9,19.5,6,29.1c2.1,9.7,4.3,19.4,7.4,28.8c-2.5-9.4-4.6-18.9-6.7-28.4c-2.1-9.5-4-19-6-28.5c0.1,0,0.3-0.1,0.4-0.1
				c0.5,1.7,0.9,3.4,1.4,5.1c3.4,12.4,6.6,24.9,10.6,37.1c1.4,4.4,2.9,8.7,4.7,13c0.4,1,0.5,1.4-0.9,1.5c-2.6,0.3-5.2,0.8-7.9,1
				c-0.7,0.1-0.9-0.1-1-0.8c-1.1-6.9-2.3-13.8-3.3-20.7c-1.1-8.1-2.3-16.2-3.5-24.2c-0.5-3.4-1.1-6.8-1.6-10.2c-0.1-0.9,0-1.8,0-2.7
				C167.9,68.3,168,68.3,168.2,68.3z M166.6,56.1c1.2,0.2,0.7,1.3,0.9,1.9c0.6,2.2,0.9,4.4,1.2,6.6c-0.5-0.8-0.6-1.7-0.7-2.8
				c-0.7,0.7,0,1.5-0.4,2.5c-0.2-2.4-0.9-4.3-0.9-6.3c-0.8,1.4,0.1,2.7,0.1,4.1c0,0.5,0.3,1-0.2,2c-0.3-2-0.1-3.7-0.7-5.2
				c-0.7,1.4,0.5,2.9-0.1,4.7c-1.3-5.2,0-10.2-0.9-15C165.9,50.1,166.6,51.9,166.6,56.1z M165.1,78.7c-0.4-4.3,0.2-8.7-0.4-13.1
				C165.5,69.9,164.9,74.3,165.1,78.7z M165,118.4v7.5c0,0-0.1,0-0.1,0v-7.5L165,118.4z M164.8,115.5c0,0.4,0,0.9-0.4,1.3V109
				l-0.3,0c0,3.4-0.2,6.9,0.1,10.3c0.1,2.4,0.1,4.7,0.3,7.1c0,0.4-0.4,1.2,0.6,1.2c1,0,0.7-0.7,0.7-1.2c0-0.4,0-0.9,0.2-1.3
				c0.1,0.8,0.1,1.6,0.2,2.3c0.1,0,0.2,0,0.3,0v-5.7c0.6,1.2,0.2,2.5,0.3,3.8c0.1,0.7-0.2,1.4,0.7,2.4c-1.7,0.1-3.4,0.1-5.2,0.1
				c-1,0-0.9-0.7-0.9-1.3c0-2.2,0-4.3,0-6.5c0-6.2,0.1-12.4,0.2-18.7c0.2-11.5,0.2-23,0.1-34.4c0-1.3,0.3-1.9,1.4-1.9
				c-0.4,14.3,0.6,28.6,0.7,42.9l0.4,0c-0.2-9.4-0.4-18.9-0.6-28.3c0.5,0.4,0.3,0.9,0.4,1.4C164.2,92.6,164.9,104,164.8,115.5z
				 M146.9,127.8c0.9-5.8,2.2-11.4,3.3-17.1c1.6-8.2,3.2-16.3,4.7-24.5c0.1-0.7,0.2-1.2,1.1-1.1c0.9,0.1,0.6,0.9,0.5,1.3
				c-0.3,4-0.7,8-1.1,12c-0.3,3.1-0.6,6.3-0.9,9.4c-0.5,5-1,10.1-1.5,15.1c-0.1,1.5-0.3,2.9-0.5,4.4c0,0.4,0.1,0.8-0.6,0.7
				C150.4,128,148.7,127.9,146.9,127.8z M149.4,129c-4.2,0.3-8.4-0.1-12.5-1C141.1,128.3,145.3,128.1,149.4,129z M157.4,84.7
				c-0.6-6.4,0.9-12.6,1.4-18.9c0-0.5-0.1-1.4,0.7-1.3c0.8,0.1,1.7,0.4,1.7,1.5c0,1.6,0,3.3,0,4.9c0,7.3,0,14.6,0,25.3
				c0.2,5.3-0.5,13.9-0.3,22.6c0.1,2.6,0.1,5.2,0.3,7.8c0.1,1.2-0.3,1.5-1.5,1.5c-1.6,0-3.3,0.1-4.9,0.2c-1,0.1-1.4-0.1-1.3-1.3
				c0.6-5.4,1.1-10.8,1.7-16.2c0.4-4.3,0.9-8.5,1.3-12.8c0.3-3.3,0.5-6.6,0.8-10C157.2,87,157.5,85.8,157.4,84.7z M160.5,61.2
				c-0.5-0.2-1.1-0.2-1.1-1c0.1-1.4,0.2-2.8,0.4-4.2c0.4-3.1,0.7-6.2,1.1-9.3c0,0,0.1,0,0.1,0c0,4.6,0,9.3,0,13.9
				C161.1,60.9,161.2,61.4,160.5,61.2z M158.7,61.8c-0.2,0-0.3,0.1-0.3,0.1c-3.2-1.2-3.2-1.2-2.3-4.5c1.7-6.2,3.3-12.5,5-18.7
				C160.9,46.4,159.1,54,158.7,61.8z M158.4,62.6c0.1,0,0,0.2,0.1,0.3c-0.1,0.4-0.3,0.5-0.7,0.3c-0.8-0.3-1.4-1.2-2.4-1.1
				c-0.1,0-0.2-0.2-0.2-0.4c0-0.1,0.2-0.3,0.2-0.3C156.4,61.7,157.4,62.1,158.4,62.6z M151,128.7c3.3,0,6.5,0,9.8,0
				c0.7,0,1.4,0,1.9,0.6c-0.6,0.6-1.3,0.3-1.9,0.3c-3.6,0-7.2,0-10.8-0.4C150.2,128.5,150.7,128.7,151,128.7z M163,64.3
				c0,0.6-0.8,0.5-1.2,0.7c-0.4-2.5-0.4-2.5,1-2.5c-0.3,0.2-0.6,0.4-1.1,0.7C162.6,63.3,163.1,63.7,163,64.3z M163.8,79.7
				c-0.4-4.3-0.1-8.7-0.1-13C163.5,71,164.3,75.3,163.8,79.7z M163.1,51.9c0.1,0,0.3,0,0.4,0.1v-4.8c0.1,2.1,1.2,4.3,0.3,6.3
				c-1.1,2.4-0.3,4.7-0.3,7c0,0.9-0.3,1.3-1.2,1.3c-1.1,0-0.7-0.8-0.7-1.3c0.1-8,0.2-16,0.3-24c0-1.2,0-2.5-0.1-3.7
				c0-0.5-0.2-1.2,0.5-1.1c0.6,0,0.4,0.7,0.5,1.1c1.2,4.5,0.5,9.1,0.4,13.6C163.1,48,163.1,49.9,163.1,51.9z M163.2,24.1
				c-0.1,0.6-0.6,0.3-0.9,0.4c-0.6,0.1-0.9-0.1-0.8-0.8c0-0.6,0.5-0.6,0.8-0.6C162.7,23.3,163.2,23.5,163.2,24.1z M163,20.8
				c-2.1-0.2-4.3-0.1-6.4-0.2C158.8,20.2,160.9,19.7,163,20.8z M158.1,21.7c-0.4,0.1,0.3,1-0.4,1.1c-0.7,0.1-0.9-0.6-0.8-1
				c0-0.6,0.7-0.5,1.1-0.5c0.8,0.1,2-0.6,2.4,0.4c0.3,0.7,0.4,1.9-0.3,2.5c-0.4,0.4-0.6,0.8-0.5,1c0.6,0.6,0.8-0.3,1.3-0.6
				c0.1,0.6,0.2,1.2,0.3,1.7c-1.6,0-2.3-0.8-2.4-2.3c0-0.8,0.5-0.6,0.9-0.6c0.4,0,0.4-0.4,0.4-0.6c0-0.1-0.1-0.2-0.2-0.4
				C158.6,23.9,159,21.4,158.1,21.7z M158.4,27.2c0.7-1.1,2.1,0,2.8-0.9c0.2,0.4,0.6,0.4,1.1,0.3c-0.2-0.4-0.9-0.7-0.5-1.2
				c0.1-0.2,0.6-0.1,0.9,0c0.4,0.1,0.8,0.4,0.6,1c-0.2,0.8,0.1,1.9-1.4,1.3C160.8,27.3,159.5,28,158.4,27.2z M160.3,37.6
				c0.2-0.7,0.4-1.3,0.7-2.1c0.5,1.2-0.3,2.2-0.6,3.2c-1.8,6.9-3.6,13.7-5.4,20.6c-0.2,0.9-0.4,1.2-1.3,0.7
				c-0.9-0.4-1.9-0.8-2.8-1.1c-0.7-0.2-0.5-0.6-0.2-1c0.9,0.1,1.6,0.9,2.5,0.6c-0.4-1-2.3-0.3-2.1-1.7c0.1-1,0.7-1.9,1.1-2.8
				c1.5-3.3,2.9-6.6,4.4-9.8c0.3-0.8,0.9-1.4,1.5-1.9c0.4-1.1,0.9-2.1,1.2-3.2C159.4,38.4,159.6,37.9,160.3,37.6z M148.5,57.5
				c-3.6-1.2-7.1-2.6-10.7-3.9c-0.2-0.1-0.4-0.2-0.5-0.4c-3.8-1.2-7.5-2.3-11.3-3.6c-1.1-0.4-2.5-0.3-3.4-1.5l-3.3-1.4
				c-3.6-0.4-7-1.7-10.8-2.7c8.7-1.4,17.1-1.1,25.6-1.7c-2.6,0.7-5.1,1.4-7.7,2c-1.7,0.4-3.4,1.2-5.3,1.1c-0.4,0-0.9,0.2-1.1,0.7
				c3,0.3,5.7-1.3,8.5-1.8c2.3-0.4,4.4-1.5,6.7-1.7c3.9-0.4,7.4-2.2,11.2-3c3.9-0.8,7.6-1.9,11.4-2.8c0.4-0.1,0.8-0.3,1.1,0
				c0.3,0.4-0.1,0.7-0.3,1.1c-2.6,5.9-5.2,11.7-7.7,17.6c-0.5,1.3-1.1,1.9-2.4,1.1c-0.2-0.1-0.4,0-0.7,0c0.7,0.9,2,0.6,2.8,1.4
				C149.7,58.6,149.1,57.7,148.5,57.5z M140.6,81.1c2.8-6.7,5.8-13.2,8.4-20c0.2-0.6,0.6-1.2,0.9-1.7c0.7-0.1,1.2,0.4,1.8,0.6
				c2.9,1,2.9,1,2.2,3.9c-2.3,8.9-4.5,17.9-6.8,26.8c-3.1,11.8-6.3,23.7-9.5,35.5c-0.1,0.3-0.4,0.6,0.3,1.1
				c5.9-21.5,11.6-42.9,16.8-64.5c3.6,1.2,3.7,1.2,3.2,5.1c-0.5,4.1-1.1,8.2-1.6,12.2c-0.1,0.4,0,0.8-0.3,1.1
				c-0.5,0.6-0.5,0.8,0.4,0.8c0.6,0,0.5,1,0.4,1.6c-0.1,0.5-0.3,1-0.9,1.1c-0.7,0.1-0.5-0.8-1.1-1.1c-0.3,1.9-0.7,3.6-1,5.4
				c-1.1,7.3-2.9,14.4-4.3,21.6c-1.1,5.3-2.1,10.7-3.1,16c-0.2,0.9-0.5,1.2-1.4,1.1c-3.5-0.3-7.1-0.6-10.6-0.9
				c-1-0.1-1.2-0.3-0.9-1.4c2.5-7.9,5-15.9,7.5-23.8c0.2-0.8,0.5-1.5,0.4-2.3c-1.7,3-2.2,6.4-3.3,9.6c-1.9,5.5-3.5,11-5.2,16.5
				c-0.3,1-0.7,1.1-1.5,0.9c-2.9-0.6-2.8-0.6-1.8-3.5c3.7-10.3,7.4-20.6,11.1-30.9c0.6-1.7,1.8-3.4,2.1-5c0.6-3.4,2.5-6.3,2.8-9.7
				c-1.3,1.6-1.4,3.7-2.2,5.6c-0.4,1-0.7,2-1.1,3c-0.1,0-0.2-0.1-0.3-0.1C139.3,84,139.3,84,140.6,81.1z M134.8,128
				c-0.1,0.4-0.4,0.3-0.7,0.2c-3.6-0.4-7.1-0.9-10.7-1.3c-0.5-0.1-0.4-0.5-0.7-0.9c4,0.5,7.7,0.9,11.4,1.4
				C134.5,127.4,134.9,127.6,134.8,128z M110.3,64.9c8.5,4.8,16.6,10.3,24.5,16c0.3,0.2,0.6,0.5,0.9,0.8c2.9,2.6,2.9,2.6,1.3,6.3
				c-1.6,3.7-3.3,7.3-4.4,11.1c1.8-2.9,2.8-6.1,4.2-9.1c0.6-1.3,1.2-2.5,1.7-3.8c0.5-1.3,1-1.6,2.3-0.6c1.1,0.9,1.3,1.5,0.8,2.9
				c-2.8,8.4-6.2,16.6-9.1,25c-1.3,3.8-2.7,7.5-4,11.2c-0.2,0.6-0.3,1.4-1.3,1.2c-2-0.4-4.1-0.4-6.1-1c-3.7-0.4-7.3-1.3-10.9-2
				c-0.6-0.1-0.9-0.4-0.9-1c-0.7-6.2-2.2-12.2-3.3-18.3c-1.8-10.1-3.7-20.1-5.6-30.2c-1-5.2-2-10.3-3-15.6
				C101.9,59.8,106,62.5,110.3,64.9z M74.6,113.2c0.6,0.3,1.2,0.7,1.9,0.5c-0.1-0.1-0.1-0.3-0.2-0.3c-2.8-0.5-3.2-2.7-3.5-4.9
				c-0.2-1.2-0.4-2.3-0.7-3.5c-0.2-0.9-0.8-1.7-1.7-1.5c-1,0.1-1.2,1.1-1.1,2c0.3,1.4,0.6,2.8,0.9,4.3c0.2,1,0.1,1.3-1.1,1
				c-1.2-0.4-1.8-1.1-2.1-2.2c-0.9-1.2-1.1-2.7-1.2-4.2c-1-1.1-0.9-2.5-1.2-3.7c-0.5-2.2-1-4.5-1.5-6.8c0.8,0.3,0.1,1.2,0.9,1.3
				c0.1-0.4-0.4-1.2,0.7-0.8c2.6,1,5.1,2,7.7,3c0.8,0.3,0.9,1,1.1,1.8c1.1,4.6,2.2,9.2,3.4,13.7c0.1,0.3,0.1,0.5,0.8,0.9
				c-1.3-5.4-2.6-10.6-3.8-15.8c0.9,0.4,0.5,1,0.9,1.6c0.1-1.2,0.7-1.3,1.5-0.9c1,0.5,2,1,3.1,1.2c2.6,0.4,3.7,1.8,4.2,4.4
				c0.8,4.3,2,8.5,3.1,12.8c-2.7-0.4-2.7-0.4-3.3-2.9c-0.3-1.5-0.7-3-1-4.4c-0.1-0.6-0.4-1.2-0.8-1.6c-0.4-0.5-0.9-0.9-1.6-0.6
				c-0.6,0.3-0.8,1-0.6,1.6c0.2,1.3,0.4,2.6,0.8,3.8c0.5,1.4,0.1,1.9-1.3,2c-0.4,0.5-1.4,0.4-1.4,1.3c0,0.5-0.5,0.5-0.8,0.3
				c-2.5-0.9-5-1.9-7.8-3C71,112.5,72.8,112.1,74.6,113.2z M68.8,112.1c1.2-0.8,2.3-1.2,3.5-0.8C71.3,111.8,70.3,112.5,68.8,112.1z
				 M56.9,106.2c-1.2-5.4-2.4-10.7-3.6-16.5c1.2,1.3,0.8,2.8,1.7,3.8c-0.2-1-0.3-2-0.5-3.1c1.2-0.2,2.1,0.6,3.1,0.9
				c1.4,0.5,2.6,1.4,4,1.7c0.7,0.1,0.7,0.7,0.8,1.3c1,4.9,2.1,9.9,3.2,14.9c-1.4-0.3-2.4-0.7-2.6-2.4c-0.2-1.7-0.5-3.6-1.5-5.2
				c-0.4-0.7-0.7-1.6-1.7-1.3c-1,0.3-0.8,1.2-0.7,2.1c0.1,1.6,0.9,3,0.8,4.6c-1.2-0.4-2.3-0.8-2.7-2.1
				C57.4,105.4,57.5,105.8,56.9,106.2z M37.7,97.1C37,97,37.1,96.5,37,96c-0.7-4.6-1.5-9.2-2.2-13.8c0.7-0.3,1.1,0.1,1.6,0.3
				c1.3,0.6,2.5,1.4,3.8,1.7c3.1,0.6,3.3,2.8,3.6,5.3c0.4,3.8,0.7,7.6,1.7,11.3c-1.7-0.2-2.5-1.2-2.7-2.9c-0.1-1.6-0.5-3.2-0.7-4.8
				c-0.1-0.8-0.4-1.7-1.4-1.5c-1,0.1-1,1.1-1,1.9c-0.1,1.5,0.6,3,0.3,4.6C39.2,97.8,38.3,97.7,37.7,97.1L37.7,97.1z M32.5,87.9
				c-0.4-0.9-1.1-1.1-1.8-0.7c-0.8,0.6-1.2,0.2-1.9-0.2c0.2-0.6,0.9,0,1.1-0.4c-0.1-0.5-1-0.4-1.1-1c0.7-0.2,1.1,0.5,1.9,0.4
				c-0.3-0.7-0.9-0.8-1.4-1c-0.7-0.3-0.7-0.4-0.2-0.9c0.5-0.5-0.1-0.4-0.2-0.5c-0.3-0.1-0.7-0.3-0.4-0.7c0.3-0.4,0.6,0,0.9,0.1
				c0.7,0.2,1.2,0.9,2.4,0.7c-1.1-0.6-2-1-2.8-1.4c-0.3-0.2-1-0.1-0.8-0.6c0.3-0.7,0.8,0,1.1,0.1c1,0.4,2,1,3,1.5
				c0.1-0.1,0.1-0.3,0.2-0.4c-1.1-0.6-2.3-1.1-3.4-1.7c-0.4-0.2-1.2,0-1-0.9c0.2-0.6,0.8,0.4,1.1-0.1c0-0.1-0.1-0.1-0.1-0.2
				c-0.3-0.5-1.6-0.1-1.2-1c0.4-0.8,1,0.2,1.6,0.3c0.1,0,0.1,0.1,0.2,0.1c4.5,0.8,5,4.2,5.3,8c0.2,2.6,0.7,5.1,1.2,7.7
				c0.1,0.4,0.1,0.8,0.1,1.2c-2.7-0.5-2.7-2.7-2.9-4.6C33.1,90.3,33.1,89.1,32.5,87.9z M32.8,94.7c-0.2,1-1.2,0.5-1.8,0.9
				c-0.2,0.2-0.7-0.1-0.6-0.3c0.2-0.8,1.1-0.6,1.6-0.9C32.3,94.4,32.9,94.2,32.8,94.7z M21.2,76.5c1.3,0.2,2.3,1.3,3.6,1.5
				c0,0,0,0,0,0c1.1,0.6,2.2,1.2,1.4,2.9c-1.4-0.6-2.9-1.3-4.4-2c-0.3-0.1-0.4-0.4-0.3-0.7c0.2-0.4,0.5-0.2,0.7-0.1
				c1.3,0.6,2.4,1.4,4.1,1.8C24.6,78.4,22.4,78.3,21.2,76.5z M23.8,71.9c0.3,0.2,0.7,0.4,1,0.6l0,0c-1.1,1,0.5,2.2-0.4,3.5
				C23.3,74.7,23.9,73.2,23.8,71.9z M28.4,67.7c0.6-0.4,1,0.4,1.5,0.1c0.7,2.5,1.3,5,2,7.5c-5.3-0.8-4.9-5.3-5.8-8.9
				c1.6,0.3,1.8,0.5,2.1,2.1c0.3,1.6,0.7,3.2,1,4.8c0,0.2,0.1,0.3,0.3,0.4C29.4,71.6,28.7,69.7,28.4,67.7z M35.8,71.3
				c1.3-0.2,1.5,1,2,1.7c0-0.4,0-0.9,0.6-0.7c0.8,0.2,1.6,0.5,1.8,1.5c0.5,2,1,4,1.6,6.2c-1.2-0.4-2.2-0.4-2.5-2
				c-0.3-1.7-0.5-3.5-1.6-5c0,2,1,3.8,1.3,5.8c-0.9-0.2-1.6-0.6-2-1.4c-1.1,0.5-2-0.1-2.3-0.9c-0.7-2.1-1-4.2-1.5-6.4
				c1.7,0.4,1.7,0.4,2.1,2c0.2,0.7,0.1,1.6,0.9,2C36,73.2,35.6,72.3,35.8,71.3z M43.5,74.7c1.4,0.2,1.8,1.1,2,2.2c0.2,1,0.3,1.9,1,3
				c0.2-1.6-0.8-2.8-0.5-4.1c1.2,0,1.6,0.7,1.8,1.8c0.3,1.8,0.8,3.6,1.4,5.3c0.1-1.7-0.6-3.3-0.8-4.9c-0.1-0.4-0.8-1,0-1.2
				c0.8-0.2,1.3,0.2,1.5,1c0.3,1.1,0.5,2.3,0.8,3.5c0.2,0.8,0.3,1.6,1.1,2.6c-0.4-1.9-0.8-3.4-1.1-4.9c-0.1-0.5-0.6-1-0.1-1.4
				c0.4-0.3,0.9,0.2,1.4,0.4c0.2,0.1,0.5,0.3,0.7,0.4l0,0c1.3,0.4,2.6,0.8,4,1.2c0.5,0.2,0.8,0.5,0.8,1.1c0,1,0.5,1.9,0.9,3.1
				c0.3-1.1-0.2-1.9-0.4-2.7c-0.2-0.9,0.2-1.1,0.8-0.7c1,0.6,2.2,0.9,3.3,1.1c0.7,0.1,0.7,0.6,0.8,1.1c0.5,2.4,1,4.7,2.1,6.9
				c-0.6-2.4-1.2-4.8-1.8-7.2c1.3-0.2,2,0.4,2.4,1.4c0-0.8,0.6-0.8,1-0.6c0.5,0.3,1.4,0.1,1.5,1.1c0.1,0.7,0.1,1.6,0.7,2.2
				c0.3-0.3,0-0.7,0-1c-0.1-0.5-0.5-1.2,0.1-1.3c0.7-0.1,1.7,0.1,1.9,1c0.6,2.7,1.3,5.3,2.1,8c-1,0-1.7-0.8-2.5-0.5
				c-0.6-0.9-2-0.6-2.6-1.5c-2.2-0.2-4.1-1.4-6.1-2.2c-4.8-1.8-4.8-1.8-5.8-6.8c-0.1-0.6-0.2-1.3-0.8-1.7c0.2,1.1,0.4,2.2,0.7,3.2
				c0.2,1,0.5,2,0.9,3.3c-4.1-1.8-8-3.2-11.7-5.2c-1.8-0.3-2.9-1.2-3.1-3.1c-0.1-1.6-1.1-3.1-1-4.8c1.4,0.4,2.3,0.8,2.5,2.4
				c0.2,1.3,0.3,2.8,1.3,3.9C44.2,78.1,43.9,76.5,43.5,74.7z M34.3,76.4c-1.9-0.4-2-0.5-2.3-2c-0.4-1.9-0.9-3.9-1.4-6.1
				C34.1,70.3,32.9,73.9,34.3,76.4z M26.8,72.7c-1.1-0.2-1.6-0.7-1.8-1.7c-0.4-2-1-3.9-1.6-6c1.1,0.3,1.8,0.6,2,1.9
				C25.8,68.7,26.4,70.6,26.8,72.7z M26.5,78h-1.7c-0.9-1-2.1-1.5-3.3-2.1c-0.4-0.2-0.5-0.4-0.4-0.8c0-0.1,0.3-0.2,0.4-0.2
				C23,75.9,24.8,76.5,26.5,78z M26.3,76.9c-0.7-0.4-1-0.9-1-1.6c-0.1-0.9-0.3-1.8-0.4-2.8C37.5,79.3,50.7,84.9,64,90.1
				c2.1,0.8,4.1,2,6.3,2.2c0,0,0,0,0,0c1.6,1,3.4,1.6,5.2,1.9c-3.4-1.3-2.8-4.7-3.8-7.2c-0.1-0.3-0.1-0.6-0.1-0.8
				c-0.2-0.5-0.5-1.3,0.1-1.5c0.7-0.2,1.6,0.1,1.9,1c0.3,0.7,0.4,1.5,0.6,2.5c0.5-1-0.5-1.9,0-2.7c1.6-0.1,2.1,0.7,2.4,2.1
				c0.2,1,0.2,2.1,0.9,3c0.2-1.1-0.4-2.1-0.6-3.1c-0.1-0.4-0.4-1.1,0.2-1.3c0.6-0.1,1.3,0,1.5,0.9c0.6,2.8,1.4,5.5,2.1,8.3
				c-1.1,0-1.8-0.2-2.1-1.5c-0.2-1.2-0.5-2.4-1.3-3.4c0,1.4,0.8,2.6,0.9,4c-0.5,0.3-1,0-1.5,0.1c2.7,1.5,5.8,2.1,8.6,3.2
				c4.9,1.9,10.1,3,15.3,3.8c1.3,0.2,0.9,0.9,0.7,1.7c0,0,0,0,0,0c-1.7,2.2-3.8,1.4-6,0.9c-11.3-3-22.3-6.9-33.1-11.3
				c-3.4-1.4-6.6-3.1-10.2-3.9c0,0,0,0,0,0c-3.2-1.9-6.7-3-10.1-4.5C36.8,82.1,31.5,79.7,26.3,76.9z M79.7,86.9
				c0.5,0,1.3-0.3,1.5,0.8c0.5,2.9,1.4,5.7,2.4,8.7c-1.4-0.2-2.3-0.4-2.5-1.9c-0.4-2.2-1.2-4.3-1.8-6.5
				C79.2,87.6,78.7,86.9,79.7,86.9z M95.1,99.6c-0.5-1.2,0.1-2.4-0.6-3.3c0,0,0,0,0,0v-7.4C94.6,92.4,95.4,95.8,95.1,99.6z
				 M102.7,113.5c-0.3-0.9-0.8-1.9-2-1.6c-1.2,0.4-1.3,1.3-0.9,2.5c0.5,1.2,0.7,2.5,1.1,3.7c0.3,1.1-0.3,1.4-1.1,1.7
				c-0.9,0.3-0.9-0.4-1.1-1.1c-0.6-1.7-0.7-3.7-1.7-5.2c-0.1,2.2,1.3,4.1,1.1,6.3c-1.4-5.1-2.9-10.3-4.4-15.5
				c1.6-0.1,2.9,0.6,4.3,0.9c2.1,0.5,2.8,0.1,3.7-2c0.7-0.3,1,0,1.2,0.7c1.8,5.8,3.5,11.6,5.4,17.3c0.3,0.9,0,1-0.7,0.9
				c-1.5-0.2-2.5-0.7-2.8-2.4C104.2,117.6,103.4,115.5,102.7,113.5z M103.6,119.6c-0.7,1-1.8,1.1-2.9,1.3c-0.3,0.1-0.9-0.1-0.6-0.4
				c0.7-0.8,1.9-1.1,2.9-1.4C103.2,119,103.8,119.3,103.6,119.6z M41.5,98.5c0.3-0.2,0.7-0.1,0.8,0.3c0.2,0.5-0.1,0.6-0.5,0.7
				c-0.9,0.2-1.7,0.9-2.8,0.4C39.7,98.9,40.7,98.9,41.5,98.5z M44.6,101.1c1.5,0.8,3.1,1.4,4.7,2.1c-1.3,1-2.5,0.6-3.7-0.2
				c-1.2-0.8-2.5-1.4-3.8-2C42.8,100.2,43.6,100.6,44.6,101.1z M52,103.3c-0.8,1.1-1.9,1-3,0.9C49.9,103.7,50.8,103,52,103.3z
				 M51.2,96.9c-0.2-0.8-0.8-1.5-1.7-1.2c-0.9,0.3-0.7,1.2-0.6,1.9c0.2,1.3,0.4,2.7,0.8,4c0.2,0.7,0,1.2-0.3,1.7
				c-0.1-0.2-0.1-0.5-0.2-0.5c-1.6-0.4-2.2-1.7-2.6-3.1c0,1.6,0,1.6-1,1.2c0,0,0,0,0,0c0.4-2-0.2-4-0.5-6c-0.3-2.9-0.8-5.8-1.2-9
				c1.5,0.7,0.6,2,1.1,2.7c0.1-0.1,0.2-0.2,0.2-0.2c0-2.2,0-2.2,2-1.2c1.6,0.8,3.3,1.6,5.1,1.8c1.1,1.5,0.9,3.3,1.3,5
				c0.9,3.8,1.6,7.7,2.3,11.5c-2.8-0.6-2.8-0.7-3.3-3.2C52.3,100.4,51.7,98.6,51.2,96.9z M62.4,107.4c-1.2,0.8-2.3,1.2-3.9,1
				C59.8,107.7,60.8,107.1,62.4,107.4z M62.6,109.7c1.2-1.8,1.9,0.1,2.8,0.2c1.1,0.1,2.2,0.8,3.3,1.2c-1.1,1.3-2.4,1.3-3.9,0.6
				c-1.6-0.8-3.4-1.3-5.3-2.1C60.8,108,62.2,110.3,62.6,109.7z M81.7,115.1c-0.9,0.3-1.7,0.9-2.7,0.8c0,0-0.2-0.4-0.1-0.4
				c0.9-0.7,1.9-1.2,3.1-1.1C82.2,114.9,81.9,115,81.7,115.1z M80.8,116.2c0.8,1.7,1.8-0.1,2.7,0.3c1.2,0.6,2.6,1,3.8,1.4
				c-0.2,2.5-1.8,1.5-3.1,1.1c-1.8-0.6-3.7-1.3-5.6-2C79.5,116.5,80.8,116,80.8,116.2z M86.9,115.5c-1-4.6-2.2-9.1-3.4-13.7
				c0-0.2-0.2-0.4,0.2-0.6c0.2,0.6,0.5,1.1,0.7,1.7c0.4-0.5,0-0.9,0-1.5c2.6,0.8,5.2,1.5,7.8,2.2c0.7,0.2,0.7,0.7,0.9,1.3
				c1.2,4.4,2.5,8.7,3.6,13.1c0.1,0.5,0.9,1.4,0.1,1.6c-0.8,0.2-2,0.2-2.3-1c-0.4-1.2-0.6-2.5-1-3.7c-0.4-1.4-0.7-2.8-1.2-4.2
				c-0.3-0.8-0.9-1.6-1.9-1.4c-1,0.2-1.1,1.1-1.1,2c0,1.7,0.9,3.1,1,4.8c0,0.3,0,0.7,0,1c0.2,0,0.4,0,0.7,0c0.6-0.1,1.5-0.8,1.7,0.1
				c0.2,0.8-0.9,0.7-1.5,1c-0.5,0.3-1,0.4-1.6,0.6c-0.4,0.1-0.8,0.6-1.2,0c-0.4-0.6,0.5-0.6,0.5-1.1
				C87.7,117.6,87.2,116.8,86.9,115.5z M88.2,119.9c2.4-1.3,4.8-1,7.2,0.1c1.2,0.6,2.8,0.3,3.6,1.7c0.1,0.1,0.4,0.2,0.6,0.1
				c2.8-0.9,5.3,0.4,8,0.8c1.8,0.3,3.6,1.3,5.4,1.6c2,0.4,4.1,0.7,6.1,1c0.5,0.1,1.1,0.1,1.6,0.8C116.9,126.4,91.6,121.6,88.2,119.9
				C88.2,120,88.2,119.9,88.2,119.9z M96.1,57.4c0.6-0.1,0.6,0.4,0.7,0.9c1.7,9.4,3.4,18.9,5.2,28.3c2,10.4,4,20.8,6,31.3
				c0,0.1,0,0.2-0.1,0.6c-1.7-5.4-3.5-10.4-4.8-15.6c-0.9-3.6-1.2-7.4-1.8-11.1c-1-6-1.9-12-2.9-18c-0.8-5.2-1.7-10.3-2.5-15.5
				C95.9,58,95.7,57.5,96.1,57.4z M94,56.3c0.6-0.1,1,0.2,1.2,0.7c0.2,1.2,0.4,2.3,0.6,3.5c0.9,5.4,1.8,10.9,2.6,16.3
				c1,6.1,1.9,12.2,2.8,18.3c0.3,1.6,0.4,3.2,0.9,4.8c0.4,1.3-0.3,1.2-1.1,1.1c-1.2-0.2-2.3-0.4-3.5-0.7c-0.6-0.1-1-0.4-1-1.2
				c-0.3-4.4-0.7-8.9-1-13.3c-0.6-8.1-0.8-16.2-1.6-24.3c-0.1-0.8,0-1.6,0-2.4c0,0,0,0-0.1,0c0-0.6-0.1-1.2-0.1-1.9
				C93.8,56.9,93.4,56.4,94,56.3z M88.4,52.5c-1.3,0.5-2-0.6-3-1c-0.7-0.3-1.3-0.9-2.2-1.5c1.2,0,1.9,0.9,2.9,0.7
				C86.5,51.7,87.9,51.5,88.4,52.5c1.2,0.2,2.3,0.6,3,1.7C90,54.1,89.2,53.3,88.4,52.5z M90.5,60.2c0.1-1.7,0.3-3.4,0.8-5.2
				c0.1,1.7,0.4,3.5,0.4,5.2c0.3,9.5,0.5,19.1,0.8,28.6c0,0.5-0.3,1.2,0.4,1.6c0.1-11-0.7-21.9-0.7-32.8c0-0.7-0.8-1.8,0.1-1.9
				c0.9-0.1,0.4,1.2,0.5,1.9c0.5,7.2,1,14.3,1.5,21.5c0.1,1.9-0.3,3.8-0.3,5.7c-0.1,3.7,0.2,7.3,0.4,11c0,0.1,0.1,0.3,0.2,0.4
				c0,0.7,0,1.3,0,2c0,0.5,0.3,1.2-0.3,1.3c-0.5,0.2-1.2-0.1-1.4-0.8c0-0.1-0.2-0.2-0.3-0.3c-0.1-2.4-1.1-4.7-1.8-7
				c-0.6-2-1.1-3.9-1-6C90.1,77,90.2,68.6,90.5,60.2z M89.5,89.6c0.7,2.4,1.5,4.8,2.2,7.2c0.2,0.6,0.3,1.2,0.7,1.6
				c-0.5,0.8-1.9,0.7-2.7-0.3c-0.1-0.1-0.2-0.3-0.3-0.4c-1.1,0.8-1.9,0-2.6-0.6c-0.2-0.2-0.1-0.7-0.5-0.8c-0.1,0.3,0.1,1-0.4,0.9
				c-0.8-0.2-1.7-0.3-2-1.3c-0.7-2.4-1.4-4.8-2.1-7.2c-0.1-0.5-0.7-1.2,0.1-1.3c0.6-0.1,1.6,0,1.8,1.1c0.3,1.3,0.6,2.6,1,3.9
				c0.1,0.5,0.1,1,0.8,1.2c-0.4-1.3-0.7-2.7-1.1-4c-0.1-0.5-0.5-1.3,0.2-1.4c0.6-0.1,1.4-0.1,1.7,0.9c0.3,1.3,0.8,2.5,1.2,3.8
				c0.1,0.4,0.2,0.9,0.7,1c-0.3-1.2-0.7-2.5-1-3.7c-0.1-0.5-0.6-1.3,0.1-1.4C88.1,88.5,89.2,88.3,89.5,89.6z M30.8,66.4
				C42.6,72.3,55,77,67.7,80.7c6.2,1.8,12.4,3.7,18.8,4.8c1.5,0.3,2.2,1.1,2.4,2.6c-6.6-1.1-12.9-2.9-19.1-4.8
				c-8.6-2.7-17.1-5.6-25.4-9.1c-4-1.7-8-3.4-11.8-5.4c-0.8-0.4-1.6-1-2.6-1l0,0c-1.3-1.5-3.3-1.9-5-2.9c-1.1-0.6-1.9-1.3-2.4-2.6
				C25.3,63.7,28,65,30.8,66.4z M17,68.6c0.5-0.7,0.9,0,1.3,0.3c0.2,0,0.5,0,0.7,0c1.3,1.5,3.3,1.9,4.8,3l0,0
				c-1.1,0.9,0.1,2.2-0.6,3.4c-1.5-0.9-0.1-2.9-1.3-3.9c-0.6,1,0.3,2,0.1,3.1c-1.1-0.6-2.4-0.9-3.3-1.8C17.7,72.1,16.5,69.4,17,68.6
				z M15.3,67.6c0.1-0.1,0.2-0.3,0.3-0.3c0.4,0.1,0.7,0.4,0.8,0.8c0.1,0.5,0.1,1.1,0.1,1.7c0,0.5,0.1,1,0.1,1.7
				C16,71.1,15.1,68.2,15.3,67.6z M15.2,71.9c0.1,0,0.2-0.1,0.2-0.1c0.5,0.6,1,1.2,1.5,1.8c0.8,0.4,1.5,0.8,2.3,1.3
				c-0.3,0.5-0.7,0.1-1,0.2l0,0c0.1,0.3,0.3,0.6,0.4,0.9c0.1,0.2,0.2,0.4,0.3,0.6c0.1,0.2,0.3,0.5,0.3,0.5c-0.2,0.2-0.4,0-0.5-0.1
				c-0.2-0.2-0.4-0.1-0.5,0.1c-0.1,2,0.6,3.8,1.5,5.5c0.8,1.5,0.7,3.1,0.7,4.8C18.6,82.1,16.9,77,15.2,71.9z M23.2,89.2
				c-0.4,0.1-0.9,0.1-1.1-0.3c-0.3-0.6-1-0.9-1-1.7c-0.3-4.3-1.2-8.5-1.1-12.9c0.7,0,0.7,0.5,0.7,1.1c0,3.6,0.9,7.1,1.3,10.7
				c0.1,0.7,0.2,1.3,1.1,1.4c0.5,0.1,0.7,0.4,0.6,0.8C23.7,88.8,23.6,89.1,23.2,89.2z M25.8,83.4c-1.2-0.5-2.3-1.1-3.5-1.6
				c-1.1-0.5-0.2-1.5-1-2.1c0.1-0.1,0.3-0.2,0.4-0.3c1.5,0.7,2.9,1.4,4.4,2c0.4,0.2,0.4,0.4,0.3,0.7c-0.2,0.4-0.5,0.1-0.7,0
				c-1.2-0.5-2.4-1.1-3.6-1.5c1.1,1.1,2.5,1.6,3.9,2.2c0.4,0.2,0.9,0.1,0.6,0.7C26.4,83.9,26.1,83.5,25.8,83.4z M27.4,91.8
				c-0.4-0.1-1.1-0.7-0.9-0.8c1-0.8-0.4-1-0.3-1.7c1.5,0,1.1,1.4,1.5,2.2C27.9,91.6,27.7,91.9,27.4,91.8z M27.5,85.5
				c-0.2-2.4-0.5-4.9-0.7-7.3c0.2,0,0.4,0,0.6,0c0.5,4.7,1.1,9.4,1.6,14.2C28.5,92.2,27.8,88.6,27.5,85.5z M33.8,100.6
				c-0.4-0.1-1-0.2-1.2-0.8c-1.6,0.2-1.5-1.5-2.4-2.1c-0.2-0.1,0.2-0.3,0.3-0.4c0.4-0.3,0.7-0.1,0.9,0.2c0.5,0.5,0.6,1.2,1.2,1.5
				c0.3,0.1,0.6,0.2,0.6,0.5c0.3-0.1,0.5,0.1,0.7,0.3c0,0.1,0,0.2,0,0.3C33.8,100.2,34.5,100.8,33.8,100.6z M33.7,95.9
				c2,0.9,3.7,1.7,5.7,2.6C37.7,99.2,34.8,97.9,33.7,95.9z M39.7,127.2c-1,0.4-2,0.4-3.4,0.2C37.7,126.7,38.7,127.1,39.7,127.2z
				 M39.6,128.3c-1.1,0.7-2.3,0-3.4,0.1C37.3,127.8,38.4,128.3,39.6,128.3z M39.1,129.6c-0.4,0.7-1,0.3-1.5,0.4
				c-0.5,0-1.1,0-1.6,0.1c0.9,0.6,2.1,0,3.4,0.7c-1.6,0.5-2.9,0.2-4.1,0.2C35.8,128.7,35.2,129,39.1,129.6z M38.6,132
				c-1.3,0.5-2.5,0.1-3.8-0.3C36.1,131.2,37.3,131.8,38.6,132z M38.6,132.9c-1.4,0.5-2.8,0.5-4.2,0H38.6z M38,134.1
				c0.1,0,0.3,0.2,0.3,0.3c0,0.4-0.3,0.4-0.6,0.4c-1.2,0-2.4-0.2-3.6-0.6C35.4,133.5,36.7,134.4,38,134.1z M33.7,135.6
				c0-0.4,0.4-0.5,0.8-0.5c1.2,0,2.5,0,3.7,0.2c-1.3,0.7-2.7,0.1-4.5,0.7c1.3,0.2,2.1,0.3,2.9,0.4c1.2,0.1,1.9,1.8,1.3,2.8
				c-0.3,0.4-0.7,0.2-1.1,0.2c-0.6,0-1.1-0.1-1.7-0.1c-0.5,0-1-0.1-1.5,0.1c1.3,0.7,2.8,0.1,4.4,0.6c-1.1,0.8-2.2,0.2-3.2,0.4
				c-0.5,0.1-1.3-0.3-1.3,0.7C32.8,139.3,33.6,137.5,33.7,135.6z M33.6,141.3h4.5c0,0.2,0,0.3,0,0.5c-1.3,0.5-2.8-0.2-4.4,0.4
				c1.4,0.5,2.5,0.6,3.8,0.4c0.3,0,0.7-0.2,0.7,0.4c0,0.4-0.4,0.3-0.6,0.3c-1.1,0-2.1,0-3.2,0.1c1.3,0.7,2.8,0.1,4.2,0.5
				C35.8,145.3,33.9,144.3,33.6,141.3z M35.4,146.5c1-0.7,2.1-0.2,3.1-0.8c-1-0.1-2.1-0.2-3.1-0.2c-0.3,0-0.6,0.1-0.6-0.3
				c-0.1-0.4,0.2-0.4,0.5-0.4c1.1,0,2.2,0.3,3.4,0.1c0.8-0.1,0,1.4,1.5,1.5C38.1,147,36.8,146.4,35.4,146.5z M38.5,150.5
				c1.2-0.5,2.5-0.2,3.7,0C40.9,151,39.7,150.4,38.5,150.5z M39.4,151.4c1.3-0.3,2.5-0.4,3.8,0.1C42,152,40.7,151.2,39.4,151.4z
				 M41.4,153.1c1.4-0.4,2.8,0.3,4.3,0.1C44.2,153.4,42.8,153.7,41.4,153.1z M43.3,153.8c1.4,0.1,2.8,0.1,4.1,0.2
				C46,154.6,44.6,154.3,43.3,153.8z M49.7,122.5c0-0.1-0.1-0.2-0.1-0.4c-0.1-0.1-0.3-0.1-0.4-0.2c0.1-0.1,0.3-0.1,0.4-0.2
				c0.2-0.1,0.5-0.2,0.7-0.3c-0.1-0.2-0.2-0.5-0.3-0.7c0.4,0.1,0.8,0.3,1,0.7c0.3,0.1,0.6,0,0.7,0.3c0.2,0,0.5,0,0.7,0.1
				c1.9,1,4.1,1.3,6,2.3c3.2,1.7,6.7,2.8,10.1,4.1c0.6,0.2,1.3,0.5,1.8,0.9c-2.2-0.5-4.5-0.9-6.7-1.5c-3.2-0.8-6.5-1.5-9.5-2.7
				C52.5,124.6,50.7,124.1,49.7,122.5z M84.6,155.4c1.5-0.1,3-0.6,4.5,0H84.6z M115.7,156.1h-15.4c0-0.1,0-0.1,0-0.2h15.4
				C115.7,156,115.7,156.1,115.7,156.1z M119.1,137.9c-0.9,0.2-1.3,0.2-1.8,0.3c1.2,0.6,2.4-0.2,3.3,0.7c-0.5,0.5-1.1-0.4-1.6,0.2
				c0.6,0.6,1.3,0.4,2,0.4c0.4,0,1-0.3,1,0.5c0,0.8-0.6,0.4-1,0.5c-0.1,0.1-0.3,0.1-0.9,0.2c1.9,0.4,3.7-1,4.8,0.8H122
				c0,0.1,0,0.3,0,0.4h4.6c-1.3,0.4-2.6,0.1-4,0.4c0.4,0.4,0.9,0.2,1.2,0.3c0.6,0.1,1.3-0.3,1.7,0.8c0.2,0.6,1.6,0.2,2.4,0.3
				c0.4,0,0.9-0.1,1.3,0c0.4,0,0.7,0.2,0.7,0.6c0,0.5-0.5,0.4-0.8,0.4c-0.8,0-1.5-0.2-2.6,0.2c2.2,0.4,4.1,0.7,6,0.5
				c-0.8,0.6-1.7,0.2-2.8,0.5c1.3,0.1,2.4,0.2,3.5,0.3c0.5,0,0.5,0,0.9,0.7c0.4,0.5,1.1,0,1.7,0.5c-2.1,0.2-4.1-0.8-6.1,0
				c2.5,0.1,4.9,0.7,7.3,0.7h-5.1c1.5,0.7,3.1,0.3,4.6,0.7h-3.7c0,0.1,0,0.2,0,0.3h4c0,0.1,0,0.2,0,0.3c-0.9,0.1-1.8,0.1-2.9,0.2
				c0.7,0.6,1.3,0.1,1.9,0.4c0,0.5-0.7,0-0.8,0.5c1.8,0.7,3.8,0.2,5.7,0.7h-4.4c0.5,1.3,1.8,0.8,2.6,1.7h-25.3c0,0.2,0,0.3,0,0.5
				h26.2c0,0.1,0,0.3,0,0.4c-13.6,1-27.2-0.9-40.8,0.3c6.9-0.3,13.8,0.2,20.7,0.2c6.9,0.1,13.9,0.6,20.8,0.1c0,0.2,0,0.3,0,0.5h-8.5
				c0,0.1,0,0.3,0,0.4h9.2c-13.4,0.5-26.9,0.3-40.3,0c10.1-0.1,20.1,0.2,30.2-0.1c-17.9-0.9-35.8-0.2-53.7-1.2h9.8
				c-2.6-0.7-5.2-0.3-7.7-0.4c2.5-0.7,5.1-1.2,7.8-1c-4-0.6-8,0.1-12-0.6H78c0-0.1,0-0.2,0-0.3h-3.2c-0.1-0.6,0.5-0.3,0.5-0.7H72
				c0-0.1,0-0.2,0-0.3h14.3c0-0.1,0-0.2,0-0.4H72.4c4.1-0.3,8.1-0.9,12.2-0.9c-3.7-0.2-7.3-0.4-11-0.5c5.7-0.3,11.3,0.5,17-0.1
				c-5.7,0.2-11.3-0.6-17-0.6c4.1-0.3,8.1,0.1,12.7-0.4c-6.1-0.2-11.7-0.4-17.3-0.7c0.3-0.1,0.6-0.1,0.9-0.2c0-0.1,0-0.2,0-0.3
				c-1-0.1-2-0.1-3-0.2c0,0,0-0.1,0-0.1h4.2c0-0.1,0-0.2,0-0.4h-4.3c0-0.1,0-0.2,0-0.3h6.5c-2.2-0.9-4.5-0.2-6.7-0.7
				c0.8-0.1,1.6-0.1,2.4-0.2c0-0.1,0-0.2,0-0.3h-3.5c0-0.1,0-0.2,0-0.3h3.4c0-0.1,0-0.2,0-0.3c-0.9,0-1.8-0.1-2.6-0.1l0-0.2h6
				c-2.5-0.9-5.2,0.2-7.7-1.1c2.5,1.3,5-0.2,7.5-0.1c-3.6-0.3-7.2-0.6-10.8-0.9c3.2-0.1,6.4,0.5,9.7-0.1c-2.9-0.2-5.7-0.3-8.6-0.5
				c1.9-0.5,3.9,0,5.8,0.1c0-0.1,0-0.3,0-0.4c-1.7-0.1-3.4-0.3-5.2-0.4c0.8-0.4,1.6,0.1,2.3-0.4c-0.6-0.5-1.2-0.1-1.8-0.3
				c0.2-0.4,0.7-0.2,1.2-0.4c-2.7-0.4-5.3-0.9-7.9-1.3c3.2-0.2,6.4,0.3,9.9,0c-3.4-0.5-6.4-0.9-9.7-1.4c1.3-0.3,2.3-0.5,3.4-0.7
				c-0.1-1-1.2-0.2-1.4-1.1c0.5-0.1,1-0.1,1.5-0.2c-0.8-0.3-1.6-0.8-2.5-0.7c0.3-0.5,0.9,0,1-0.6c-0.7-0.2-1.4-0.4-2.2-0.6
				c0.8-0.2,1.5-0.4,2.5-0.7c-1.4-0.4-2.6-0.7-3.7-1c1.6,0.6,2.7-0.9,4.2-0.5l0-0.5c-0.7-0.2-1.4-0.5-2.2-0.8
				c0.3-0.1,0.6-0.1,1.1-0.3c-1.6-0.5-2.9-0.9-4.3-1.3c2.1,0,3.9,1.1,6.4,1.1c-3.2-1.3-6.5-1.6-9.2-3.2c3.6,1.1,7.2,2.1,11.1,3
				c-0.5,0.1-0.8,0.2-1.3,0.3c0.2,0.1,0.3,0.2,0.3,0.2c4.7,0.1,9.2,1.6,13.9,2.3c8.8,1.3,17.6,3.2,26.5,4.2
				c4.2,0.5,8.3,0.7,12.5,1.1c1,0.1,2.4-0.1,2.7,1.5C117.2,137.9,118.1,137.9,119.1,137.9z M132.8,137.5c-3.2-0.6-6.5-0.1-9.7-1.1
				c0-0.2,0.1-0.4,0.1-0.6c3.2,0.3,6.5,0.6,9.7,1C132.9,137.1,132.9,137.3,132.8,137.5z M134.3,135.3c-0.5-1.3-1.4-2.4-1.8-3.8
				c-0.3-1.1-1.1-1.4-2.1-1.2c-1.1,0.3-0.9,1.2-0.7,1.9c0.3,1,0.7,1.9,1.1,2.8c0.2,0.4,0.4,1.1-0.3,1c-1.7-0.4-3.6,0.2-5.2-0.9
				c-2.1,0.7-3.3,0.2-4.1-1.8c-0.4-1-0.8-2.1-1.3-3.1c-0.5-1-1.2-1.9-2.5-1.3c-1.2,0.6-1.2,1.6-0.8,2.7c0.3,1,1.4,2.2,0.9,2.9
				c-0.6,0.8-1.9-0.2-3-0.1c-0.3,0-0.6-0.1-0.8,0.1c1.3,0.5,2.6,0.6,3.9,0.7c0.7,0,1.5-0.1,2.3,0.9c-1.9-0.1-3.4-0.2-5-0.4
				c-3.3-0.3-6.5-0.6-9.8-0.9c-5.5-0.5-10.9-1.3-16.4-2.2c-4.9-0.8-9.8-1.5-14.5-2.9c-6.8-2-13.3-4.5-19.5-7.9
				c-0.9-0.5-0.2-1.3-0.9-1.6c-0.7-0.3-1.3-0.7-1.9-1.1c1.8,0.4,3.2,1.8,5.1,2.1c-1.2-1.3-2.9-1.6-4.3-2.5c-0.8-0.5-1.8-0.7-2.3-1.5
				c-0.7-0.5-1.7-0.6-1.7-1.7c-0.2-0.6,0-0.9,0.6-0.6c1,0.6,2.1,0.6,3.2,0.9c0-0.1,0-0.2,0-0.2c-0.3-1.2-1.4-1.4-2.2-1.9
				c-0.6-0.4-1.3-0.7-1.8-1.2c-0.5-0.5-1-0.7-1.7-0.8c-1.1-0.1-1.7-0.7-1.8-2c0.9,0.1,1.8,0.3,2.7,0.4c1.3,0,2.2,1.2,3.6,1.3
				c-0.6-1.2-1.7-1.4-2.4-2.1c-2.1-0.5-3.9-1.6-5.8-2.9c1.5-0.5,2.3,1.1,3.6,0.5h0.8c0-0.1,0.1-0.2,0.1-0.3
				c-1.1-0.6-2.2-1.2-3.4-1.9c1.1-0.2,1.9,0.4,2.8,0.6c1.6-0.5,2.7,0.9,4,1.3c1.9,0.7,3.8,1.6,5.7,2.2c-1-1-2.3-1.3-3.5-1.9
				c-1.3-0.7-1.4-0.6-1-2.2c2.1,0.9,4.2,1.7,6.4,2.7c-0.4,0.2-0.7,0.4-0.9,0.6c-0.7,0.6-0.9,0.9,0.2,1.5c5,2.5,10.5,3.9,15.5,6.5
				c2.7,1.4,5.7,1.5,8.4,2.9c0.3,0.2,0.6,0.3,0.6,0.7c1,0.2,1.8,1,2.9,0.7c2,0,3.9,0.7,5.7,1.5c1.5,0.6,4.4,2,6,1.9
				c0.1,0,0.2-0.1,0.3-0.2c-0.2-0.1-0.5-0.2-0.7-0.3c1.6,0.3,3.2,0.1,4.6,1c0.4,0.2,0.7,0.1,1.1,0.1c0.8,0.1,1.7-0.2,2.2,0.8
				c0.2,0.3,0.6,0.3,0.9,0.2c1.9-0.6,2.5,0.7,3.1,2.1c0.8,1.9,1.7,3.8,2.5,5.7c0.5,1.3,1.2,2.3,2.8,1.4c-3.8-1.9-3.5-6.3-5.8-9.3
				c1.4,0,1.2,1,1.9,1.5c-0.2-1-0.1-1.4,1.1-1.1c3.1,0.6,6.3,1,9.5,1.4c0.5,0.1,0.7,0.6,1.1,0.7c1.4-0.8,2.9,0,4.3,0.1
				c2.7,0.3,5.5,0.8,8.2,0.9c0.8,0,1.2,0.3,1.6,1.1c0.9,2.2,2,4.3,3.1,6.5c-1.3,0.2-2.5-0.1-3.7-0.2
				C134.7,136.1,134.5,135.7,134.3,135.3z M136,137.1c3.7-0.1,7.5-0.5,11,0.8C143.4,137.4,139.6,138.3,136,137.1z M150.3,137.5
				c3.7,0,7.4-1.1,11-0.4C157.6,137.3,153.9,138.5,150.3,137.5z M161.4,133.5c-0.4-0.7-0.8-1.4-1.4-1.9c-0.7-0.5-1.4-0.5-2,0
				c-0.6,0.4-0.6,1.1-0.3,1.7c0.4,1,0.9,1.9,1.5,3c-0.4,0.1-0.5,0.1-0.6,0.1c-4.6,0.2-4.6,0.2-6.7-3.9c-0.4-0.7-0.7-1.6-1.7-1.9
				c1,1.9,1.9,3.8,3,5.8c-1.5,0.1-2.8,0.1-4.2,0.2c-0.5,0-0.6-0.3-0.8-0.7c-0.6-1.3-1.2-2.6-1.9-3.8c-0.6-1-1.5-1.8-2.6-1.2
				c-1.2,0.6-0.8,1.7-0.4,2.7c0.3,0.9,0.8,1.7,1.3,2.7c-1.6,0.4-3,0-4.4,0.1c-0.3,0-0.5-0.3-0.6-0.5c-1.2-2.2-2.3-4.5-3.6-6.9
				c3.6,0.1,6.8,0.5,10.1,0.8c4.6,0.4,9.2,0.3,13.8,0.2c2.2,0,3.7,0.4,4.5,2.6c0.4,1,1.1,1.9,1.6,3C162.9,136,162.9,136,161.4,133.5
				z M189.6,147.1c8.5,3.9,16.9,7.9,25.4,11.8c0.6,0.3,1.5,0.3,1.6,1.3c2.4-0.2,4,0.8,4.3,2.6c-0.8-0.2-1.1-0.8-1.7-1.2
				c-1.2,1.7-2.9,1.4-4-0.7c-0.1,0.2-0.3,0.5-0.3,0.5c-6.3-2.9-12.5-5.9-18.7-8.8c-2-0.9-3.9-2.3-6.1-2.6c-0.7-1.1-2-1.3-3-1.8
				c-6.6-3.5-13.1-6.9-19.8-10.4c1.8-0.5,1.8-0.4,3.9,0.5C177.2,141.3,183.4,144.2,189.6,147.1z M164,137.1c0-0.3,0-0.6,0-1h9.9
				c0,0.2,0,0.4,0,0.6C170.6,136.6,167.3,137.2,164,137.1z M173.6,133.1c-0.4-0.6-0.7-1.3-1.1-1.9c-0.5-0.8-1.4-0.8-2.1-0.5
				c-0.8,0.3-0.5,1.2-0.3,1.8c0.3,0.9,0.8,1.8,1.3,2.7c-1.5,0.6-2.9,0.1-4.3,0.5c-0.4,0.1-0.4-0.3-0.5-0.5c-1-1.6-1.9-3.3-3-5.1
				c1.9,0,3.6,0.1,5.3,0c1.8-0.1,3.6-0.3,5.4-0.5c0.6-0.1,0.8,0.2,1,0.6c0.8,1.5,1.6,3,2.4,4.5C175.2,135.4,174.8,135.3,173.6,133.1
				z M178.7,136.1c-0.5,0-1.2-0.2-0.9,0.7c-0.5-0.2-0.8-0.7-1.2-1.3c3.1-0.4,6-0.8,9-0.5C183.3,135.7,181,136.1,178.7,136.1z
				 M185.1,131.9c-0.3-0.7-0.7-1.4-1.2-2c-0.4-0.5-1-0.8-1.7-0.5c-0.7,0.4-0.6,1.1-0.3,1.6c0.4,0.8,0.9,1.6,1.3,2.4
				c0.4,0.7,0.2,1-0.6,1c-0.1,0-0.1,0-0.2,0c-4.5,0.3-5,0-6.8-5c3.4-0.6,6.9-0.6,10.4-1.4c0.6-0.1,0.9,0.2,1.2,0.7
				c0.7,1.3,1.4,2.6,2.1,3.9c0.4,0.7,0.4,1-0.6,1.1C187,133.9,185.8,133.5,185.1,131.9z M242.1,157.9c0.4,1.5-0.2,1.3-1,0.9
				c-7.8-3.5-15.6-7-23.4-10.4c-8.4-3.7-16.6-7.8-24.7-12.2c-0.5-0.3-1-0.5-1.5-0.9c1.7-1.2,2.6,1.2,4,0.9c0,0,0,0,0,0
				c2,1.5,4.4,2.3,6.7,3.3c12.9,5.8,25.8,11.4,38.7,17.2c0.9,0.4,1.9,0.7,2.2,2.1C242.7,158.4,242.5,158.2,242.1,157.9z
				 M200.2,136.1C200.2,136.1,200.2,136.1,200.2,136.1c2.1,1.5,4.6,2.4,7,3.4c12.3,5.4,24.6,10.8,36.9,16.2c0.5,0.2,1,0.4,1.6,0.6
				c1.1,0.4,2,1.1,1.9,2.9c-0.5-1.9-1.7-0.9-2.6-1.3c-5.9-2.7-11.8-5.3-17.7-7.9c-10.2-4.5-20.3-9.1-30.5-13.6
				c-0.4-0.2-0.8-0.4-1.3-0.3c-0.3-0.8-1.3-0.5-1.7-1.1c1-0.7,2-0.5,3-0.1C197.9,135.4,198.9,136.1,200.2,136.1z M188,134.5
				c3.5-0.4,6.8-1.7,10.4-1.3C195,133.8,191.6,134.8,188,134.5z M197.9,129.7c-0.2-0.4-0.5-0.9-0.7-1.3c-0.3-0.7-0.7-1.2-1.6-0.8
				c-0.8,0.4-0.9,1-0.6,1.8c0.3,0.7,0.6,1.4,1,2.1c0.4,0.7,0.2,1-0.5,1.2c-0.9,0.2-1.9,0.2-2.8,0.4c-0.8,0.2-1.1-0.3-1.4-0.9
				c-0.8-1.3-1.1-3-2.4-4.1c0.2-0.5,0.5-0.6,1-0.7c2.7-0.4,5.3-0.9,8-1.3c1.1-0.2,1.9-0.1,2.4,1.2c0.5,1.4,1.3,2.6,2,3.9
				C199.7,132.2,199.2,132.1,197.9,129.7z M200.1,132.4c3.6-0.7,7.2-1.5,10.8-2C207.4,131.4,203.9,133.1,200.1,132.4z M268.4,154.3
				c-13.2-5.4-26.3-10.8-39.5-16.2c-4.8-2-9.6-3.9-14.4-5.9c-0.7-0.3-1.3-0.7-2.1-0.6c0-0.4-0.6-0.3-0.5-0.7
				c5.3-0.2,9.6,2.7,14.2,4.6c14.6,5.9,29.2,11.7,43.7,18c1.6,0.7,3.3,1.4,5,2c0.9,0.3,1.4,0.8,1.4,2
				C273.5,156.5,271,155.4,268.4,154.3z"/>
			<path class="st0" d="M39,109.4c0.1,0,0.1,0,0.2,0c0,0,0,0,0.1-0.1C39.1,109.4,39,109.4,39,109.4c-0.1-0.4-0.4-0.4-0.7-0.3
				c0-0.1,0-0.1,0.1-0.2c0,0,0-0.1,0-0.1c0,0.1,0,0.2,0,0.2C38.5,109.1,38.8,109.2,39,109.4z"/>
			<path class="st0" d="M40.5,141.9c-0.1-0.1-0.3-0.1-0.4-0.2c0,0.1,0,0.1,0,0.2C40.2,141.8,40.3,141.8,40.5,141.9
				c0,0.1,0,0.3,0.2,0.3c0,0,0.1,0,0.2-0.1C40.7,142,40.6,141.9,40.5,141.9z"/>
			<path class="st0" d="M167.3,66.4c0.1-0.1,0.1-0.2-0.1-0.2c-0.1,0-0.2,0.1-0.3,0.1c0,0.1,0,0.2,0.1,0.3
				C167.2,66.6,167.2,66.5,167.3,66.4z"/>
			<path class="st0" d="M39.9,135.2c0,0,0,0.1,0,0.1c0,0,0.1,0,0.1,0c0.1-0.1,0.1-0.1,0-0.2C40,135.2,40,135.2,39.9,135.2z"/>
			<path class="st0" d="M35.7,99.2c0,0-0.1,0-0.1,0c0,0,0,0.1,0,0.1c0,0,0.1,0,0.1,0C35.7,99.2,35.7,99.2,35.7,99.2z"/>
			<path class="st0" d="M187.4,167.3c0.5,0.2,1.4-0.4,1.5,0.7c-0.8,0.6-0.1,1.1,0.1,1.6c0.6,1.5,0.4,1.9-1.2,1.9
				c-1.1,0-1.6,0.2-1.5,1.4c0.1,0.7-0.1,1-0.9,1c-4.4,0-8.8,0-13.2-0.2c3.9-1,7.9-0.4,11.9-0.4c-4-0.6-8-0.2-12.1-0.7
				c3.4,0,6.8,0,10.2,0c0-0.1,0-0.2,0-0.4c-2.1,0-4.1,0-6.2,0c-1.5,0-2.9,0-4.4,0c-0.4,0-1.1,0.3-1.2-0.5c-0.1-0.8,0.5-0.9,1.1-0.8
				c1,0,2-0.5,2.9,0.3c-2.2-0.8-4.6-0.4-6.9-0.9c2.7,0,5.4,0,8.1,0c0-0.1,0-0.3,0-0.4c-4.4,0-8.7,0-13.1,0c0-0.1,0-0.2,0-0.3
				c2.6,0,5.3,0,7.9,0c-2.4-0.5-4.8,0-7.2-0.8c3.6-1,7.2-0.4,10.8-0.7c-0.1-0.4-0.4-0.5-0.7-0.4c-0.4-0.2-0.8-0.4-1.2-0.6
				c-0.1-0.1-0.2-0.2-0.3-0.3c-0.9-0.7-1.9-1.2-2.9-1.6l0,0c-1.3-0.8-2.6-1.8-4.2-1.9c-0.1-0.2-0.2-0.4-0.3-0.6
				c-0.4-0.2-0.9-0.4-1.3-0.6l0,0c-0.8-0.6-1.6-1.3-2.7-1.4c0,0,0,0,0,0c-0.6-0.6-1.1-0.8-2.1-0.8c-3.7,0.1-7.3,0.1-11,0.1
				c-0.1,0-0.3-0.1-0.4-0.4c3.1,0,6.3,0,9.4,0c0.5,0,1,0,1.5,0c0.2,0,0.4-0.1,0.2-0.3c-0.1-0.2-0.4-0.2-0.5-0.4l0,0
				c-0.5-0.3-1.1-0.6-1.6-0.9c-0.1-0.1-0.1-0.1-0.2-0.2l0-0.1c0.1-0.1,0.2-0.1,0.2-0.2c0.8-0.2-0.2-1.1,0.4-1.1
				c0.4,0,0.9,0.4,1.1,0.7c0.2,0.5,1,0.7,0.8,1.4c-0.1,0.4,0.4,0.5,0.7,0.6c1,0.6,2.1,1.1,3.1,1.6c0.1-0.6-0.7-1.4,0.1-1.5
				c0.6-0.1,1.1,0.9,1.8,1.3c0.9,0.4,0.5,2.3,1.5,2.1c1.2-0.3,1.2,0.9,1.9,1c0.2,0,0.3,0.4,0.5,0c0.1-0.3,0-0.8,0.5-0.7
				c0.4,0.1,0.2,0.6,0.4,0.8c0.3,0.3,0.5,0.8,1,0.6c0.3-0.4-0.1-0.9,0.3-1.2c0.5,0.5,1.4,0.6,1.3,1.6c0,0.3,0.4,0.6,0.6,0.4
				c1.4-1.3,2.1,0.1,3.1,0.7c0.5,0.3,0.9,0.8,1.3,0.9c1.1,0.4,1.7,0.5,2.2,0.7c0.6,0.3,1.3,1.2,2-0.5c-0.1,2.2,1.8,2.4,2.4,3.6
				c0.4-0.3,0-0.8,0.5-1.1c0.1,0.4,0.2,0.7,0.2,1.1c-0.1-0.8,1-0.8,1-1.5c-0.8-0.5-1.8-0.8-2.6-1.6c1.4-0.4,2.3,0.9,3.6,1.1
				c0.7,0.2,1.4,1.3,2,0.7C188.8,168.9,187.8,168.1,187.4,167.3z"/>
			<path class="st0" d="M187.6,140c-0.2-0.4-0.4-0.8-0.6-1.1c0.5-0.2,0.9,0.2,1.3,0.4c3.4,1.8,6.9,3.6,10.4,5.3
				c10.2,5,20.5,9.7,30.8,14.4c1,0.5,2.1,1.4,3.4,0.6c0.9,0.5,1.7,1.3,2.8,1.4c0.4,0.4,0.5,0.8,0.1,1.3c-0.4-0.5-1.5,0.9-1.6-0.5
				c-1.5,0.2-2.1-1.5-3.5-1.5c-0.5,0.8,0.5,1.5,0.1,2.3c-1.2-0.7-2.4,0.1-3.9-0.4c0.5-0.1,0.9-0.2,1.5-0.4c-1.5,0-2.2-1.2-3.5-1.4
				c0.2,0.8,0.4,1.6,0.6,2.3c0.1,0.4,0,0.6-0.4,0.6l0,0c-0.4-0.4-1.1-0.8-1.5-0.6c-1.3,0.7-1-0.2-1-0.9c0.2-0.1,0.7,0,0.6-0.4
				c-0.1-0.3,0-0.9-0.5-0.8c-0.5,0.1-0.7-0.2-0.7-0.6c-0.2-1.4-1.3-1.8-2.4-2.3c-5.1-2.4-10.3-4.7-15.4-7.1
				c-1.8-0.8-3.8-1.3-5.2-2.8l0,0c0.5-0.2,0.9,0.1,1.3,0.3c7.1,3.3,14.2,6.6,21.3,9.7c1.7,0.7,3.2,2.6,5.5,1.9
				c0.1,0,0.6,1.2,1.1,0.2c0.3-0.6-0.1-1.1-0.9-1.5c-2.3-1.3-4.8-2.4-7.2-3.5C209.2,150.1,198.4,145,187.6,140z"/>
			<path class="st0" d="M51.3,158.6c0.1,1.1,0.9,0.9,1.6,1c2.4,0.3,4.7-0.2,7-0.8c1.9-0.5,3.7-0.8,5.6-0.2c0.8,0.2,1.5-0.2,2.3-0.3
				c1-0.1,2.1-0.4,3.1,0.3c-0.9-0.1-1.6,0.1-2.4,0.4c-1.2,0.5-2.5,0-3.7-0.2c-1.5-0.2-2.7,0.3-4.4,0.2c0.8,0.6,1.6,0.2,2.3,0.8
				c-0.8,0-1.5,0.1-2.2,0.1c0.7,0.8,1.7,1,2.6,1.2c1,0.3,2,0.5,3,0.7c1,0.3,2.2-0.3,3.2,0.6c-3.4-0.1-6.6-0.5-9.7-1.7
				c-0.8-0.3-1.5-0.4-2.3-0.1c-2.3,0.8-4.5,0.6-6.8,0.1c2.1-0.5,4.3,0.3,6.3-0.7c-2.6,1-5.2-0.6-7.8,0.2c-0.4,0.1-0.8,0.1-1.2,0
				c-1.8-0.7-3.2,0-4.3,1.3c-0.6,0.7-1.2,0.6-2,0.6c-2.2,0-4.5,0.1-6.7-0.3c2.4-0.4,4.9,0.2,7.6-0.7c-1.1-0.1-1.9-0.1-2.8-0.2
				c1.3-0.4,2.6-0.2,4.1-0.9c-2.5,0-4.6,0-6.8,0c3.1-0.1,6.2-0.6,9.4-0.7C47.9,159.6,49.8,160.2,51.3,158.6L51.3,158.6z"/>
			<path class="st0" d="M192.4,167.8c-0.5-0.3-0.3-1-0.7-1.4l0,0c1,0.3,2,1,3.1,0.3c0.1,0.6,0.3,1.2,0.4,1.8
				c-0.1,0.7,0.7,0.4,0.9,0.9c-0.4,0.1-0.8,0.1-1.6,0.2c1.7,0.2,3,0.2,4.6-0.3c-1,1.2-2.1,0.7-3.2,1c8.2,0.5,16.2,0.8,24.2,1.4
				c8,0.6,16,0.2,23.9,1.4c-2.2,0-4.4,0.2-6.6,0c-4.8-0.4-9.6-0.3-14.3-0.6c-5.9-0.4-11.7-0.8-17.6-1.2c-3-0.2-6.1-0.4-9.1-0.5
				c-2.3-0.1-2.8-0.5-2.9-2.8c0-0.6-0.2-0.8-0.6-0.9C192.3,167.1,192.5,167.6,192.4,167.8z"/>
			<path class="st0" d="M296.1,154.1c-0.7-1-1.8-1.4-2.9-1.8c-9.2-3.7-18.4-7.4-27.7-11.1c-8.1-3.3-16.2-6.5-24.2-9.8
				c-0.6-0.2-1.4-0.2-1.7-1c1.9,0.1,3.5,1.2,5.2,1.8c5,1.9,9.9,4,14.9,6c8,3.3,16.1,6.5,24.1,9.8c1.2,0.5,2.3,0.3,3.5,0.4
				c-0.1,0.7-0.8,0.1-1,0.6c2.8,1.2,5.5,2.6,8.9,1.7c-0.4,1.1-0.9,0.4-1.3,0.5c-0.4,0.1-0.8,0-1.3,0
				C293.5,152.5,296.1,151.6,296.1,154.1z"/>
			<path class="st0" d="M114.5,177.3c2.8-0.2,5.6,0.7,8.4,0.7c3.6-0.1,7-0.7,10.6-1.4c-0.7,1-0.4,1.7,1.2,1.9c3,0.5,5.9,0.8,8.9,0.7
				c0.8,0,1.6-0.1,2.3,0.3c-3,0.3-6.1,0.4-9.1,0.1c-1.7-0.2-3.3-0.6-4.8-1.5c-1.2-0.8-2.5-0.3-3.4,0.1c-2.8,1.5-5.8,1.6-8.7,1.8
				c-4.1,0.3-8.1,0.1-12.2,0c-0.2,0-0.4-0.1-0.6-0.4c3.3,0,6.6,0,9.9,0c-4-0.2-7.9-0.3-11.8-1.2c6.8,0.4,13.6,0.7,20.5,0.2
				C122,178.4,118.2,178.6,114.5,177.3L114.5,177.3z"/>
			<path class="st0" d="M256.4,143.8c5,2.1,10.1,4.2,15.1,6.3c4.5,1.9,9,3.8,13.5,5.7c0.4,0.2,0.8,0.6,1.1,0c0.2-0.5-0.3-0.7-0.7-1
				c-1.4-0.8-3.1-0.9-4.3-2.1c2.1,0.1,3.8,1.3,5.6,2.1c0.3,0.1,0.2,1.4,0.3,2.2c-0.5-0.4-1.2,0.7-1.6-0.4c-0.1-0.3-0.8-0.6-1.3-0.5
				c-0.3,0.5,0.7,1.4-0.1,1.3c-0.6,0-1.8,0.9-2-0.6c0-0.2-0.5-0.4-0.8-0.6c0.1-0.1,0.1-0.1,0.2-0.2c0.7,0.2,1.3,0.5,2.1,0.8
				c0.4-1.1-0.5-1.3-1.1-1.6c-3.8-1.6-7.6-3.2-11.3-4.8c-4.9-2.1-9.8-4.2-14.7-6.3C256.3,144,256.4,143.9,256.4,143.8z"/>
			<path class="st0" d="M169.1,141.9c2.1,0.7,3.9,2,5.8,3c9.7,5.1,19.8,9.4,29.6,14.3c0.8,0.4,1.7,0.5,2.2,1.4
				c-3.7-1.1-7.1-3.2-10.6-4.8c-8.7-4.1-17.4-8.3-26.1-12.5c-0.7-0.3-1.6-0.4-1.8-1.3C168.5,141.9,168.8,141.9,169.1,141.9z"/>
			<path class="st0" d="M93.6,172.6c-4.1,0.4-8,0-11.9-1.4c-0.8-0.3-1.4-0.5-2.2,0c-3.8,2.3-9.3,2.9-13.6,1.4
				c2.7,0.5,5.4,0.4,8.1-0.5c-1.3-0.2-2.7-0.4-4.1-0.6c2.8-0.1,5.7,0.4,8.6-0.3c-0.4-0.6-1.1,0-1.5-0.5c2-0.5,3.8-0.6,5.8,0.2
				c2.9,1.2,6,1.3,9.1,1.3c0.6,0,1.2,0,1.8,0C93.6,172.3,93.6,172.4,93.6,172.6z"/>
			<path class="st0" d="M235.6,161c-1.1,0-1.9-0.9-2.8-1.4c0.2-0.8-0.1-1.3-0.8-1.6c-1.2-0.6-2.3-1.2-3.5-1.7
				c-5.8-2.7-11.8-5.1-17.5-8.1c0.1-0.1,0.1-0.2,0.2-0.3c0.5,0.2,1.1,0.4,1.6,0.6c7.3,3.3,14.5,6.6,21.8,9.9
				c0.5,0.2,1.4,1.1,1.4-0.5c1.1,0.1,1.5,0.8,1.3,1.8c-0.6,0-1.1-0.1-1.8-0.1C235.4,160,235.8,160.5,235.6,161z"/>
			<path class="st0" d="M188,154.5c-2.4-0.5-4.4-1.9-6.6-3c-7.3-3.6-14.5-7.2-21.7-10.9c0.1-0.3,0.3-0.6,0.4-0.9
				c3.4,1.8,6.8,3.7,10.2,5.5c5.4,2.9,10.9,5.5,16.3,8.3C187.2,153.8,187.8,153.8,188,154.5z"/>
			<path class="st0" d="M270.6,168.7c-9.9,0.4-19.8-0.9-30.1-0.5C242.8,167.3,267,167.8,270.6,168.7z"/>
			<path class="st0" d="M164.5,162.6c0.1,0.2,0.2,0.4,0.3,0.6c0,0.1,0,0.1,0.1,0.2c-3.5-0.9-7.1-0.2-10.7-0.3c2,0.1,3.9,0.1,5.9,0.2
				c1.2,0,2.4-0.3,3.5,0.4c-3.4,0-6.9,0.3-10.3-0.2c-0.6-0.1-1.1,0.2-1.6,0.4c-4.9,1.5-9.9,1.8-14.9,1.1c1.4-0.4,2.8-0.2,4.3-0.2
				c4,0,8-0.5,11.8-1.8c1.9-0.7,3.9-0.2,5.9-0.3C160.5,162.6,162.5,162.6,164.5,162.6z"/>
			<path class="st0" d="M205.4,165.7c0.8-0.9,0.8-1.9-0.1-2.7c1.1,0.1,2.2,0.2,3,1c0.3,0.2,0.4,0,0.9-1.4c0.7,1.4,1.5,2.7,2.8,3.6
				c-0.5-0.2-1-0.3-1.5-0.5c-1-0.3-1.7-0.5-1.2,1.1c0.5,1.4-0.9,0.3-1.3,0.8c-0.1,0.1-1.1,0.3-1-0.6c0.1-0.4-0.3-0.3-0.3-0.3
				C205.8,167,205.8,166.1,205.4,165.7z"/>
			<path class="st0" d="M15.3,139.9c4.7,0,9.5,0,14.2,0c0-0.2,0-0.4,0-0.6c-6.2-0.3-12.5,0.8-18.8,0c7.1-0.1,14.2-0.7,21.4-0.3
				c-0.5,0.5-1.1,0.4-1.7,0.6c0.3,0.6,0.9,0,1.4,0.5c-5.6,0-11.1,0-16.6,0C15.4,140.1,15.3,140,15.3,139.9z"/>
			<path class="st0" d="M39.4,152.4c-0.9,0.7-2.1,0.6-3,0.4c-2.1-0.4-4.1,0.1-6.1,0.4c-3.1,0.5-6.1,0.5-9.2-0.2
				c-1.7-0.4-3.5-0.1-5.3-0.3C23.6,152.2,31.5,151.9,39.4,152.4L39.4,152.4z M30,152.5c-1.8,0.1-3.5,0.3-5.3,0.4
				C26.4,153.1,28.2,153.3,30,152.5z"/>
			<path class="st0" d="M228.3,127.3c1.7,0.1,3.1,1,4.5,1.6c7.7,3.1,15.3,6.4,23,9.5c0.5,0.2,1.1,0.4,1.5,0.8
				c-0.7,0.3-1.2-0.1-1.8-0.3c-8.8-3.6-17.5-7.3-26.3-11C228.9,127.8,228.5,127.8,228.3,127.3z"/>
			<path class="st0" d="M235.7,131.9c5.4,2.2,10.7,4.2,16,6.5c4.7,2,9.6,3.7,14.2,6c-0.1,0.1-0.1,0.2-0.2,0.3
				c-6.5-2.7-13-5.3-19.4-8c-3.6-1.5-7.2-3-10.8-4.6C235.5,132.1,235.6,132,235.7,131.9z"/>
			<path class="st0" d="M168.8,176.2c-1.7-0.1-3.5,0.1-5.1-0.4c-2.9-0.8-5.6-0.1-8.4,0.5c-3.4,0.8-6.9,1.1-10.4,0.7
				c2.5-0.2,5.1-0.4,7.5-0.9c1.3-0.3,2.6-0.3,3.8-0.8c4.3-1.8,8.3,0.3,12.5,0.2C168.7,175.8,168.7,176,168.8,176.2z"/>
			<path class="st0" d="M0.3,136.9c8.9-0.6,17.9-0.4,26.8-0.5c0,0.2,0,0.3,0,0.5C18.2,136.9,9.2,136.9,0.3,136.9z"/>
			<path class="st0" d="M197.9,80c-0.3,1.6-2.2,2.1-2.7,3.6c1.5,0.2,2.8-1.2,4.3-0.9c-0.7,0.8-2,0.7-2.7,1.4
				c-2.2,0.6-4.2,1.5-6.1,2.8c-3,0.9-5.5,2.8-8.2,4.1c-0.4,0.2-0.7,0.6-1.3,0.4c0.6-0.8,1.4-1.1,2.1-1.5c3.4-1.9,6.8-3.8,10.3-5.4
				c1.2-0.5,1-1.7,1.6-2.5C196.4,81.8,196.8,80.5,197.9,80z"/>
			<path class="st0" d="M115.4,158.7c-3.4,1.3-6.8,1.6-10.1,1.1c-2.5-0.3-4.9-0.5-7.3-0.1c-2,0.3-4,0-5.8-0.3c-2-0.3-4,0.3-6-0.2
				c-0.1,0-0.2-0.1-0.3-0.2c2.8,0.4,5.5-1.1,8.3,0.1c0.5,0.2,1.1,0.1,1.7,0.1c3.4-0.1,6.9-0.5,10.3,0.2c2.6,0.6,5.3,0,7.8-0.8
				C114.4,158.6,114.8,158.5,115.4,158.7z"/>
			<path class="st0" d="M28.6,163c-0.8-0.3-1.4-0.7-2.3,0c-0.9,0.6-2.1,0.7-3.3,0.5c1.1-0.3,2.2-0.6,3.4-0.9c-1.1-0.7-2-0.5-3-0.2
				c-4,0.9-8,1.2-12.1,0.8c1.3-0.1,2.7-0.2,4-0.3c2.8-0.3,5.7-0.3,8.5-1.1c1.2-0.4,2.4,0.2,3.7,0.3c1.7,0.2,3.5,0,5.5,0
				c-1.2,1.1-2.3,0.6-3.4,0.7C29.3,162.6,28.6,162.1,28.6,163L28.6,163z"/>
			<path class="st0" d="M41.7,166.1c1.7-0.3,3.3-0.5,5.2-0.8c-1.6-1-2.9,0.6-4.3-0.1c3.7-1.7,7.2,0.3,10.8,0.2
				c-1.8,0.7-3.6-0.1-5.3,0.1c3.3,0.8,6.7,0.9,10.1,1c-3.2,0.3-6.4,0.5-9.5-0.3c-1.2-0.3-2.4-0.5-3.6-0.1
				C44,166.6,42.9,166.5,41.7,166.1z"/>
			<path class="st0" d="M33.9,145.8c-9.8,1-19.5,0.2-29.3,0.6C14.3,145.8,24.1,146.2,33.9,145.8z"/>
			<path class="st0" d="M124.3,173.5c-6.3,0.9-12.6,0.9-19,0.1c-2.6-0.3-5.2,0.6-7.8,0.9c-0.2,0-0.4,0.3-0.8-0.2
				c2-0.4,3.9-0.7,5.7-1.3c2.4-0.8,4.7,0.2,7,0.5c4.1,0.4,8.1,0.3,12.1,0.1C122.4,173.6,123.4,173.6,124.3,173.5z"/>
			<path class="st0" d="M253.3,171c-7.9,0.4-15.7-0.7-23.6-0.8C237.6,170,245.5,170.3,253.3,171z"/>
			<path class="st0" d="M0.5,141.1c10.5-0.1,21-0.4,31.5-0.5C21.5,141.4,11,141.2,0.5,141.1z"/>
			<path class="st0" d="M190.8,171.5c7.9,0.3,15.9,0.2,23.8,1.3c-7.9-0.3-15.9-0.5-23.8-0.8C190.8,171.8,190.8,171.7,190.8,171.5z"
				/>
			<path class="st0" d="M0,137.5c10.8,0,21.5,0,32.3,0c0,0.1,0,0.2,0,0.4c-10.8,0-21.5,0-32.3,0C0,137.7,0,137.6,0,137.5z"/>
			<path class="st0" d="M201.9,78c0.3-1.5,1.5-2.4,2.2-3.7c0.3-0.6,0.9-1,0.9-1.7c0-0.8,0.4-1.5,0.9-2.1c2.6-2.6,4.9-5.5,7.1-8.5
				c0.2-0.3,0.6-0.5,0.9-0.7c-0.6,1.9-2.1,3.3-3.3,4.7c-3.1,3.6-5.2,7.8-8,11.5C202.3,77.7,202.2,78,201.9,78z"/>
			<path class="st0" d="M172.2,167c0.4,0.2,0.8,0.4,1.2,0.6c-2.5,0.5-5,0.3-7.5,0.2c-3.6-0.2-7.1-0.3-10.7,0.1
				c-2.2,0.2-4.5,0.1-6.6-0.7c3.6,0.4,7.3,0.5,10.8-0.3l0,0c0.6,0.4,1.3,0.3,2,0.3c2.3,0,4.6-0.1,6.9,0.2
				C169.6,167.6,170.9,167.2,172.2,167z"/>
			<path class="st0" d="M28.5,163c2-0.3,4,0.8,5.9,0.2c2.1-0.7,4.2,0.3,6.2-0.4c-0.6,0.6-1.4,0.9-2.2,0.9c-1.3,0-2.6,0.1-3.9,0
				c-4.5-0.6-8.6,1-12.9,1.6c-0.7,0.1-1.3,0.3-2.2-0.2c2.4-0.4,4.5-0.8,6.6-1.1C26.9,163.9,27.8,163.6,28.5,163L28.5,163z"/>
			<path class="st0" d="M26.3,169.9c8.4,0.4,16.7,2.5,25.5,0.8C49.3,172.9,33.3,171.5,26.3,169.9z"/>
			<path class="st0" d="M292.7,142.2c-7.2,0-14,0-20.8,0C272.8,141.6,290.2,141.5,292.7,142.2z"/>
			<path class="st0" d="M135.4,167.8c3.9-0.3,7.8-1,11.7-0.9c-3.7,1.6-7.6,1.6-11.5,1.7c2-0.3,4-0.7,6.1-0.8
				C139.5,167.8,137.5,167.8,135.4,167.8z"/>
			<path class="st0" d="M169,165.1c-0.5,0.4-1.1,0.3-1.6,0.3c-3.8,0-7.6,0-11.5,0c0.7-0.9,1.6-0.1,2.2-0.7c-1.3-0.6-2.7,0.1-4.2-0.6
				c4.5-0.5,8.8,0.2,13,0.5c-2.6,0-5.1,0-7.7,0c0,0.2,0,0.3,0,0.5C162.5,165.1,165.8,165.1,169,165.1C169,165.1,169,165.1,169,165.1
				z"/>
			<path class="st0" d="M52.3,172.2c-7.4,1.3-14.7,0.6-22-0.5C37.6,172,45,173.1,52.3,172.2z"/>
			<path class="st0" d="M47.2,175.2c3,0.6,6.1,0.6,9.2,1c-2.4,0.4-4.8,0.5-7.2,0c-2.4-0.5-4.9,0.1-7.3,0
				C43.6,175.7,45.3,174.9,47.2,175.2L47.2,175.2z"/>
			<path class="st0" d="M30.9,147.8c-7.2,0.6-14.3,1-21.5,0C16.6,148.5,23.8,147.7,30.9,147.8z"/>
			<path class="st0" d="M290.2,155c-0.9,0-0.4,0.6-0.3,0.9c0.2,0.7-0.2,0.7-0.6,0.6c-0.4,0-1,0.5-1.2-0.2c-0.2-1.1,0.5-0.8,1.1-0.5
				c0.1-1-0.6-1.3-1.3-1.5c-4.5-1.8-9-3.6-13.3-5.8c0-0.1,0.1-0.1,0.1-0.2c3.4,0.9,6.4,2.7,9.6,3.9c2,0.8,4,1.7,6,2.5
				C290.4,154.8,290.3,154.9,290.2,155z"/>
			<path class="st0" d="M37.3,150.4c0.1,0.7-0.4,0.7-0.8,0.7c-6.9,0.5-13.8,0.9-20.7,0.7c0,0-0.1-0.1-0.3-0.2
				c0.5-0.4,1.1-0.3,1.7-0.3c3.1,0,6.2,0,9.3,0C30.2,151.4,33.7,150.1,37.3,150.4L37.3,150.4z"/>
			<path class="st0" d="M85.7,168.8c1-0.6,2-0.8,3.4-0.3c2.2,0.9,4.5,0.7,6.8-0.1c0.9-0.3,1.6-0.4,2.6,0c1.9,0.8,3.9,0.8,5.9,1.3
				C98.2,168.5,91.9,169.8,85.7,168.8z"/>
			<path class="st0" d="M281.1,146c8.6,0,17.2,0,25.9,0c0,0.1,0,0.1,0,0.2c-8.6,0-17.2,0-25.8,0C281.2,146.2,281.2,146.1,281.1,146z
				"/>
			<path class="st0" d="M36,148.7c-1.7,0.7-3.6,0.5-5.4,0.7c-5.1,0.5-10.2-0.3-15.3,0.7c-0.3,0-0.5-0.1-0.8-0.2
				C21.6,148.6,28.8,149.1,36,148.7L36,148.7z"/>
			<path class="st0" d="M308.1,139.3c-6.8,0.3-13.6,0.3-20.3-0.3C294.6,138.6,301.4,139.5,308.1,139.3z"/>
			<path class="st0" d="M8.6,138.8c7.8-0.9,15.7-0.6,23.6-0.4C24.3,138.6,16.5,138.4,8.6,138.8z"/>
			<path class="st0" d="M208.2,174.4c-6.7,0-13.5-0.6-20.2-0.8C194.7,173.5,201.5,173.7,208.2,174.4z"/>
			<path class="st0" d="M202.6,169.4c6,0.6,12.1,0.1,18.1,1.4c-6-0.3-12-0.6-18.1-0.9C202.6,169.8,202.6,169.6,202.6,169.4z"/>
			<path class="st0" d="M85.1,177.6c5.2,0.9,10.3-0.1,15.4-0.6C97.6,178.6,87.7,179,85.1,177.6z"/>
			<path class="st0" d="M281.2,152.8c-1.8-0.1-3.3-1.1-4.8-1.8c-3.6-1.5-7.2-3.1-10.8-4.7c-0.6-0.3-1.3-0.5-1.7-1
				c2.4,0.4,4.4,1.6,6.6,2.5c3.4,1.4,6.7,2.9,10,4.4C280.7,152.4,281.1,152.4,281.2,152.8z"/>
			<path class="st0" d="M149.7,174.7c-1.7,1.1-3.7,0.7-5.8,1c1.1,0.4,2.2-0.1,3.1,0.6c-3.3,0.5-6.4-0.9-9.6-1.2
				C141.5,175.4,145.6,175.4,149.7,174.7z"/>
			<path class="st0" d="M287.3,143.2c3.9,0,7.8,0,11.6,0c3.9,0,7.8,0,11.7,0c0,0.1,0,0.2,0,0.3c-7.8,0-15.5,0-23.3,0
				C287.3,143.4,287.3,143.3,287.3,143.2z"/>
			<path class="st0" d="M64.6,173.5c-4.8,0.6-9.6,1.7-14.4-0.3C55,175,59.8,172.8,64.6,173.5z"/>
			<path class="st0" d="M271.9,145.3c0.9-0.2,1.5,0.3,2.2,0.6c3.9,1.6,7.9,3.2,11.8,4.9c0.6,0.2,1.3,0.4,1.7,1
				c-3.5-0.7-6.6-2.5-9.8-3.8C275.8,147.2,273.7,146.7,271.9,145.3z"/>
			<path class="st0" d="M136.7,161.3c2.1-0.7,4.3-1,6.5-0.7c1.3,0.2,2.5,0.5,3.8,1c-3.7-1.1-7.2,0.1-10.7,0.9
				C136,161.8,136.9,161.8,136.7,161.3L136.7,161.3z"/>
			<path class="st0" d="M53.2,170.8c2.8-0.2,5.2,0.1,7.6-0.3c0.9-0.2,1.9-0.4,2.7-0.9c1.1-0.6,1.8-0.1,3,0.7
				C62,170.5,57.9,172.3,53.2,170.8z"/>
			<path class="st0" d="M263.8,145.3c-4.4-1.2-8.5-3.2-12.7-5c-1.3-0.5-2.7-0.8-3.7-1.8c2.8,0.6,5.2,2,7.8,3.1
				C258.1,142.8,261.2,143.6,263.8,145.3z"/>
			<path class="st0" d="M287.3,140.4c5.3,0,10.7,0,16,0c0,0.1,0,0.2,0,0.3c-5.3,0-10.7,0-16,0C287.4,140.6,287.3,140.5,287.3,140.4z
				"/>
			<path class="st0" d="M287.6,151.8c2.3,0.4,4.4,1.1,6.3,2.4c-0.2,0.2-0.9-0.1-0.7,0.4c0.2,0.6,0.2,1.4,1.2,1.6
				c0.9,0.1,1.7-0.3,2.6-0.4l0,0c-1,1.5-2.4,0.7-3.6,0.6c-0.7-0.1-1.3-0.6-2.1-0.3c-0.9,0.3-0.6-0.9-1.1-1.1
				c0.1-0.1,0.1-0.2,0.2-0.2c0.7,0.3,1.5,0.5,2.3,0.8c0-1.1-0.3-1.6-1.3-2C290.2,153,288.7,152.8,287.6,151.8z"/>
			<path class="st0" d="M273.7,165.1c-6.1-0.3-12.2-0.5-18.2-0.8c6.1-0.5,12.2,0.1,18.2,0.4C273.7,164.8,273.7,164.9,273.7,165.1z"
				/>
			<path class="st0" d="M163.2,162c-0.5,0.5-1.2,0.3-1.8,0.3c-3.4,0-6.8-0.1-10.2,0c-2.3,0.1-4.6,0.8-7,0.8c-0.3,0-0.5,0.2-0.9-0.2
				C150,161.7,156.6,161.8,163.2,162C163.2,162.1,163.2,162,163.2,162z"/>
			<path class="st0" d="M133.2,169.7c-1.5-0.4-3,0.2-4.5,0.3c-1.8,0.2-3.7,0.3-5.5,0c2.6-0.3,5.2,0.1,7.7-0.7
				c3.2-1.1,5.6,0.6,8.2,1.9l0,0c-1.5,0.1-2.8-0.8-4.1-1.3c-0.6-0.2-1.1-0.5-1.7,0L133.2,169.7z"/>
			<path class="st0" d="M49.1,168.7c-5.4,1.9-11,1.2-16.5,0.6C38.1,169,43.6,170.2,49.1,168.7z"/>
			<path class="st0" d="M261.4,158.4c0.3-0.6,0.5-1.2,0.1-1.9c0-0.3,0-0.5,0-0.8c1.2,0.6,2.8,0.6,3.8,1.7c-0.1,0.1-0.1,0.1-0.2,0.2
				c-0.7,0.2-2.4-1.4-1.7,1c0.2,0.6-0.3,0.6-0.7,0.6c-1,0-2,0-3.2,0c0.7-0.6,1.4-0.2,1.9-0.4C262.1,158.6,261.3,158.5,261.4,158.4z"
				/>
			<path class="st0" d="M250.5,166.2c5.6-0.5,11.1,0.4,16.7,0.3C261.6,167,256.1,166.6,250.5,166.2z"/>
			<path class="st0" d="M195.2,168.5c-0.1-0.6-0.3-1.2-0.4-1.8c0-1.1-1.2-1.3-1.7-2c1.3,0.5,2.7,1,4,1.6c0.1,0,0.1,0.4,0.1,0.6
				c-1,0-0.3,0.6-0.3,0.9c0,0.4,0.6,0.8,0.2,1.2c-0.4,0.4-0.9-0.1-1.3-0.3C195.6,168.6,195.4,168.6,195.2,168.5z"/>
			<path class="st0" d="M276.3,163.3c-5.2-0.3-10.3-0.5-15.4-0.7C262.8,162,274.5,162.5,276.3,163.3z"/>
			<path class="st0" d="M99.9,164.6c1.3-0.5,2.4-0.6,3.6-0.7c-2.2-0.4-4.3-0.1-6.5-0.5c1.4,0,2.9-0.1,4.3,0c1.1,0.1,2.1-0.5,3.2-0.4
				c0.4,0,1-0.1,1.1,0.5c0.1,0.7-0.5,0.5-0.9,0.7C103.2,164.5,101.7,164.9,99.9,164.6z"/>
			<path class="st0" d="M228.7,164.6c4.7-1,9.2-0.1,13.8,0.7C237.9,165.2,233.3,164.4,228.7,164.6z"/>
			<path class="st0" d="M285.1,139.1c-5.1,0-10.3,0-15.4,0c0-0.2,0-0.3,0-0.5C274.8,138.9,280,138.8,285.1,139.1z"/>
			<path class="st0" d="M276.1,159.6c4.4,0,8.8-0.2,13.6,0.5c-4.8,0-9.2,0-13.6,0C276.1,159.9,276.1,159.8,276.1,159.6z"/>
			<path class="st0" d="M32.3,141.7c-4.9,0.4-9.9,0.1-14.9,0.5c0-0.2,0-0.3,0-0.5C22.4,141.7,27.4,141.7,32.3,141.7z"/>
			<path class="st0" d="M0.8,140.3c2.8,0.2,6.7-0.7,10.7,0C7.5,140.3,3.6,140.3,0.8,140.3z"/>
			<path class="st0" d="M44.6,167.1c-4.8,1-9.6,1-14.2-1C35,167.5,39.8,167.5,44.6,167.1z"/>
			<path class="st0" d="M156.1,160.6c1.5-0.2,3-0.2,4.5,0.1c0,0,0,0,0,0c-3.9,0.9-7.8,0.8-11.7,0.8
				C151.2,161.1,153.7,161.3,156.1,160.6L156.1,160.6z"/>
			<path class="st0" d="M81.6,163.2c-4.5,1.4-9.1,0.9-13.6,0c1.2-0.5,2.4-0.1,3.5,0.1c3.1,0.5,6.1,0.4,9.1-0.3
				C80.9,163,81.2,163.1,81.6,163.2L81.6,163.2z"/>
			<path class="st0" d="M8.6,153.9c3.9-0.4,7.9,0.3,11.7-0.7C16.5,154.8,12.6,154,8.6,153.9z"/>
			<path class="st0" d="M306.6,149.9c-5,0-10,0.3-15,0C296.6,149.9,301.6,149.9,306.6,149.9z"/>
			<path class="st0" d="M156.1,158c-0.1,0.1-0.2,0.4-0.3,0.4c-3.7,0.5-7.4,0.1-11.1,0c0-0.1,0-0.3,0-0.4c1.4,0,2.7,0,4.1,0
				c1.4,0,2.8,0.2,4.2,0.2c1,0,2,0.3,2.9-0.4C156,157.9,156.1,157.9,156.1,158z"/>
			<path class="st0" d="M239,135.1c-3.1-0.6-5.7-2.1-8.6-3.3c-1-0.4-2.2-0.6-3-1.5c2.7,0.6,5.2,1.9,7.7,3
				C236.4,133.9,237.9,134.1,239,135.1z"/>
			<path class="st0" d="M172.2,167c-1.3,0.2-2.6,0.6-4,0.2c-0.4-0.6-1-0.5-1.5-0.5c-2.5,0-4.9,0-7.4-0.1l0,0
				c0.5-0.6,1.1-0.4,1.7-0.4c3.6-0.2,7.2,0.4,10.8,0.4C172,166.8,172.1,166.9,172.2,167z"/>
			<path class="st0" d="M62.6,166.8c-4.1,1.3-8.3,1.2-12.5,0.4C54.3,167.4,58.5,167.8,62.6,166.8z"/>
			<path class="st0" d="M33,142.7c-1.6,0.6-3.2,0.2-4.8,0.3c-3.1,0.1-6.2,0-9.3,0c0-0.1,0-0.3,0-0.4c1.1,0,2.2,0,3.4,0
				c3,0,6.1-0.1,9.1-0.1C31.9,142.5,32.5,142.3,33,142.7C33,142.7,33,142.7,33,142.7z"/>
			<path class="st0" d="M277.3,161.2c3.9-0.4,7.7-0.2,11.4,0.3c0,0.1,0,0.3,0,0.4C284.9,161.7,281.1,161.5,277.3,161.2z"/>
			<path class="st0" d="M223.9,169.8c-4.1-0.2-8.1-0.5-12.2-0.7C215.9,168.7,219.9,169.3,223.9,169.8z"/>
			<path class="st0" d="M16.9,166.6c4.3,0.1,8.5-0.6,12.8-0.9C25.5,166.7,21.3,166.9,16.9,166.6z"/>
			<path class="st0" d="M240.2,166.6c-3.1,0.3-6.2-0.1-9.3-0.7C234,165.7,237.1,166.2,240.2,166.6z"/>
			<path class="st0" d="M23,156.3c-4.4,0.5-8.7,0.8-13.1,0.3C14.2,156.8,18.6,155.9,23,156.3z"/>
			<path class="st0" d="M298.3,159.1c-4-0.2-8-0.2-12-0.4C290.4,158.5,294.4,158.5,298.3,159.1z"/>
			<path class="st0" d="M202,166.4c0.1,0.1,0.2,0.2,0.2,0.4c-0.3,0.1-0.9,0.2-0.9,0.3c-0.2,2.4-2.1,1.1-3.2,1.3
				c-1.2,0.2-0.1-0.9-0.4-1.3c0.9,0.3,2,1.2,2.3-0.7c0.3,0,0.6,0,0.9,0c0.2,0,0.3,0,0.5,0C201.7,166.4,201.8,166.4,202,166.4z"/>
			<path class="st0" d="M44.1,163.5c2.8-0.1,5.7,0.5,8.5,0.3C49.7,164.8,46.9,164.1,44.1,163.5z"/>
			<path class="st0" d="M123.5,164.8c-3.5,0.3-7,0.4-10.4-0.2C116.6,164.3,120.1,164.9,123.5,164.8z"/>
			<path class="st0" d="M297,155.8c1.5-0.4,3-0.3,4.5-0.3c2.6,0.1,5.2,0.6,7.9,0.5C305.3,156.3,301.1,156,297,155.8
				C297,155.7,297,155.8,297,155.8z"/>
			<path class="st0" d="M276.5,161.1c-3,0.6-6-0.1-9,0C270.5,160.2,273.5,161.1,276.5,161.1z"/>
			<path class="st0" d="M77.1,158.6c0.5-0.1,1.1-0.1,1.9-0.2c-2.4-0.9-4.4-0.3-6.5-0.3c2.8-0.7,5.5-0.7,8.3-0.2
				C79.7,158.7,78.6,159.3,77.1,158.6z"/>
			<path class="st0" d="M314.4,140.9c-3.5,0-6.9,0-10.4,0c0-0.1,0-0.2,0-0.3c3.5,0,6.9,0,10.4,0
				C314.4,140.6,314.4,140.8,314.4,140.9z"/>
			<path class="st0" d="M32.7,165.5c3.1-0.4,5.7-1.3,8.6-0.7C38.5,165.4,35.9,166.1,32.7,165.5z"/>
			<path class="st0" d="M251.1,164.5c-3.6,0.3-7.2,0.5-10.7-0.3C244,163.9,247.6,164.7,251.1,164.5z"/>
			<path class="st0" d="M197.2,158.9c-1,0.1-1.8-0.5-2.6-1c-2.1-1.3-4.6-1.9-6.6-3.5C191.2,155.6,194.3,157.1,197.2,158.9z"/>
			<path class="st0" d="M122.1,166.3c3.1-0.4,6-1.2,9.1-1.8C128.2,165.7,125.3,166.5,122.1,166.3z"/>
			<path class="st0" d="M191.4,175.7c3.1,0.2,6.3-0.5,9.4,0.5C197.7,176.1,194.5,175.8,191.4,175.7z"/>
			<path class="st0" d="M49.3,167.4c-2.9,0.6-5.8,1.3-9.1,0.9C43.5,167.4,46.5,168,49.3,167.4z"/>
			<path class="st0" d="M15.6,141.9c-2.8,0.6-6,0.3-9.1,0.5c0-0.2,0-0.3,0-0.5C9.7,141.9,12.8,141.9,15.6,141.9z"/>
			<path class="st0" d="M274.6,148.4c-3.1-1-6-2.3-8.9-3.7c0.1-0.1,0.1-0.2,0.2-0.3c3,1.1,6,2.2,8.8,3.8
				C274.7,148.3,274.7,148.4,274.6,148.4z"/>
			<path class="st0" d="M157.7,158.9c-0.2,0.1-0.4,0.3-0.5,0.3c-3.8,0-7.7,0-11.5-0.3C149.7,158.9,153.7,158.9,157.7,158.9
				L157.7,158.9z"/>
			<path class="st0" d="M2.9,159.7c3.2,0.3,6.3,0.1,9.5,0.3C9.2,160.6,6,160.5,2.9,159.7z"/>
			<path class="st0" d="M119.3,168.8c3.2-0.2,6.3-0.5,9.5-0.7C125.6,168.9,122.4,169.3,119.3,168.8z"/>
			<path class="st0" d="M225.8,167.2c3.2-0.3,6.4,0.2,9.5,0.7C232.1,167.8,229,167.4,225.8,167.2z"/>
			<path class="st0" d="M264.1,159c3.3,0,6.6,0,10,0C270.8,159.9,267.4,159.1,264.1,159z"/>
			<path class="st0" d="M48.4,170.2c-3,1.1-6.2,0.8-9.3,0.5C42.2,170.3,45.3,170.7,48.4,170.2z"/>
			<path class="st0" d="M41,176.8c-2.5,0.7-5.1,1.1-7.7,1.3c0-0.1-0.1-0.3-0.1-0.4c2.6-0.4,5.1-0.9,7.7-1.3
				C41,176.5,41,176.7,41,176.8z"/>
			<path class="st0" d="M77,176.4c-2.4,0.6-4.8,0.7-7.2,0C72.2,176.4,74.6,176.4,77,176.4z"/>
			<path class="st0" d="M122.7,167.1c-2.6,0.4-5.3,0.9-8.2,0C117.4,167.1,120.1,167.1,122.7,167.1z"/>
			<path class="st0" d="M81.3,167.5c-3.1,0.8-6.2,0.6-9.3,0.4C75.2,168.1,78.2,167.4,81.3,167.5z"/>
			<path class="st0" d="M26,145.3c-3.6,0-7.2,0-10.7,0c0-0.1,0-0.2,0-0.2c3.6,0,7.2,0,10.7,0C26,145.1,26,145.2,26,145.3z"/>
			<path class="st0" d="M47.2,175.3c0.2-0.6,0.5-0.8,1.1-0.8c2.5,0,5,0.6,7.5,0.6c-2.3,0-4.6,0.1-6.8,0
				C48.3,175.1,47.8,174.9,47.2,175.3L47.2,175.3z"/>
			<path class="st0" d="M190.3,175.6c-1.7,0.5-3.5,0.2-5.3,0.1C186.7,175.1,188.5,175.2,190.3,175.6z"/>
			<path class="st0" d="M117.6,163.5c2.8-0.5,5.6-0.5,8.5-1.5C124.7,163.2,121,163.8,117.6,163.5z"/>
			<path class="st0" d="M110.1,157.2c1.2-0.9,2.4-0.1,3.6,0c1.8,0.1,3.5,0.5,5.3,0.4C115.9,158.5,113,157.3,110.1,157.2
				C110,157.2,110.1,157.2,110.1,157.2z"/>
			<path class="st0" d="M116.5,158.6c2.9,0.5,5.7,0.1,9-0.1C122.8,159.5,119.4,159.5,116.5,158.6z"/>
			<path class="st0" d="M22.9,144c2.3-0.6,4.6-0.3,6.9-0.3C27.5,143.8,25.2,144.6,22.9,144z"/>
			<path class="st0" d="M113.5,171c2.6-0.3,5.2-0.9,7.8-1.2C118.8,170.6,116.2,171.3,113.5,171z"/>
			<path class="st0" d="M108.9,63c-1.9-0.8-3.7-1.7-5.2-3C105.7,60.4,107.5,61.3,108.9,63z"/>
			<path class="st0" d="M33.6,144.6c0,0.3-0.2,0.6-0.5,0.6c-2-0.3-4,0.1-6-0.2C29.3,144.5,31.5,144.6,33.6,144.6
				C33.6,144.7,33.6,144.6,33.6,144.6z"/>
			<path class="st0" d="M292.5,148.8c2.8-0.6,5.6-0.3,8.5,0C298.2,148.8,295.4,148.8,292.5,148.8z"/>
			<path class="st0" d="M268.3,138.9c-1.8,0.4-3.5,0.2-5.3-0.2C264.8,138.5,266.6,138.4,268.3,138.9z"/>
			<path class="st0" d="M52.6,164.6c2.2-0.3,4.3-0.7,6.5-1.2C57.1,164.8,54.8,164.8,52.6,164.6z"/>
			<path class="st0" d="M302.9,153.6c-1.9,0.5-3.7,0.7-5.9,0.1C299.2,153.3,301,153.5,302.9,153.6z"/>
			<path class="st0" d="M296.8,160.3c-2.2,0.2-4.4,0.7-6.5-0.4C292.5,160.1,294.6,160.2,296.8,160.3z"/>
			<path class="st0" d="M14.4,161.6c2.4-0.8,5-0.4,7.4-1.2C19.4,161.7,16.9,161.5,14.4,161.6z"/>
			<path class="st0" d="M227.8,168.8c-2.7-0.2-5.3-0.3-8-0.5C222.5,167.8,225.1,168.5,227.8,168.8z"/>
			<path class="st0" d="M203,166.6c0.8,0.2,0.7,1.2,1.4,1.5c-0.4,1.3-1.5,0.5-2.3,0.7c0.3-0.3-0.5-0.9,0.3-1
				C203.2,167.6,202.9,167,203,166.6C203,166.6,203,166.6,203,166.6z"/>
			<path class="st0" d="M30.7,161.1c-2.4,0.6-4.8,0.4-7.1-0.7C25.9,161.1,28.3,160.9,30.7,161.1z"/>
			<path class="st0" d="M116.7,169.9c-2.1,0.7-4.2,0.7-6.5,0C112.5,169.9,114.6,169.9,116.7,169.9z"/>
			<path class="st0" d="M81.6,163.2L81.6,163.2c0.5-0.9,1.1-0.3,1.7-0.3c1.3,0,2.5,0.6,3.8,0.8c-0.6,0-1.2,0.1-1.8,0
				C84,163.4,82.7,163.8,81.6,163.2z"/>
			<path class="st0" d="M236.7,162.4c2.7,0,5.5,0,8.2,0c-2.7,0.4-5.4,0-8.2,0.5C236.7,162.8,236.7,162.6,236.7,162.4z"/>
			<path class="st0" d="M247.5,138.5c-2.4-0.6-4.8-1.4-6.9-2.7C243,136.3,245.3,137.2,247.5,138.5z"/>
			<path class="st0" d="M265.3,142.6c2.4,0.5,4.6,1.3,6.7,2.7C269.6,144.8,267.4,143.8,265.3,142.6z"/>
			<path class="st0" d="M191,169.1c1.1,0.2,1.5-0.4,1.4-1.4c0.7,0.7,0.7,1.7,1,2.6c-1.2-0.7-2.4-0.7-3.9-0.4
				C190.1,169.3,190.7,169.7,191,169.1z"/>
			<path class="st0" d="M132.5,158.8c2.6-0.3,5.2,0.1,7.7-0.3C137.6,159.2,135,158.7,132.5,158.8z"/>
			<path class="st0" d="M136.6,161.3c-2.4,0.8-4.7,0.4-7-0.4C132,161.1,134.3,161.2,136.6,161.3
				C136.7,161.3,136.6,161.3,136.6,161.3z"/>
			<path class="st0" d="M235.5,132.2c-2.1-0.9-4.2-1.7-6.3-2.6c0.1-0.2,0.1-0.3,0.2-0.5c2.1,0.9,4.2,1.9,6.3,2.8
				C235.6,132,235.5,132.1,235.5,132.2z"/>
			<path class="st0" d="M139,171.2c2,0.1,3.9,0.8,6,0.9C142.9,172.3,140.8,172.5,139,171.2L139,171.2z"/>
			<path class="st0" d="M85.3,157.5c2.3,0.4,4.6,0.3,6.8,0.5c-2.3,0.1-4.7,0.6-6.9-0.4C85.2,157.6,85.3,157.6,85.3,157.5z"/>
			<path class="st0" d="M258.3,161.6c-2.5,0-5,0-7.5,0c0-0.1,0-0.1,0-0.2c2.5,0,5,0,7.5,0C258.3,161.4,258.3,161.5,258.3,161.6z"/>
			<path class="st0" d="M7.6,144c2.3,0,4.5,0,6.8,0c0,0.1,0,0.2,0,0.2c-2.3,0-4.5,0-6.8,0C7.6,144.1,7.6,144,7.6,144z"/>
			<path class="st0" d="M77.2,164.8c-2.3,0.4-4.7,0.3-7,0C72.5,164.6,74.9,164.7,77.2,164.8z"/>
			<path class="st0" d="M99.2,157.5c0.2,0.2,0.5,0.4,0.7,0.6c-2.1-0.3-4.1-0.2-6.2-0.5C95.5,157.6,97.4,157.6,99.2,157.5L99.2,157.5
				z"/>
			<path class="st0" d="M313.7,149c-2.5,0-4.5,0-6.6,0C308,148.5,311.3,148.5,313.7,149z"/>
			<path class="st0" d="M313.5,153.6c-2,1.1-4.1,0.4-6.2,0.5C309.4,153.7,311.5,153.9,313.5,153.6z"/>
			<path class="st0" d="M179.1,176.1c1.6-0.6,3.3-0.8,5-0.4C182.5,176,180.8,176.5,179.1,176.1z"/>
			<path class="st0" d="M294,144.9c-2.2,0-4.5,0-6.7,0c0-0.1,0-0.1,0-0.2c2.2,0,4.4,0,6.6,0C293.9,144.8,294,144.9,294,144.9z"/>
			<path class="st0" d="M226.6,94.9c1.3-1.3,2.5-2.8,4.1-3.8c0.1,0.1,0.1,0.2,0.2,0.2c-1.3,1.3-2.5,2.7-4.1,3.7
				C226.8,95,226.7,95,226.6,94.9z"/>
			<path class="st0" d="M5.3,151.5c2.1,0,4.1,0,6.2,0c0,0.1,0,0.1,0,0.2c-2.1,0-4.1,0-6.2,0C5.3,151.6,5.3,151.6,5.3,151.5z"/>
			<ellipse class="st0" cx="298.4" cy="144.8" rx="4.7" ry="0.1"/>
			<path class="st0" d="M6.5,153.6c-2.1,0.1-4.1,0.3-6-0.4C2.5,153.2,4.5,153.8,6.5,153.6z"/>
			<path class="st0" d="M127.2,166.8c-1.5,0.9-3.1,1.6-5,1.1C124,167.8,125.5,167,127.2,166.8z"/>
			<path class="st0" d="M114.6,177.3c-2.2,0-4.3,0-6.5,0C110.2,177.1,112.4,176.3,114.6,177.3L114.6,177.3z"/>
			<path class="st0" d="M133.2,169.8c-1.8,0.9-3.7,1.3-5.7,1.1c1.9-0.4,3.8-0.8,5.7-1.2L133.2,169.8z"/>
			<path class="st0" d="M89.4,161c-1.7,0.9-3.4,0.6-5.1,0.4C86,161.6,87.5,160.7,89.4,161z"/>
			<path class="st0" d="M301.4,152.7c1.5-0.7,3,0,4.5,0C304.4,152.7,302.9,152.7,301.4,152.7z"/>
			<path class="st0" d="M279.1,165.2c-1.4,0.2-2.7,0.2-4.4-0.4C276.5,164.5,277.8,164.6,279.1,165.2z"/>
			<path class="st0" d="M156.1,160.6c-2.1,0-4.3,0-6.4,0C151.8,160.4,153.9,159.9,156.1,160.6L156.1,160.6z"/>
			<path class="st0" d="M25.8,157.1c1.7-0.4,3.5,0,5.2-0.3C29.3,157.5,27.5,157.5,25.8,157.1z"/>
			<path class="st0" d="M16.7,147.1c1.9,0,3.8,0,5.7,0c0,0.1,0,0.1,0,0.2c-1.9,0-3.8,0-5.8,0C16.7,147.2,16.7,147.1,16.7,147.1z"/>
			<path class="st0" d="M313.3,155.7c0.1-0.5-0.7-0.3-0.5-0.7c0.1-0.2,0.5-0.3,0.7-0.3c0.6,0,0.5,0.4,0.5,0.8c0,0.3,0.2,0.7-0.4,0.7
				c-1,0-2,0.2-3.1-0.1C311.5,155.5,312.5,156.1,313.3,155.7z"/>
			<path class="st0" d="M38.8,166.6c-1.2,0.2-2.4,0.3-4.1-0.1C36.4,165.9,37.6,166.2,38.8,166.6z"/>
			<path class="st0" d="M296,142.1c1.8-0.3,3.7-0.3,6,0C299.6,142.4,297.8,142.3,296,142.1z"/>
			<path class="st0" d="M203,166.6C203,166.6,203,166.6,203,166.6c-0.1,0-0.2,0.1-0.3,0.1C202.8,166.7,202.9,166.6,203,166.6z"/>
			<path class="st0" d="M261.1,156.9c-0.5-1.1-1.7-1.5-2.7-1.9c-5.7-2.4-11.5-4.8-17.2-7.2c-0.4-0.2-1-0.2-1.2-0.7
				c2.5,0.4,4.7,1.7,7.1,2.7c4.8,2,9.6,4,14.5,6c0,0.3,0,0.5,0,0.8C261.3,156.6,261.2,156.8,261.1,156.9z"/>
			<path class="st0" d="M48,110c0.2,1,1.4,0.9,1.9,1.5c0.4,0.5,1.1,0.5,1.3,1.2c-0.8-0.1-1.7-0.2-2.5-0.3c-0.5-0.5-1-0.7-1.7-0.8
				c-1.1-0.1-1.7-0.7-1.8-2C46.2,109.7,47.1,109.9,48,110z"/>
			<path class="st0" d="M52.7,115.7c0.6,1,1.5,1.6,2.5,2.2c-0.2,0.4-0.6,0.2-0.8,0.2c-1.8-0.9-3.6-1.8-5.4-2.7
				c-0.2-0.6,0-0.9,0.6-0.6C50.5,115.4,51.7,115.4,52.7,115.7z"/>
			<path class="st0" d="M85.5,120.2c0.1,0.5,0.3,1,0.8,1.3c-3-0.8-5.8-1.6-8.6-2.9c1.7,0,3.1,1.1,4.9,0.9
				C83.6,119.6,84.4,120.5,85.5,120.2z"/>
			<path class="st0" d="M48.7,108c0.1,0.4,0.3,0.9,0.4,1.3c-2.1-0.5-3.9-1.6-5.8-2.9c1.5-0.5,2.3,1.1,3.6,0.5
				C47.5,107.4,48,107.9,48.7,108L48.7,108z"/>
			<path class="st0" d="M48.7,112.3c0.8,0.1,1.7,0.2,2.5,0.3c0.3,0.3,0.6,0.4,1,0.3c0.4,1.1,1.9,1,2.5,2.1c-0.7,0.2-1.5-0.4-2.1,0.4
				c-0.3-1.2-1.4-1.4-2.2-1.9C49.9,113.2,49.2,112.9,48.7,112.3z"/>
			<path class="st0" d="M48.9,115.4c1.8,0.9,3.6,1.8,5.4,2.7c0.8,1,2.1,0.9,3.2,2.1c-2.7-0.8-4.6-2.3-6.9-3.1
				C50,116.7,49,116.5,48.9,115.4z"/>
			<path class="st0" d="M65.8,104.3c-0.4-1.7-1-3.3-0.9-5.1c1,3,1.8,6.1,2.1,9.3C66.1,107.3,65.9,105.8,65.8,104.3z"/>
			<path class="st0" d="M160.3,37.6c-0.6,2.1-1.3,4.2-2,6.4c-0.5-0.6-0.2-1.1-0.3-1.6c0.4-1.1,0.9-2.1,1.2-3.2
				C159.4,38.4,159.6,37.9,160.3,37.6z"/>
			<path class="st0" d="M19,76.4c-0.4,0-0.8-0.7-1.2-0.1c-0.3-0.3-0.6-0.6-0.4-1.1c0.6-0.1,0.9,0.4,1.4,0.6
				C18.8,76,18.9,76.2,19,76.4z"/>
			<path class="st0" d="M34,100.1c-0.3-0.1-0.6,0-0.7-0.3c0.2,0,0.5,0,0.7,0C34,99.9,34,100,34,100.1z"/>
			<path class="st0" d="M197.3,164.5c-3.4-1.3-6.6-3.2-9.8-5.1C191,160.8,194.2,162.4,197.3,164.5z"/>
			<path class="st0" d="M179.5,152.8c2.7,1,5.3,2,7.6,3.8C184.3,155.7,181.8,154.5,179.5,152.8z"/>
			<path class="st0" d="M188.9,157.5c2.4,0.6,4.4,1.8,6.4,3.1C192.9,160.1,190.9,158.9,188.9,157.5z"/>
			<path class="st0" d="M176.5,153.7c1.8,0.7,3.5,1.5,5,2.6c-1.9-0.6-3.6-1.4-5.2-2.4C176.4,153.8,176.5,153.8,176.5,153.7z"/>
			<path class="st0" d="M202,166.4c-0.2,0-0.3,0-0.5,0c0-0.5-0.7-1.1,0.1-1.5C201.7,165.4,201.9,165.9,202,166.4z"/>
			<path class="st0" d="M201,166.4c-0.3,0-0.6,0-0.9,0c0.2-0.3,0.4-0.6,0.7-1C200.9,165.8,200.9,166.1,201,166.4z"/>
			<path class="st0" d="M200.2,82.2c-1.2-0.1-1.5-0.7-0.7-1.6c0.6-0.6,0.9-1.4,1.8-1.6C201.1,80.1,199.7,80.8,200.2,82.2z"/>
			<path class="st0" d="M132.6,99.1c-0.6,3-2.4,5.6-3.4,8.4c-2.1,5.6-4.7,10.9-7.2,16.3c-0.2,0.5-0.3,1.1-1,1.2
				c0.8-2.7,2.2-5.3,3.4-7.9c2.5-5.7,5.1-11.5,7.7-17.2C132.2,99.6,132.4,99.3,132.6,99.1z"/>
			<path class="st0" d="M98.8,150c-3.8,0-7.5,0-11.3,0c0-0.1,0-0.2,0-0.3c3.8,0,7.5,0,11.3,0C98.8,149.8,98.8,149.9,98.8,150z"/>
			<path class="st0" d="M82.4,146.4c-2.9,0.4-5.8,0.3-8.6-0.4C76.6,146.1,79.5,146.3,82.4,146.4z"/>
			<path class="st0" d="M106.2,151.5c-3,0.3-6,0.5-9,0C100.2,151.5,103.2,151.5,106.2,151.5z"/>
			<path class="st0" d="M83.7,153.1c2.3-0.1,4.5-0.5,6.8,0C88.2,153.1,86,153.1,83.7,153.1z"/>
			<path class="st0" d="M90,150.9c-2.4,0.2-4.7,0.3-7.1,0C85.3,150.7,87.7,150.7,90,150.9z"/>
			<path class="st0" d="M101.2,152.6c1.6,0,3.1,0,4.7,0c0,0.1,0,0.2,0,0.2c-1.6,0-3.1,0-4.7,0C101.1,152.7,101.1,152.7,101.2,152.6z
				"/>
			<path class="st0" d="M79,151.6c2.6-0.3,4.7-0.2,6.9,0C83.8,151.8,81.6,151.9,79,151.6z"/>
			<path class="st0" d="M90.7,153.9c2.1,0,4.2,0,6.4,0c0,0.1,0,0.1,0,0.2c-2.1,0-4.2,0-6.3,0C90.7,154,90.7,153.9,90.7,153.9z"/>
			<path class="st0" d="M48.9,106.9c-0.4-0.4-0.7-0.7-1.1-1.1c2.9,0.8,5.5,2.5,8.2,3.6c0.9,0.4,1.9,0.9,2.7,1.4
				c-1.5-0.1-2.7-1-4-1.4C52.7,108.7,51,107.3,48.9,106.9L48.9,106.9z"/>
			<path class="st0" d="M48.8,108c0.1-0.4-0.8-0.8,0.1-1.1l0,0c1.1,1,2.5,1.4,3.7,2c0.5,0.2,1.3,0.2,1.1,1.2
				C51.9,109.7,50.4,108.7,48.8,108L48.8,108z"/>
			<path class="st0" d="M57.4,121.2c2,0.2,3.6,1.4,5.3,2.2C60.8,123,59,122.4,57.4,121.2L57.4,121.2z"/>
			<path class="st0" d="M99.3,124.9c-1.7-0.4-3.4-0.7-5.1-1.1C96,123.9,97.7,124.1,99.3,124.9z"/>
			<path class="st0" d="M143.8,91.6c0.5-3.7,1.9-7.1,2.9-10.7c0.7-2.6,1.2-5.3,2.6-7.7c0.1,1.5-0.6,2.8-1,4.2
				c-1.2,4.4-2.5,8.7-3.8,13C144.3,90.9,144,91.2,143.8,91.6z"/>
			<path class="st0" d="M146.7,73.6c1.2-3.5,2.3-7,3.5-10.5c0.3-1,0.8-2-0.5-2.8c0.7-0.3,1.1,0.4,1.6,0.1c0.5,1,1.9,0.7,2.6,1.7
				c-0.5,0-0.8,0-1.2,0c-0.8-0.6-1.3-0.8-1.7,0.5c-1,3.2-2.2,6.4-3.3,9.6C147.4,72.7,147.5,73.4,146.7,73.6z"/>
			<path class="st0" d="M149.2,73.3c0.8-3.9,1.9-7.6,3.4-11.3c-0.2,2.8-1.5,5.2-2.2,7.9C150.1,71,150.1,72.3,149.2,73.3z"/>
			<path class="st0" d="M141.4,99.4c0.4-2.7,1.2-5.4,2.4-7.9C143.4,94.3,142.6,97,141.4,99.4z"/>
			<path class="st0" d="M168.1,94.7c0.7,10.8,1.4,21.7,2.1,32.5c-0.2,0-0.3,0-0.5,0C169,116.4,167.9,105.6,168.1,94.7z"/>
			<path class="st0" d="M166.7,71c0.4,7.5,0.9,15,1.3,22.5c-0.1,0-0.3,0-0.4,0c-0.5-7.5-1-15-1.5-22.5C166.3,71,166.5,71,166.7,71z"
				/>
			<path class="st0" d="M163.3,109.1c0.3,6,0.8,12,0.3,18.1C163.7,121.2,163.1,115.2,163.3,109.1z"/>
			<path class="st0" d="M135.8,52.2c-2.7-0.2-5-1.5-7.5-2.2c-0.7-0.2-1.4-0.6-2.2-0.8c1.4-0.2,2.6,0.5,3.9,0.9
				C132,50.6,134,51.1,135.8,52.2z"/>
			<path class="st0" d="M76.8,109c-0.6-2.6-1.2-5.2-1.9-7.7c0.1,0,0.3-0.1,0.4-0.1c0.6,2.6,1.3,5.2,1.9,7.8
				C77.1,108.9,77,108.9,76.8,109z"/>
			<path class="st0" d="M52.6,78.3c0.2,2.2,1,4.3,1.3,6.5C53.3,82.6,51.9,80.7,52.6,78.3L52.6,78.3z"/>
			<path class="st0" d="M61.8,87.5c-1-1.8-1.4-3.6-1.3-5.6C61,83.7,61.4,85.6,61.8,87.5z"/>
			<path class="st0" d="M65.6,83.4c0.6,2.1,1.3,4.1,1.9,6.2C66,87.8,65.9,85.6,65.6,83.4z"/>
			<path class="st0" d="M92.8,90.5c0.7,2.1,0.1,4.2,0.1,6.3C92.9,94.7,92.4,92.6,92.8,90.5C92.9,90.5,92.8,90.5,92.8,90.5z"/>
			<path class="st0" d="M182.6,167.8c-4.1-1.6-8-3.6-11.8-5.8c2.2,0.1,3.9,1.5,5.8,2.3c1,0.4,2.4,0.5,3.1,1.7c1-1,0.8,0.4,1.1,0.6
				C181.4,167,182.2,167,182.6,167.8z"/>
			<path class="st0" d="M96.9,113.4c-1.3-2.6-1.6-5.4-2.3-8.1C95.5,107.9,96.6,110.5,96.9,113.4L96.9,113.4z"/>
			<path class="st0" d="M46.5,99.4c-0.9-2-0.7-4.2-0.9-6.3C46.1,95.2,46.8,97.3,46.5,99.4C46.5,99.5,46.5,99.4,46.5,99.4z"/>
			<path class="st0" d="M212.3,123c0.8,1.5,1.5,3.1,2.3,4.6c-0.1,0.1-0.2,0.1-0.3,0.2c-0.8-1.5-1.6-3.1-2.4-4.6
				C212,123.1,212.2,123,212.3,123z"/>
			<path class="st0" d="M204,130.7c-0.8-1.6-1.6-3.1-2.4-4.7c0.1-0.1,0.2-0.1,0.4-0.2c0.8,1.6,1.7,3.1,2.5,4.7
				C204.2,130.5,204.1,130.6,204,130.7z"/>
			<path class="st0" d="M84.9,103.9c1,3.3,1.8,6.7,2.1,10.2c-0.8-3.4-1.7-6.8-2.5-10.2C84.6,103.9,84.8,103.9,84.9,103.9z"/>
			<path class="st0" d="M57.3,104.9c-0.8-2.3-1.2-4.7-1.5-7.1C56.6,100.1,57.5,102.4,57.3,104.9C57.3,105,57.3,104.9,57.3,104.9z"/>
			<path class="st0" d="M158.9,15.6c-0.2-2-0.3-3.9,0-6.4C159.2,11.7,159.1,13.7,158.9,15.6z"/>
			<path class="st0" d="M214.3,138.2c1.7,0.1,3.2,1,4.7,1.6c3,1.2,6.1,2.5,9.1,3.8c0.4,0.2,0.9,0.2,1,0.7c-1.9-0.2-3.6-1.3-5.3-2
				C220.7,141,217.3,139.9,214.3,138.2z"/>
			<path class="st0" d="M37.7,97.1c-0.7-4.3-1.5-8.6-2.2-12.9c1.3,3.4,1.6,7,2.1,10.5C37.8,95.4,38.4,96.2,37.7,97.1L37.7,97.1z"/>
			<path class="st0" d="M223.5,140.2c-0.4,0-0.8,0.1-1.1-0.1c-4.3-1.8-8.6-3.6-12.8-5.4c-0.1-0.1-0.2-0.2-0.4-0.3
				c0.4-0.1,0.8,0,1.1,0.1c4.2,1.7,8.3,3.5,12.5,5.2C223.1,139.9,223.3,140.1,223.5,140.2z"/>
			<path class="st0" d="M237.8,146c-3.1-0.6-6-1.9-8.8-3.4C232.1,143.3,235,144.6,237.8,146z"/>
			<path class="st0" d="M220.8,131c1.3-0.2,2.3,0.6,3.3,1c5.9,2.4,11.7,4.8,17.6,7.2c0.3,0.1,0.7,0.2,0.7,0.6
				c-2.5-0.5-4.7-1.8-7-2.7C230.5,135.2,225.5,133.3,220.8,131z"/>
			<path class="st0" d="M248.1,142.2c2.7,0.5,5,1.8,7.4,2.9c1.6,0.7,3.3,1.1,4.6,2.2c-0.7,0.2-1.2-0.2-1.8-0.4
				c-3.3-1.4-6.6-2.9-9.9-4.3C248.4,142.6,248.2,142.5,248.1,142.2z"/>
			<path class="st0" d="M242.4,139.9c2.1,0.3,4,1.3,5.8,2.4C246.1,141.9,244.2,141,242.4,139.9z"/>
			<path class="st0" d="M125.4,135.1c-1.1-0.4-1.2-1.6-1.6-2.4c-0.8-1.7-1.7-3.3-2.1-5.1c1.1,0.6,1.3,1.8,1.7,2.8
				C124.1,132,125.1,133.4,125.4,135.1z"/>
			<path class="st0" d="M162.8,53c0,2.6,0,5.3,0,7.9c-0.1,0-0.1,0-0.2,0c0-2.6,0-5.3,0-7.9C162.6,53,162.7,53,162.8,53z"/>
			<path class="st0" d="M50,122.5c-0.1-0.1-0.3-0.2-0.4-0.3c0-0.1,0-0.2,0-0.4c0.2,0,0.5,0,0.7,0l0,0c0.1,0.3,0.5,0.3,0.7,0.4l0,0
				C50.8,122.9,50.3,122.4,50,122.5z"/>
			<path class="st0" d="M51.7,121.8c0,0.1,0,0.2,0,0.4c-0.2,0-0.5,0-0.7,0c0,0,0,0,0,0c0-0.1,0-0.3,0-0.4l0,0
				C51.2,121.9,51.4,121.9,51.7,121.8z"/>
			<path class="st0" d="M33.9,138.3c1.2-0.2,2.5-0.3,3.7,0.2C36.3,139,35.1,138.8,33.9,138.3z"/>
			<path class="st0" d="M210.6,115.6c-0.3-0.9,0.2-1.3,1-1.6c-0.5,2,0.6,3.9,0,6c-0.7-1.4-0.1-2.9-0.8-4.2
				C210.8,115.8,210.7,115.7,210.6,115.6z"/>
			<path class="st0" d="M228.8,122.6c-0.3-0.2-0.6-0.4-1.1-0.7c0.8-0.1,1.4-0.2,2.1-0.3C229.3,121.8,229.8,122.9,228.8,122.6z"/>
			<path class="st0" d="M32.6,99.5c0.2,0,0.4-0.1,0.7-0.1c0,0.1,0,0.2,0,0.4c-0.2,0-0.5,0-0.7,0C32.7,99.7,32.7,99.6,32.6,99.5z"/>
			<path class="st0" d="M51,121.5c0,0.1,0,0.3,0,0.4l0,0c-0.2,0-0.5,0-0.7,0l0,0c0-0.1,0-0.3,0-0.4C50.5,121.5,50.7,121.5,51,121.5z
				"/>
		</g>
	</g>
</g>
</svg>
